<svg width="20" height="20" viewBox="0 0 20 20" fill="none" xmlns="http://www.w3.org/2000/svg">
<path d="M18.3077 15.2748C18.3077 15.5748 18.241 15.8832 18.0993 16.1832C17.9577 16.4832 17.7744 16.7665 17.5327 17.0332C17.1244 17.4832 16.6743 17.8082 16.166 18.0165C15.666 18.2248 15.1244 18.3332 14.541 18.3332C13.691 18.3332 12.7827 18.1332 11.8243 17.7248C10.866 17.3165 9.90768 16.7665 8.95768 16.0748C7.99935 15.3748 7.09102 14.5998 6.22435 13.7415C5.36602 12.8748 4.59102 11.9665 3.89935 11.0165C3.21602 10.0665 2.66602 9.1165 2.26602 8.17484C1.86602 7.22484 1.66602 6.3165 1.66602 5.44984C1.66602 4.88317 1.76602 4.3415 1.96602 3.8415C2.16602 3.33317 2.48268 2.8665 2.92435 2.44984C3.45768 1.92484 4.04102 1.6665 4.65768 1.6665C4.89102 1.6665 5.12435 1.7165 5.33268 1.8165C5.54935 1.9165 5.74102 2.0665 5.89102 2.28317L7.82435 5.00817C7.97435 5.2165 8.08268 5.40817 8.15768 5.5915C8.23268 5.7665 8.27435 5.9415 8.27435 6.09984C8.27435 6.29984 8.21602 6.49984 8.09935 6.6915C7.99102 6.88317 7.83268 7.08317 7.63268 7.28317L6.99935 7.9415C6.90768 8.03317 6.86602 8.1415 6.86602 8.27484C6.86602 8.3415 6.87435 8.39984 6.89102 8.4665C6.91602 8.53317 6.94102 8.58317 6.95768 8.63317C7.10768 8.90817 7.36602 9.2665 7.73268 9.69984C8.10768 10.1332 8.50768 10.5748 8.94102 11.0165C9.39102 11.4582 9.82435 11.8665 10.266 12.2415C10.6993 12.6082 11.0577 12.8582 11.341 13.0082C11.3827 13.0248 11.4327 13.0498 11.491 13.0748C11.5577 13.0998 11.6243 13.1082 11.6993 13.1082C11.841 13.1082 11.9493 13.0582 12.041 12.9665L12.6743 12.3415C12.8827 12.1332 13.0827 11.9748 13.2744 11.8748C13.466 11.7582 13.6577 11.6998 13.866 11.6998C14.0243 11.6998 14.191 11.7332 14.3743 11.8082C14.5577 11.8832 14.7494 11.9915 14.9577 12.1332L17.716 14.0915C17.9327 14.2415 18.0827 14.4165 18.1743 14.6248C18.2577 14.8332 18.3077 15.0415 18.3077 15.2748Z" fill="white"/>
</svg>
