<svg width="17" height="17" viewBox="0 0 17 17" fill="none" xmlns="http://www.w3.org/2000/svg">
<path id="Vector 9 (Stroke)" fill-rule="evenodd" clip-rule="evenodd" d="M0.146447 0.146447C0.341709 -0.0488155 0.658291 -0.0488155 0.853553 0.146447L8.5 7.79289L16.1464 0.146447C16.3417 -0.0488155 16.6583 -0.0488155 16.8536 0.146447C17.0488 0.341709 17.0488 0.658291 16.8536 0.853553L9.20711 8.5L16.8536 16.1464C17.0488 16.3417 17.0488 16.6583 16.8536 16.8536C16.6583 17.0488 16.3417 17.0488 16.1464 16.8536L8.5 9.20711L0.853553 16.8536C0.658291 17.0488 0.341709 17.0488 0.146447 16.8536C-0.0488155 16.6583 -0.0488155 16.3417 0.146447 16.1464L7.79289 8.5L0.146447 0.853553C-0.0488155 0.658291 -0.0488155 0.341709 0.146447 0.146447Z" fill="white"/>
</svg>
