<svg width="42" height="42" viewBox="0 0 42 42" fill="none" xmlns="http://www.w3.org/2000/svg">
<g id="entypo-social:instagram-with-circle" clip-path="url(#clip0_1227_30327)">
<path id="Vector" d="M27.5625 21C27.5625 22.7405 26.8711 24.4097 25.6404 25.6404C24.4097 26.8711 22.7405 27.5625 21 27.5625C19.2595 27.5625 17.5903 26.8711 16.3596 25.6404C15.1289 24.4097 14.4375 22.7405 14.4375 21C14.4375 20.6259 14.4769 20.2606 14.5447 19.9062H12.25V28.6497C12.25 29.2578 12.7422 29.75 13.3503 29.75H28.6519C28.9433 29.7494 29.2226 29.6332 29.4285 29.427C29.6344 29.2207 29.75 28.9411 29.75 28.6497V19.9062H27.4553C27.5231 20.2606 27.5625 20.6259 27.5625 21ZM21 25.375C21.5747 25.3749 22.1437 25.2615 22.6746 25.0415C23.2055 24.8214 23.6878 24.499 24.094 24.0925C24.5003 23.686 24.8225 23.2035 25.0423 22.6726C25.2621 22.1416 25.3751 21.5725 25.375 20.9978C25.3749 20.4231 25.2615 19.8541 25.0415 19.3232C24.8214 18.7924 24.499 18.31 24.0925 17.9038C23.686 17.4975 23.2035 17.1753 22.6726 16.9555C22.1416 16.7357 21.5725 16.6227 20.9978 16.6228C19.8372 16.6231 18.7242 17.0844 17.9038 17.9053C17.0833 18.7262 16.6225 19.8394 16.6228 21C16.6231 22.1606 17.0844 23.2736 17.9053 24.094C18.7262 24.9145 19.8394 25.3753 21 25.375ZM26.25 16.4062H28.8728C29.0471 16.4063 29.2142 16.3372 29.3376 16.2142C29.461 16.0912 29.5307 15.9242 29.5312 15.75V13.1272C29.5312 12.9526 29.4619 12.7851 29.3384 12.6616C29.2149 12.5381 29.0474 12.4688 28.8728 12.4688H26.25C26.0754 12.4688 25.9079 12.5381 25.7844 12.6616C25.6609 12.7851 25.5916 12.9526 25.5916 13.1272V15.75C25.5938 16.1109 25.8891 16.4062 26.25 16.4062ZM21 0C15.4305 0 10.089 2.21249 6.15076 6.15076C2.21249 10.089 0 15.4305 0 21C0 26.5695 2.21249 31.911 6.15076 35.8492C10.089 39.7875 15.4305 42 21 42C23.7578 42 26.4885 41.4568 29.0364 40.4015C31.5842 39.3461 33.8992 37.7993 35.8492 35.8492C37.7993 33.8992 39.3461 31.5842 40.4015 29.0364C41.4568 26.4885 42 23.7578 42 21C42 18.2422 41.4568 15.5115 40.4015 12.9636C39.3461 10.4158 37.7993 8.10079 35.8492 6.15076C33.8992 4.20073 31.5842 2.65388 29.0364 1.59853C26.4885 0.543181 23.7578 0 21 0ZM31.9375 29.5072C31.9375 30.8438 30.8438 31.9375 29.5072 31.9375H12.4928C11.1562 31.9375 10.0625 30.8438 10.0625 29.5072V12.4928C10.0625 11.1562 11.1562 10.0625 12.4928 10.0625H29.5072C30.8438 10.0625 31.9375 11.1562 31.9375 12.4928V29.5072Z" fill="#5317A6"/>
</g>
<defs>
<clipPath id="clip0_1227_30327">
<rect width="42" height="42" fill="white"/>
</clipPath>
</defs>
</svg>
