<svg width="42" height="42" viewBox="0 0 42 42" fill="none" xmlns="http://www.w3.org/2000/svg">
<g id="entypo-social:linkedin-with-circle" clip-path="url(#clip0_1227_30319)">
<path id="Vector" d="M21 0C9.40188 0 0 9.40188 0 21C0 32.5981 9.40188 42 21 42C32.5981 42 42 32.5981 42 21C42 9.40188 32.5981 0 21 0ZM15.8594 29.7041H11.6069V16.0191H15.8594V29.7041ZM13.7069 14.3391C12.3637 14.3391 11.4953 13.3875 11.4953 12.2106C11.4953 11.0097 12.39 10.0866 13.7616 10.0866C15.1331 10.0866 15.9731 11.0097 15.9994 12.2106C15.9994 13.3875 15.1331 14.3391 13.7069 14.3391ZM31.3906 29.7041H27.1381V22.12C27.1381 20.3547 26.5213 19.1559 24.9834 19.1559C23.8088 19.1559 23.1109 19.9675 22.8025 20.7484C22.6888 21.0263 22.6603 21.42 22.6603 21.8116V29.7019H18.4056V20.3831C18.4056 18.6747 18.3509 17.2463 18.2941 16.0169H21.9888L22.1834 17.9178H22.2688C22.8288 17.0253 24.2003 15.7084 26.495 15.7084C29.2928 15.7084 31.3906 17.5831 31.3906 21.6125V29.7041Z" fill="#5317A6"/>
</g>
<defs>
<clipPath id="clip0_1227_30319">
<rect width="42" height="42" fill="white"/>
</clipPath>
</defs>
</svg>
