<svg width="22" height="24" viewBox="0 0 22 24" fill="none" xmlns="http://www.w3.org/2000/svg">
<g id="Frame 9548">
<path id="Union" fill-rule="evenodd" clip-rule="evenodd" d="M19.1484 10.8232C19.1484 15.7938 15.119 19.8232 10.1484 19.8232C5.17787 19.8232 1.14844 15.7938 1.14844 10.8232C1.14844 5.85268 5.17787 1.82324 10.1484 1.82324C15.119 1.82324 19.1484 5.85268 19.1484 10.8232ZM20.1484 10.8232C20.1484 16.3461 15.6713 20.8232 10.1484 20.8232C4.62558 20.8232 0.148438 16.3461 0.148438 10.8232C0.148438 5.30039 4.62558 0.823242 10.1484 0.823242C15.6713 0.823242 20.1484 5.30039 20.1484 10.8232ZM16.7949 19.1768L20.7948 23.1768L21.502 22.4697L17.502 18.4697L16.7949 19.1768Z" fill="#5317A6"/>
</g>
</svg>
