<svg width="42" height="42" viewBox="0 0 42 42" fill="none" xmlns="http://www.w3.org/2000/svg">
  <g clip-path="url(#clip0_1227_30323)">
    <path d="M21 0C9.40275 0 0 9.40275 0 21C0 32.5972 9.40275 42 21 42C32.5972 42 42 32.5972 42 21C42 9.40275 32.5972 0 21 0ZM31.3145 14.3867L27.867 30.6267C27.6132 31.7782 26.9272 32.0583 25.97 31.5158L20.72 27.6483L18.1895 30.0878C18.0655 30.2483 17.9064 30.3782 17.7244 30.4677C17.5424 30.5572 17.3423 30.6038 17.1395 30.604H17.1307L17.5035 25.2595L27.2335 16.471C27.6535 16.0982 27.139 15.8865 26.5807 16.2593L14.56 23.8298L9.38 22.2127C8.26 21.8575 8.2285 21.0928 9.61625 20.5433L29.8568 12.7418C30.7983 12.3988 31.6172 12.9657 31.3127 14.3885L31.3145 14.3867Z" fill="#5317A6"/>
  </g>
  <defs>
    <clipPath id="clip0_1227_30323">
      <rect width="42" height="42" fill="white"/>
    </clipPath>
  </defs>
</svg>
