<svg width="42" height="42" viewBox="0 0 42 42" fill="none" xmlns="http://www.w3.org/2000/svg">
<g id="ri:whatsapp-fill" clip-path="url(#clip0_1227_30325)">
<path id="Vector" d="M21 0C32.5983 0 42 9.40169 42 21C42 32.5983 32.5983 42 21 42C17.2889 42.006 13.643 41.0238 10.437 39.1545L0.00842954 42L2.84763 31.5672C0.976724 28.3602 -0.00617059 24.7128 2.91485e-05 21C2.91485e-05 9.40169 9.40172 0 21 0ZM13.8432 11.13L13.4232 11.1468C13.1513 11.1634 12.8856 11.2348 12.642 11.3568C12.4142 11.4858 12.2063 11.6471 12.0246 11.8356C11.7726 12.0729 11.6298 12.2787 11.4765 12.4782C10.6998 13.4881 10.2816 14.7279 10.2879 16.002C10.2921 17.031 10.5609 18.0327 10.9809 18.9693C11.8398 20.8635 13.2531 22.869 15.1179 24.7275C15.5673 25.1748 16.0083 25.6242 16.4829 26.0421C18.8 28.0822 21.5612 29.5534 24.5469 30.3387L25.7397 30.5214C26.1282 30.5424 26.5167 30.513 26.9073 30.4941C27.5189 30.4625 28.1161 30.2969 28.6566 30.009C28.9316 29.8673 29.2 29.7132 29.4609 29.547C29.4609 29.547 29.5512 29.4882 29.7234 29.358C30.0069 29.148 30.1812 28.9989 30.4164 28.7532C30.5907 28.5726 30.7419 28.3605 30.8574 28.119C31.0212 27.7767 31.185 27.1236 31.2522 26.5797C31.3026 26.1639 31.2879 25.9371 31.2816 25.7964C31.2732 25.5717 31.0863 25.3386 30.8826 25.2399L29.6604 24.6918C29.6604 24.6918 27.8334 23.8959 26.7162 23.3877C26.5993 23.3366 26.474 23.3075 26.3466 23.3016C26.2029 23.2868 26.0578 23.303 25.9208 23.349C25.7839 23.395 25.6584 23.4698 25.5528 23.5683C25.5423 23.5641 25.4016 23.6838 23.8833 25.5234C23.7962 25.6405 23.6761 25.729 23.5385 25.7776C23.4009 25.8262 23.2519 25.8328 23.1105 25.7964C22.9737 25.7597 22.8397 25.7134 22.7094 25.6578C22.449 25.5486 22.3587 25.5066 22.1802 25.431C20.975 24.905 19.8591 24.1944 18.8727 23.3247C18.6081 23.0937 18.3624 22.8417 18.1104 22.5981C17.2843 21.8069 16.5642 20.9118 15.9684 19.9353L15.8445 19.7358C15.7555 19.6017 15.6836 19.4571 15.6303 19.3053C15.5505 18.9966 15.7584 18.7488 15.7584 18.7488C15.7584 18.7488 16.2687 18.1902 16.506 17.8878C16.737 17.5938 16.9323 17.3082 17.0583 17.1045C17.3061 16.7055 17.3838 16.296 17.2536 15.9789C16.6656 14.5425 16.0566 13.1124 15.4308 11.6928C15.3069 11.4114 14.9394 11.2098 14.6055 11.1699C14.4921 11.1573 14.3787 11.1447 14.2653 11.1363C13.9833 11.1223 13.7007 11.1251 13.419 11.1447L13.8411 11.1279L13.8432 11.13Z" fill="#5317A6"/>
</g>
<defs>
<clipPath id="clip0_1227_30325">
<rect width="42" height="42" fill="white"/>
</clipPath>
</defs>
</svg>
