<svg width="32" height="32" viewBox="0 0 32 32" fill="none" xmlns="http://www.w3.org/2000/svg">
<rect width="32" height="32" rx="3" fill="white"/>
<path d="M4.75018 12.0572C4.75018 12.0572 7.69991 8.60337 12.4486 12.0572C17.1972 15.5109 17.766 10.1874 23.8242 10.525C25.3454 10.6029 26.602 11.2651 27.5676 12.2519C31.5226 16.251 28.4803 22.9898 22.8057 22.9898H10.1205C8.05705 22.9898 6.12584 22.042 4.89569 20.406C3.30839 18.3025 2.03855 15.1734 4.75018 12.0572Z" fill="url(#paint0_linear_77_768)"/>
<path d="M6.39041 22.9896C4.20788 22.9896 2.47508 21.0549 2.88513 18.9515C3.12323 17.731 4.06238 16.4845 6.45655 15.6406C13.0967 13.3034 13.0967 9.25236 18.2951 9.01864C23.4935 8.78493 26.9856 13.615 25.8745 19.0684C25.3454 21.7042 23.3745 22.9896 21.8401 22.9896H6.39041Z" fill="url(#paint1_linear_77_768)"/>
<defs>
<linearGradient id="paint0_linear_77_768" x1="3.16526" y1="16.7448" x2="29.3552" y2="16.7448" gradientUnits="userSpaceOnUse">
<stop stop-color="#271959"/>
<stop offset="1" stop-color="#5317A6"/>
</linearGradient>
<linearGradient id="paint1_linear_77_768" x1="2.81899" y1="15.9947" x2="26.0881" y2="15.9947" gradientUnits="userSpaceOnUse">
<stop stop-color="#29D9BB"/>
<stop offset="1" stop-color="#29D9BB" stop-opacity="0.5"/>
</linearGradient>
</defs>
</svg>
