<svg width="45" height="44" viewBox="0 0 45 44" fill="none" xmlns="http://www.w3.org/2000/svg">
<g id="Frame">
<path id="Vector" d="M8.76467 36.6666H36.2353C36.4957 36.6667 36.7476 36.5745 36.9463 36.4063C37.1451 36.2381 37.2777 36.0049 37.3207 35.7481L40.6207 15.9481C40.647 15.7905 40.6387 15.629 40.5963 15.4748C40.5539 15.3207 40.4785 15.1777 40.3751 15.0557C40.2718 14.9337 40.1432 14.8357 39.9982 14.7685C39.8531 14.7013 39.6952 14.6666 39.5353 14.6666H5.46467C5.30482 14.6666 5.14688 14.7013 5.00184 14.7685C4.85681 14.8357 4.72816 14.9337 4.62485 15.0557C4.52155 15.1777 4.44606 15.3207 4.40366 15.4748C4.36126 15.629 4.35296 15.7905 4.37933 15.9481L7.67933 35.7481C7.72229 36.0049 7.85493 36.2381 8.05366 36.4063C8.25239 36.5745 8.50433 36.6667 8.76467 36.6666Z" stroke="url(#paint0_linear_502_909)" stroke-width="1.5" stroke-linecap="round" stroke-linejoin="round"/>
<path id="Vector_2" d="M13.3334 14.6667V11C13.3334 10.0276 13.7197 9.09495 14.4073 8.40732C15.0949 7.71968 16.0276 7.33337 17 7.33337H28C28.9725 7.33337 29.9051 7.71968 30.5928 8.40732C31.2804 9.09495 31.6667 10.0276 31.6667 11V14.6667" stroke="url(#paint1_linear_502_909)" stroke-width="1.5" stroke-linecap="round" stroke-linejoin="round"/>
</g>
<defs>
<linearGradient id="paint0_linear_502_909" x1="22.5" y1="14.6666" x2="17.8279" y2="54.3348" gradientUnits="userSpaceOnUse">
<stop stop-color="#29D9BB"/>
<stop offset="1" stop-color="#3A0CA3"/>
</linearGradient>
<linearGradient id="paint1_linear_502_909" x1="22.5" y1="7.33337" x2="21.465" y2="20.6591" gradientUnits="userSpaceOnUse">
<stop stop-color="#29D9BB"/>
<stop offset="1" stop-color="#3A0CA3"/>
</linearGradient>
</defs>
</svg>
