<svg width="44" height="44" viewBox="0 0 44 44" fill="none" xmlns="http://www.w3.org/2000/svg">
<g id="Frame">
<path id="Vector" d="M14.6673 18.3337H29.334M14.6673 33.0003H29.334M14.6673 25.667H22.0007M7.33398 39.2337V4.76699C7.33398 4.47525 7.44988 4.19546 7.65617 3.98917C7.86246 3.78288 8.14225 3.66699 8.43398 3.66699H29.796C30.0876 3.66725 30.3672 3.78331 30.5733 3.98966L36.3446 9.76099C36.4473 9.86348 36.5286 9.98524 36.584 10.1193C36.6393 10.2533 36.6677 10.397 36.6673 10.542V39.2337C36.6673 39.3781 36.6389 39.5212 36.5836 39.6546C36.5283 39.7881 36.4473 39.9093 36.3451 40.0115C36.243 40.1136 36.1217 40.1946 35.9883 40.2499C35.8548 40.3052 35.7118 40.3337 35.5673 40.3337H8.43398C8.28953 40.3337 8.14649 40.3052 8.01303 40.2499C7.87957 40.1946 7.75831 40.1136 7.65617 40.0115C7.55402 39.9093 7.473 39.7881 7.41772 39.6546C7.36244 39.5212 7.33398 39.3781 7.33398 39.2337Z" stroke="url(#paint0_linear_158_12078)" stroke-width="1.5" stroke-linecap="round" stroke-linejoin="round"/>
<path id="Vector_2" d="M29.334 3.66699V9.90033C29.334 10.1921 29.4499 10.4719 29.6562 10.6781C29.8625 10.8844 30.1422 11.0003 30.434 11.0003H36.6673" stroke="url(#paint1_linear_158_12078)" stroke-width="1.5" stroke-linecap="round" stroke-linejoin="round"/>
</g>
<defs>
<linearGradient id="paint0_linear_158_12078" x1="22.0007" y1="27.0916" x2="22.0007" y2="-0.00457066" gradientUnits="userSpaceOnUse">
<stop stop-color="#8424FF"/>
<stop offset="1" stop-color="#00E2BC"/>
</linearGradient>
<linearGradient id="paint1_linear_158_12078" x1="33.0007" y1="8.35191" x2="33.0007" y2="2.93268" gradientUnits="userSpaceOnUse">
<stop stop-color="#8424FF"/>
<stop offset="1" stop-color="#00E2BC"/>
</linearGradient>
</defs>
</svg>
