<svg width="44" height="44" viewBox="0 0 44 44" fill="none" xmlns="http://www.w3.org/2000/svg">
<g id="Frame">
<path id="Vector" d="M14.6667 34.8333C15.6391 34.8333 16.5718 34.447 17.2594 33.7594C17.947 33.0718 18.3333 32.1391 18.3333 31.1667C18.3333 30.1942 17.947 29.2616 17.2594 28.5739C16.5718 27.8863 15.6391 27.5 14.6667 27.5C13.6942 27.5 12.7616 27.8863 12.0739 28.5739C11.3863 29.2616 11 30.1942 11 31.1667C11 32.1391 11.3863 33.0718 12.0739 33.7594C12.7616 34.447 13.6942 34.8333 14.6667 34.8333ZM33 34.8333C33.9725 34.8333 34.9051 34.447 35.5927 33.7594C36.2804 33.0718 36.6667 32.1391 36.6667 31.1667C36.6667 30.1942 36.2804 29.2616 35.5927 28.5739C34.9051 27.8863 33.9725 27.5 33 27.5C32.0275 27.5 31.0949 27.8863 30.4073 28.5739C29.7196 29.2616 29.3333 30.1942 29.3333 31.1667C29.3333 32.1391 29.7196 33.0718 30.4073 33.7594C31.0949 34.447 32.0275 34.8333 33 34.8333Z" stroke="url(#paint0_linear_502_924)" stroke-width="1.5" stroke-miterlimit="1.5" stroke-linecap="round" stroke-linejoin="round"/>
<path id="Vector_2" d="M18.425 31.1667H27.5V12.1C27.5 11.8083 27.3841 11.5285 27.1779 11.3222C26.9716 11.1159 26.6918 11 26.4 11H1.83337M10.3584 31.1667H6.60004C6.45559 31.1667 6.31255 31.1382 6.17909 31.0829C6.04563 31.0277 5.92437 30.9466 5.82222 30.8445C5.72008 30.7423 5.63905 30.6211 5.58377 30.4876C5.52849 30.3542 5.50004 30.2111 5.50004 30.0667V21.0833" stroke="url(#paint1_linear_502_924)" stroke-width="1.5" stroke-linecap="round" stroke-linejoin="round"/>
<path id="Vector_3" d="M3.66663 16.5H11" stroke="url(#paint2_linear_502_924)" stroke-width="1.5" stroke-linecap="round" stroke-linejoin="round"/>
<path id="Vector_4" d="M27.5 16.5H37.785C37.9976 16.5001 38.2057 16.5617 38.384 16.6776C38.5623 16.7934 38.7032 16.9584 38.7897 17.1527L42.0713 24.5373C42.1339 24.6776 42.1663 24.8293 42.1667 24.9828V30.0667C42.1667 30.2111 42.1382 30.3542 42.0829 30.4876C42.0277 30.6211 41.9466 30.7423 41.8445 30.8445C41.7423 30.9466 41.6211 31.0277 41.4876 31.0829C41.3542 31.1382 41.2111 31.1667 41.0667 31.1667H37.5833M27.5 31.1667H29.3333" stroke="url(#paint3_linear_502_924)" stroke-width="1.5" stroke-linecap="round" stroke-linejoin="round"/>
</g>
<defs>
<linearGradient id="paint0_linear_502_924" x1="23.8333" y1="27.5" x2="23.8333" y2="34.8333" gradientUnits="userSpaceOnUse">
<stop stop-color="#2AD6BB"/>
<stop offset="1" stop-color="#3365AE"/>
</linearGradient>
<linearGradient id="paint1_linear_502_924" x1="14.6667" y1="11" x2="9.1698" y2="47.0282" gradientUnits="userSpaceOnUse">
<stop stop-color="#29D9BB"/>
<stop offset="1" stop-color="#3A0CA3"/>
</linearGradient>
<linearGradient id="paint2_linear_502_924" x1="7.33329" y1="16.5" x2="7.33329" y2="17.5" gradientUnits="userSpaceOnUse">
<stop stop-color="#2AD6BB"/>
<stop offset="1" stop-color="#3365AE"/>
</linearGradient>
<linearGradient id="paint3_linear_502_924" x1="34.8333" y1="16.5" x2="29.816" y2="42.338" gradientUnits="userSpaceOnUse">
<stop stop-color="#29D9BB"/>
<stop offset="1" stop-color="#3A0CA3"/>
</linearGradient>
</defs>
</svg>
