<svg width="45" height="45" viewBox="0 0 45 45" fill="none" xmlns="http://www.w3.org/2000/svg">
<g id="Frame">
<path id="Vector" d="M36.5625 41.25C37.3084 41.25 38.0238 40.9537 38.5512 40.4262C39.0787 39.8988 39.375 39.1834 39.375 38.4375C39.375 37.6916 39.0787 36.9762 38.5512 36.4488C38.0238 35.9213 37.3084 35.625 36.5625 35.625C35.8166 35.625 35.1012 35.9213 34.5738 36.4488C34.0463 36.9762 33.75 37.6916 33.75 38.4375C33.75 39.1834 34.0463 39.8988 34.5738 40.4262C35.1012 40.9537 35.8166 41.25 36.5625 41.25ZM17.8125 41.25C18.5584 41.25 19.2738 40.9537 19.8012 40.4262C20.3287 39.8988 20.625 39.1834 20.625 38.4375C20.625 37.6916 20.3287 36.9762 19.8012 36.4488C19.2738 35.9213 18.5584 35.625 17.8125 35.625C17.0666 35.625 16.3512 35.9213 15.8238 36.4488C15.2963 36.9762 15 37.6916 15 38.4375C15 39.1834 15.2963 39.8988 15.8238 40.4262C16.3512 40.9537 17.0666 41.25 17.8125 41.25Z" stroke="url(#paint0_linear_41_610)" stroke-width="1.5" stroke-linecap="round" stroke-linejoin="round"/>
<path id="Vector_2" d="M9.375 7.5H41.25L37.5 28.125M9.375 7.5L13.125 28.125H37.5M9.375 7.5C9.06188 6.24938 7.5 3.75 3.75 3.75M37.5 28.125H9.80625C6.46125 28.125 4.6875 29.5894 4.6875 31.875C4.6875 34.1606 6.46125 35.625 9.80625 35.625H36.5625" stroke="url(#paint1_linear_41_610)" stroke-width="1.5" stroke-linecap="round" stroke-linejoin="round"/>
</g>
<defs>
<linearGradient id="paint0_linear_41_610" x1="27.1875" y1="35.625" x2="26.7276" y2="45.8875" gradientUnits="userSpaceOnUse">
<stop stop-color="#29D9BB"/>
<stop offset="1" stop-color="#3A0CA3"/>
</linearGradient>
<linearGradient id="paint1_linear_41_610" x1="22.5" y1="3.75" x2="13.1371" y2="60.4757" gradientUnits="userSpaceOnUse">
<stop stop-color="#29D9BB"/>
<stop offset="1" stop-color="#3A0CA3"/>
</linearGradient>
</defs>
</svg>
