<svg width="45" height="44" viewBox="0 0 45 44" fill="none" xmlns="http://www.w3.org/2000/svg">
<g id="Frame">
<path id="Vector" d="M9.66667 38.5L35.3333 38.5C36.3058 38.5 37.2384 38.1137 37.9261 37.4261C38.6137 36.7384 39 35.8058 39 34.8333L39 9.16667C39 8.19421 38.6137 7.26158 37.9261 6.57394C37.2384 5.88631 36.3058 5.5 35.3333 5.5L9.66667 5.5C8.69421 5.5 7.76158 5.88631 7.07394 6.57394C6.38631 7.26158 6 8.19421 6 9.16667L6 34.8333C6 35.8058 6.38631 36.7384 7.07394 37.4261C7.76158 38.1137 8.69421 38.5 9.66667 38.5Z" stroke="url(#paint0_linear_502_943)" stroke-width="1.5" stroke-linecap="round" stroke-linejoin="round"/>
<path id="Vector_2" d="M25.4333 33H32.4C32.6917 33 32.9715 32.8841 33.1778 32.6778C33.3841 32.4715 33.5 32.1917 33.5 31.9V12.1C33.5 11.8083 33.3841 11.5285 33.1778 11.3222C32.9715 11.1159 32.6917 11 32.4 11H25.4333C25.1416 11 24.8618 11.1159 24.6555 11.3222C24.4492 11.5285 24.3333 11.8083 24.3333 12.1V31.9C24.3333 32.1917 24.4492 32.4715 24.6555 32.6778C24.8618 32.8841 25.1416 33 25.4333 33ZM12.6 33H19.5667C19.8584 33 20.1382 32.8841 20.3445 32.6778C20.5508 32.4715 20.6667 32.1917 20.6667 31.9V19.4333C20.6667 19.1416 20.5508 18.8618 20.3445 18.6555C20.1382 18.4492 19.8584 18.3333 19.5667 18.3333H12.6C12.3083 18.3333 12.0285 18.4492 11.8222 18.6555C11.6159 18.8618 11.5 19.1416 11.5 19.4333V31.9C11.5 32.1917 11.6159 32.4715 11.8222 32.6778C12.0285 32.8841 12.3083 33 12.6 33Z" stroke="url(#paint1_linear_502_943)" stroke-width="1.5" stroke-linecap="round" stroke-linejoin="round"/>
</g>
<defs>
<linearGradient id="paint0_linear_502_943" x1="22.5" y1="38.5" x2="33.7889" y2="-19.6356" gradientUnits="userSpaceOnUse">
<stop stop-color="#29D9BB"/>
<stop offset="1" stop-color="#3A0CA3"/>
</linearGradient>
<linearGradient id="paint1_linear_502_943" x1="22.5" y1="33" x2="30.026" y2="-5.75705" gradientUnits="userSpaceOnUse">
<stop stop-color="#29D9BB"/>
<stop offset="1" stop-color="#3A0CA3"/>
</linearGradient>
</defs>
</svg>
