<svg width="44" height="45" viewBox="0 0 44 45" fill="none" xmlns="http://www.w3.org/2000/svg">
<g id="Frame">
<path id="Vector" d="M40.3333 23.6667L38.8061 28.25M38.8061 28.25L36.6666 34.6667H28.4166L26.5833 28.25H38.8061ZM30.25 38.3517L30.2683 38.3315M35.75 38.3517L35.7683 38.3315M3.66663 33.75C3.66666 31.3412 4.34465 28.981 5.62304 26.9394C6.90143 24.8978 8.72862 23.2572 10.8956 22.2052C13.0626 21.1533 15.4819 20.7325 17.8768 20.9909C20.2718 21.2494 22.5456 22.1766 24.4383 23.6667M16.5 20.9167C18.4449 20.9167 20.3101 20.144 21.6854 18.7688C23.0607 17.3935 23.8333 15.5283 23.8333 13.5833C23.8333 11.6384 23.0607 9.77315 21.6854 8.39788C20.3101 7.02262 18.4449 6.25 16.5 6.25C14.555 6.25 12.6898 7.02262 11.3145 8.39788C9.93924 9.77315 9.16663 11.6384 9.16663 13.5833C9.16663 15.5283 9.93924 17.3935 11.3145 18.7688C12.6898 20.144 14.555 20.9167 16.5 20.9167Z" stroke="url(#paint0_linear_502_915)" stroke-width="1.5" stroke-linecap="round" stroke-linejoin="round"/>
</g>
<defs>
<linearGradient id="paint0_linear_502_915" x1="22" y1="6.25" x2="12.3033" y2="63.2869" gradientUnits="userSpaceOnUse">
<stop stop-color="#29D9BB"/>
<stop offset="1" stop-color="#3A0CA3"/>
</linearGradient>
</defs>
</svg>
