<svg width="636" height="851" viewBox="0 0 636 851" fill="none" xmlns="http://www.w3.org/2000/svg">
<g clip-path="url(#clip0_41_828)">
<path opacity="0.7" d="M608.051 727.544C608.051 727.544 513.752 642.171 403.682 727.349C293.614 812.531 253.705 681.148 94.3579 689.152C54.5232 691.154 24.1547 707.402 2.8947 731.648C-83.6811 830.392 28.4356 996.728 179.405 996.874L516.105 997.193C570.797 997.246 617.898 973.748 642.926 933.693C675.337 881.819 694.636 804.73 608.051 727.544Z" fill="url(#paint0_linear_41_828)" fill-opacity="0.85"/>
<path opacity="0.3" d="M556.562 993.495C615.249 993.722 652.491 945.607 631.421 892.872C619.166 862.197 588.04 831.034 519.803 809.825C330.064 750.845 310.93 649.429 170.035 642.902C29.1401 636.375 -23.6324 737.32 1.80653 836.458C11.6837 874.957 25.8043 906.964 39.3841 931.708C59.0193 967.502 100.166 991.735 141.313 991.892L556.562 993.495Z" fill="url(#paint1_linear_41_828)"/>
<path opacity="0.2" d="M279.592 1158.61C218.262 1168.8 160.395 1132.12 161.742 1081.39C162.525 1051.89 182.868 1018.73 245.953 988.166C421.381 903.163 401.588 809.243 546.487 779.436C691.386 749.628 786.25 830.891 798.547 923.848C803.323 959.948 801.107 990.959 796.615 1015.39C790.116 1050.73 756.565 1079.39 713.559 1086.54L279.589 1158.62L279.592 1158.61Z" fill="url(#paint2_linear_41_828)"/>
<path opacity="0.4" d="M315.18 1048.61C376.51 1058.8 434.377 1022.12 433.03 971.393C432.247 941.886 411.904 908.731 348.819 878.165C173.391 793.162 193.184 699.242 48.2847 669.435C-96.6143 639.627 -191.478 720.89 -203.775 813.847C-208.552 849.947 -206.335 880.958 -201.843 905.392C-195.344 940.731 -161.793 969.392 -118.787 976.537L315.183 1048.61L315.18 1048.61Z" fill="url(#paint3_linear_41_828)"/>
<path d="M127.145 555V545.545H130.45C131.109 545.545 131.652 545.659 132.08 545.887C132.508 546.112 132.826 546.415 133.036 546.797C133.245 547.175 133.349 547.595 133.349 548.057C133.349 548.463 133.277 548.799 133.132 549.063C132.991 549.328 132.803 549.537 132.569 549.691C132.338 549.845 132.088 549.959 131.817 550.033V550.125C132.106 550.143 132.397 550.245 132.689 550.43C132.982 550.614 133.226 550.879 133.423 551.224C133.62 551.568 133.719 551.99 133.719 552.489C133.719 552.963 133.611 553.389 133.396 553.767C133.18 554.146 132.84 554.446 132.375 554.668C131.911 554.889 131.306 555 130.561 555H127.145ZM128.29 553.984H130.561C131.309 553.984 131.84 553.84 132.154 553.55C132.471 553.258 132.629 552.904 132.629 552.489C132.629 552.169 132.548 551.873 132.385 551.602C132.221 551.328 131.989 551.11 131.688 550.947C131.386 550.781 131.029 550.697 130.616 550.697H128.29V553.984ZM128.29 549.7H130.413C130.758 549.7 131.069 549.633 131.346 549.497C131.626 549.362 131.848 549.171 132.011 548.925C132.177 548.679 132.26 548.389 132.26 548.057C132.26 547.641 132.115 547.289 131.826 547C131.537 546.707 131.078 546.561 130.45 546.561H128.29V549.7ZM136.154 557.659C135.969 557.659 135.805 557.644 135.66 557.613C135.515 557.585 135.415 557.558 135.36 557.53L135.637 556.57C135.902 556.637 136.135 556.662 136.339 556.643C136.542 556.625 136.722 556.534 136.879 556.371C137.039 556.211 137.185 555.951 137.317 555.591L137.52 555.037L134.898 547.909H136.08L138.037 553.56H138.111L140.069 547.909H141.251L138.241 556.034C138.105 556.4 137.937 556.703 137.737 556.944C137.537 557.187 137.305 557.367 137.04 557.484C136.779 557.601 136.483 557.659 136.154 557.659ZM151.368 549.497L150.389 549.774C150.327 549.611 150.237 549.453 150.116 549.299C150 549.142 149.839 549.012 149.636 548.911C149.433 548.809 149.173 548.759 148.856 548.759C148.422 548.759 148.061 548.859 147.771 549.059C147.485 549.256 147.342 549.506 147.342 549.811C147.342 550.082 147.44 550.296 147.637 550.453C147.834 550.61 148.142 550.741 148.561 550.845L149.613 551.104C150.247 551.258 150.72 551.493 151.031 551.81C151.341 552.124 151.497 552.529 151.497 553.024C151.497 553.43 151.38 553.794 151.146 554.114C150.915 554.434 150.592 554.686 150.176 554.871C149.761 555.055 149.278 555.148 148.727 555.148C148.004 555.148 147.405 554.991 146.931 554.677C146.457 554.363 146.157 553.904 146.031 553.301L147.065 553.043C147.163 553.424 147.35 553.71 147.624 553.901C147.901 554.092 148.262 554.188 148.708 554.188C149.216 554.188 149.619 554.08 149.918 553.864C150.22 553.646 150.37 553.384 150.37 553.08C150.37 552.833 150.284 552.627 150.112 552.461C149.94 552.292 149.675 552.165 149.318 552.082L148.136 551.805C147.487 551.652 147.01 551.413 146.705 551.09C146.403 550.764 146.252 550.356 146.252 549.866C146.252 549.466 146.365 549.112 146.589 548.805C146.817 548.497 147.127 548.255 147.517 548.08C147.911 547.904 148.358 547.817 148.856 547.817C149.558 547.817 150.109 547.971 150.509 548.278C150.912 548.586 151.198 548.992 151.368 549.497ZM156.11 555.148C155.427 555.148 154.837 554.997 154.342 554.695C153.849 554.391 153.469 553.966 153.201 553.421C152.937 552.873 152.804 552.236 152.804 551.51C152.804 550.784 152.937 550.143 153.201 549.589C153.469 549.032 153.842 548.598 154.319 548.288C154.799 547.974 155.359 547.817 155.999 547.817C156.368 547.817 156.733 547.878 157.093 548.001C157.453 548.125 157.781 548.325 158.076 548.602C158.372 548.875 158.607 549.239 158.783 549.691C158.958 550.143 159.046 550.701 159.046 551.362V551.824H153.58V550.882H157.938C157.938 550.482 157.858 550.125 157.698 549.811C157.541 549.497 157.316 549.249 157.024 549.068C156.735 548.886 156.393 548.795 155.999 548.795C155.565 548.795 155.19 548.903 154.873 549.119C154.559 549.331 154.317 549.608 154.148 549.95C153.979 550.291 153.894 550.657 153.894 551.048V551.676C153.894 552.212 153.986 552.666 154.171 553.038C154.359 553.407 154.619 553.689 154.951 553.883C155.283 554.074 155.67 554.169 156.11 554.169C156.396 554.169 156.655 554.129 156.885 554.049C157.119 553.966 157.321 553.843 157.49 553.68C157.659 553.513 157.79 553.307 157.883 553.061L158.935 553.357C158.824 553.714 158.638 554.027 158.377 554.298C158.115 554.566 157.792 554.775 157.407 554.926C157.022 555.074 156.59 555.148 156.11 555.148ZM161.793 550.734V555H160.703V547.909H161.756V549.017H161.848C162.014 548.657 162.267 548.368 162.605 548.149C162.944 547.928 163.381 547.817 163.916 547.817C164.396 547.817 164.816 547.915 165.177 548.112C165.537 548.306 165.817 548.602 166.017 548.999C166.217 549.393 166.317 549.891 166.317 550.494V555H165.227V550.568C165.227 550.011 165.083 549.577 164.793 549.266C164.504 548.952 164.107 548.795 163.602 548.795C163.255 548.795 162.944 548.871 162.67 549.022C162.399 549.172 162.185 549.393 162.028 549.682C161.871 549.971 161.793 550.322 161.793 550.734ZM170.985 555.148C170.394 555.148 169.873 554.998 169.42 554.7C168.968 554.398 168.614 553.974 168.358 553.426C168.103 552.875 167.975 552.224 167.975 551.473C167.975 550.728 168.103 550.082 168.358 549.534C168.614 548.986 168.969 548.563 169.425 548.265C169.88 547.966 170.407 547.817 171.004 547.817C171.465 547.817 171.83 547.894 172.098 548.048C172.369 548.198 172.575 548.371 172.716 548.565C172.861 548.755 172.973 548.912 173.053 549.036H173.146V545.545H174.235V555H173.183V553.911H173.053C172.973 554.04 172.86 554.203 172.712 554.4C172.564 554.594 172.353 554.768 172.079 554.922C171.805 555.072 171.441 555.148 170.985 555.148ZM171.133 554.169C171.57 554.169 171.939 554.055 172.241 553.827C172.543 553.597 172.772 553.278 172.929 552.872C173.086 552.462 173.164 551.99 173.164 551.455C173.164 550.925 173.087 550.462 172.933 550.065C172.78 549.665 172.552 549.354 172.25 549.132C171.949 548.908 171.576 548.795 171.133 548.795C170.671 548.795 170.287 548.914 169.979 549.151C169.674 549.385 169.445 549.703 169.291 550.107C169.14 550.507 169.065 550.956 169.065 551.455C169.065 551.959 169.142 552.418 169.296 552.83C169.453 553.24 169.683 553.566 169.988 553.809C170.296 554.049 170.677 554.169 171.133 554.169ZM176.382 555V547.909H177.471V555H176.382ZM176.936 546.727C176.724 546.727 176.54 546.655 176.387 546.51C176.236 546.366 176.16 546.192 176.16 545.989C176.16 545.786 176.236 545.612 176.387 545.467C176.54 545.322 176.724 545.25 176.936 545.25C177.148 545.25 177.33 545.322 177.481 545.467C177.635 545.612 177.711 545.786 177.711 545.989C177.711 546.192 177.635 546.366 177.481 546.51C177.33 546.655 177.148 546.727 176.936 546.727ZM180.556 550.734V555H179.467V547.909H180.519V549.017H180.612C180.778 548.657 181.03 548.368 181.369 548.149C181.707 547.928 182.144 547.817 182.68 547.817C183.16 547.817 183.58 547.915 183.94 548.112C184.3 548.306 184.58 548.602 184.78 548.999C184.98 549.393 185.081 549.891 185.081 550.494V555H183.991V550.568C183.991 550.011 183.846 549.577 183.557 549.266C183.268 548.952 182.871 548.795 182.366 548.795C182.018 548.795 181.707 548.871 181.434 549.022C181.163 549.172 180.949 549.393 180.792 549.682C180.635 549.971 180.556 550.322 180.556 550.734ZM189.934 557.807C189.407 557.807 188.955 557.739 188.576 557.604C188.198 557.471 187.882 557.296 187.63 557.077C187.381 556.862 187.182 556.631 187.034 556.385L187.902 555.776C188.001 555.905 188.125 556.053 188.276 556.219C188.427 556.388 188.633 556.534 188.895 556.657C189.16 556.783 189.506 556.847 189.934 556.847C190.506 556.847 190.978 556.708 191.351 556.431C191.723 556.154 191.909 555.72 191.909 555.129V553.689H191.817C191.737 553.818 191.623 553.978 191.475 554.169C191.331 554.357 191.122 554.525 190.848 554.672C190.577 554.817 190.211 554.889 189.749 554.889C189.176 554.889 188.663 554.754 188.207 554.483C187.755 554.212 187.396 553.818 187.131 553.301C186.87 552.784 186.739 552.156 186.739 551.418C186.739 550.691 186.867 550.059 187.122 549.52C187.378 548.979 187.733 548.56 188.189 548.265C188.644 547.966 189.17 547.817 189.767 547.817C190.229 547.817 190.595 547.894 190.866 548.048C191.14 548.198 191.349 548.371 191.494 548.565C191.642 548.755 191.756 548.912 191.836 549.036H191.946V547.909H192.999V555.203C192.999 555.812 192.86 556.308 192.583 556.69C192.31 557.074 191.94 557.356 191.475 557.534C191.014 557.716 190.5 557.807 189.934 557.807ZM189.897 553.911C190.334 553.911 190.703 553.81 191.005 553.61C191.306 553.41 191.536 553.123 191.692 552.747C191.849 552.372 191.928 551.922 191.928 551.399C191.928 550.888 191.851 550.437 191.697 550.047C191.543 549.656 191.315 549.349 191.014 549.128C190.712 548.906 190.34 548.795 189.897 548.795C189.435 548.795 189.05 548.912 188.743 549.146C188.438 549.38 188.209 549.694 188.055 550.088C187.904 550.482 187.828 550.919 187.828 551.399C187.828 551.892 187.905 552.327 188.059 552.706C188.216 553.081 188.447 553.377 188.752 553.592C189.06 553.804 189.441 553.911 189.897 553.911ZM199.351 557.659C199.167 557.659 199.002 557.644 198.857 557.613C198.713 557.585 198.613 557.558 198.557 557.53L198.834 556.57C199.099 556.637 199.333 556.662 199.536 556.643C199.739 556.625 199.919 556.534 200.076 556.371C200.236 556.211 200.382 555.951 200.515 555.591L200.718 555.037L198.096 547.909H199.277L201.235 553.56H201.309L203.266 547.909H204.448L201.438 556.034C201.302 556.4 201.135 556.703 200.935 556.944C200.735 557.187 200.502 557.367 200.238 557.484C199.976 557.601 199.681 557.659 199.351 557.659ZM208.513 555.148C207.872 555.148 207.311 554.995 206.828 554.691C206.347 554.386 205.972 553.96 205.701 553.412C205.433 552.864 205.3 552.224 205.3 551.491C205.3 550.753 205.433 550.108 205.701 549.557C205.972 549.006 206.347 548.578 206.828 548.274C207.311 547.969 207.872 547.817 208.513 547.817C209.153 547.817 209.713 547.969 210.193 548.274C210.676 548.578 211.052 549.006 211.319 549.557C211.59 550.108 211.726 550.753 211.726 551.491C211.726 552.224 211.59 552.864 211.319 553.412C211.052 553.96 210.676 554.386 210.193 554.691C209.713 554.995 209.153 555.148 208.513 555.148ZM208.513 554.169C208.999 554.169 209.399 554.044 209.713 553.795C210.027 553.546 210.259 553.218 210.41 552.812C210.561 552.406 210.636 551.965 210.636 551.491C210.636 551.018 210.561 550.576 210.41 550.167C210.259 549.757 210.027 549.426 209.713 549.174C209.399 548.922 208.999 548.795 208.513 548.795C208.026 548.795 207.626 548.922 207.312 549.174C206.998 549.426 206.766 549.757 206.615 550.167C206.464 550.576 206.389 551.018 206.389 551.491C206.389 551.965 206.464 552.406 206.615 552.812C206.766 553.218 206.998 553.546 207.312 553.795C207.626 554.044 208.026 554.169 208.513 554.169ZM217.858 552.101V547.909H218.947V555H217.858V553.8H217.784C217.617 554.16 217.359 554.466 217.008 554.718C216.657 554.968 216.214 555.092 215.679 555.092C215.235 555.092 214.841 554.995 214.497 554.801C214.152 554.605 213.881 554.309 213.684 553.915C213.487 553.518 213.389 553.018 213.389 552.415V547.909H214.478V552.341C214.478 552.858 214.623 553.27 214.912 553.578C215.205 553.886 215.577 554.04 216.029 554.04C216.3 554.04 216.576 553.971 216.856 553.832C217.139 553.694 217.376 553.481 217.567 553.195C217.761 552.909 217.858 552.544 217.858 552.101ZM220.942 555V547.909H221.995V548.98H222.069C222.198 548.629 222.432 548.345 222.771 548.126C223.109 547.908 223.491 547.798 223.915 547.798C223.996 547.798 224.096 547.8 224.216 547.803C224.336 547.806 224.426 547.811 224.488 547.817V548.925C224.451 548.915 224.366 548.902 224.234 548.883C224.105 548.862 223.968 548.851 223.823 548.851C223.478 548.851 223.171 548.923 222.9 549.068C222.632 549.209 222.42 549.406 222.263 549.659C222.109 549.908 222.032 550.193 222.032 550.513V555H220.942ZM232.113 555.148C231.522 555.148 231.001 554.998 230.548 554.7C230.096 554.398 229.742 553.974 229.486 553.426C229.231 552.875 229.103 552.224 229.103 551.473C229.103 550.728 229.231 550.082 229.486 549.534C229.742 548.986 230.097 548.563 230.553 548.265C231.008 547.966 231.535 547.817 232.132 547.817C232.593 547.817 232.958 547.894 233.226 548.048C233.497 548.198 233.703 548.371 233.844 548.565C233.989 548.755 234.101 548.912 234.181 549.036H234.274V545.545H235.363V555H234.311V553.911H234.181C234.101 554.04 233.987 554.203 233.84 554.4C233.692 554.594 233.481 554.768 233.207 554.922C232.933 555.072 232.569 555.148 232.113 555.148ZM232.261 554.169C232.698 554.169 233.067 554.055 233.369 553.827C233.67 553.597 233.9 553.278 234.057 552.872C234.214 552.462 234.292 551.99 234.292 551.455C234.292 550.925 234.215 550.462 234.061 550.065C233.907 549.665 233.68 549.354 233.378 549.132C233.076 548.908 232.704 548.795 232.261 548.795C231.799 548.795 231.415 548.914 231.107 549.151C230.802 549.385 230.573 549.703 230.419 550.107C230.268 550.507 230.193 550.956 230.193 551.455C230.193 551.959 230.27 552.418 230.424 552.83C230.581 553.24 230.811 553.566 231.116 553.809C231.424 554.049 231.805 554.169 232.261 554.169ZM240.483 555.148C239.8 555.148 239.21 554.997 238.715 554.695C238.222 554.391 237.842 553.966 237.574 553.421C237.31 552.873 237.177 552.236 237.177 551.51C237.177 550.784 237.31 550.143 237.574 549.589C237.842 549.032 238.215 548.598 238.692 548.288C239.172 547.974 239.732 547.817 240.372 547.817C240.741 547.817 241.106 547.878 241.466 548.001C241.826 548.125 242.154 548.325 242.449 548.602C242.745 548.875 242.98 549.239 243.156 549.691C243.331 550.143 243.419 550.701 243.419 551.362V551.824H237.953V550.882H242.311C242.311 550.482 242.231 550.125 242.071 549.811C241.914 549.497 241.689 549.249 241.397 549.068C241.108 548.886 240.766 548.795 240.372 548.795C239.938 548.795 239.563 548.903 239.246 549.119C238.932 549.331 238.69 549.608 238.521 549.95C238.352 550.291 238.267 550.657 238.267 551.048V551.676C238.267 552.212 238.359 552.666 238.544 553.038C238.732 553.407 238.992 553.689 239.324 553.883C239.657 554.074 240.043 554.169 240.483 554.169C240.769 554.169 241.028 554.129 241.258 554.049C241.492 553.966 241.694 553.843 241.863 553.68C242.032 553.513 242.163 553.307 242.256 553.061L243.308 553.357C243.197 553.714 243.011 554.027 242.75 554.298C242.488 554.566 242.165 554.775 241.78 554.926C241.395 555.074 240.963 555.148 240.483 555.148ZM248.16 547.909V548.832H244.485V547.909H248.16ZM245.556 546.21H246.646V552.969C246.646 553.277 246.69 553.507 246.78 553.661C246.872 553.812 246.989 553.914 247.131 553.966C247.275 554.015 247.428 554.04 247.588 554.04C247.708 554.04 247.806 554.034 247.883 554.021C247.96 554.006 248.022 553.994 248.068 553.984L248.289 554.963C248.215 554.991 248.112 555.018 247.98 555.046C247.848 555.077 247.68 555.092 247.477 555.092C247.169 555.092 246.867 555.026 246.572 554.894C246.28 554.761 246.036 554.56 245.843 554.289C245.652 554.018 245.556 553.677 245.556 553.264V546.21ZM251.886 555.166C251.436 555.166 251.028 555.082 250.662 554.912C250.296 554.74 250.005 554.492 249.79 554.169C249.574 553.843 249.467 553.449 249.467 552.987C249.467 552.581 249.547 552.252 249.707 551.999C249.867 551.744 250.081 551.544 250.348 551.399C250.616 551.254 250.911 551.147 251.235 551.076C251.561 551.002 251.889 550.944 252.218 550.901C252.649 550.845 252.998 550.804 253.266 550.776C253.537 550.745 253.734 550.694 253.857 550.624C253.983 550.553 254.046 550.43 254.046 550.254V550.217C254.046 549.762 253.921 549.408 253.672 549.156C253.426 548.903 253.052 548.777 252.55 548.777C252.03 548.777 251.622 548.891 251.327 549.119C251.032 549.346 250.824 549.589 250.704 549.848L249.67 549.479C249.854 549.048 250.101 548.712 250.408 548.472C250.719 548.229 251.058 548.06 251.424 547.964C251.793 547.866 252.156 547.817 252.513 547.817C252.741 547.817 253.003 547.844 253.298 547.9C253.597 547.952 253.884 548.061 254.161 548.228C254.442 548.394 254.674 548.645 254.859 548.98C255.043 549.316 255.136 549.765 255.136 550.328V555H254.046V554.04H253.991C253.917 554.194 253.794 554.358 253.621 554.534C253.449 554.709 253.22 554.858 252.934 554.982C252.647 555.105 252.298 555.166 251.886 555.166ZM252.052 554.188C252.483 554.188 252.846 554.103 253.141 553.934C253.44 553.764 253.664 553.546 253.815 553.278C253.969 553.01 254.046 552.729 254.046 552.433V551.436C254 551.491 253.898 551.542 253.741 551.588C253.588 551.632 253.409 551.67 253.206 551.704C253.006 551.735 252.81 551.762 252.62 551.787C252.432 551.808 252.28 551.827 252.163 551.842C251.879 551.879 251.615 551.939 251.369 552.022C251.125 552.102 250.928 552.224 250.778 552.387C250.63 552.547 250.556 552.766 250.556 553.043C250.556 553.421 250.696 553.707 250.976 553.901C251.259 554.092 251.618 554.188 252.052 554.188ZM257.124 555V547.909H258.214V555H257.124ZM257.678 546.727C257.466 546.727 257.283 546.655 257.129 546.51C256.978 546.366 256.903 546.192 256.903 545.989C256.903 545.786 256.978 545.612 257.129 545.467C257.283 545.322 257.466 545.25 257.678 545.25C257.89 545.25 258.072 545.322 258.223 545.467C258.377 545.612 258.454 545.786 258.454 545.989C258.454 546.192 258.377 546.366 258.223 546.51C258.072 546.655 257.89 546.727 257.678 546.727ZM261.299 545.545V555H260.209V545.545H261.299ZM268.317 549.497L267.338 549.774C267.277 549.611 267.186 549.453 267.066 549.299C266.949 549.142 266.789 549.012 266.586 548.911C266.382 548.809 266.122 548.759 265.805 548.759C265.371 548.759 265.01 548.859 264.721 549.059C264.434 549.256 264.291 549.506 264.291 549.811C264.291 550.082 264.39 550.296 264.587 550.453C264.784 550.61 265.091 550.741 265.51 550.845L266.562 551.104C267.196 551.258 267.669 551.493 267.98 551.81C268.291 552.124 268.446 552.529 268.446 553.024C268.446 553.43 268.329 553.794 268.095 554.114C267.864 554.434 267.541 554.686 267.126 554.871C266.71 555.055 266.227 555.148 265.676 555.148C264.953 555.148 264.354 554.991 263.88 554.677C263.406 554.363 263.106 553.904 262.98 553.301L264.014 553.043C264.113 553.424 264.299 553.71 264.573 553.901C264.85 554.092 265.211 554.188 265.658 554.188C266.165 554.188 266.569 554.08 266.867 553.864C267.169 553.646 267.32 553.384 267.32 553.08C267.32 552.833 267.233 552.627 267.061 552.461C266.889 552.292 266.624 552.165 266.267 552.082L265.085 551.805C264.436 551.652 263.959 551.413 263.654 551.09C263.353 550.764 263.202 550.356 263.202 549.866C263.202 549.466 263.314 549.112 263.539 548.805C263.766 548.497 264.076 548.255 264.467 548.08C264.861 547.904 265.307 547.817 265.805 547.817C266.507 547.817 267.058 547.971 267.458 548.278C267.861 548.586 268.147 548.992 268.317 549.497ZM274.444 557.659C274.259 557.659 274.095 557.644 273.95 557.613C273.805 557.585 273.705 557.558 273.65 557.53L273.927 556.57C274.192 556.637 274.426 556.662 274.629 556.643C274.832 556.625 275.012 556.534 275.169 556.371C275.329 556.211 275.475 555.951 275.607 555.591L275.81 555.037L273.188 547.909H274.37L276.328 553.56H276.401L278.359 547.909H279.541L276.531 556.034C276.395 556.4 276.227 556.703 276.027 556.944C275.827 557.187 275.595 557.367 275.33 557.484C275.069 557.601 274.773 557.659 274.444 557.659ZM283.605 555.148C282.965 555.148 282.404 554.995 281.92 554.691C281.44 554.386 281.065 553.96 280.794 553.412C280.526 552.864 280.392 552.224 280.392 551.491C280.392 550.753 280.526 550.108 280.794 549.557C281.065 549.006 281.44 548.578 281.92 548.274C282.404 547.969 282.965 547.817 283.605 547.817C284.246 547.817 284.806 547.969 285.286 548.274C285.769 548.578 286.144 549.006 286.412 549.557C286.683 550.108 286.818 550.753 286.818 551.491C286.818 552.224 286.683 552.864 286.412 553.412C286.144 553.96 285.769 554.386 285.286 554.691C284.806 554.995 284.246 555.148 283.605 555.148ZM283.605 554.169C284.092 554.169 284.492 554.044 284.806 553.795C285.12 553.546 285.352 553.218 285.503 552.812C285.654 552.406 285.729 551.965 285.729 551.491C285.729 551.018 285.654 550.576 285.503 550.167C285.352 549.757 285.12 549.426 284.806 549.174C284.492 548.922 284.092 548.795 283.605 548.795C283.119 548.795 282.719 548.922 282.405 549.174C282.091 549.426 281.859 549.757 281.708 550.167C281.557 550.576 281.482 551.018 281.482 551.491C281.482 551.965 281.557 552.406 281.708 552.812C281.859 553.218 282.091 553.546 282.405 553.795C282.719 554.044 283.119 554.169 283.605 554.169ZM292.95 552.101V547.909H294.04V555H292.95V553.8H292.876C292.71 554.16 292.452 554.466 292.101 554.718C291.75 554.968 291.307 555.092 290.771 555.092C290.328 555.092 289.934 554.995 289.589 554.801C289.245 554.605 288.974 554.309 288.777 553.915C288.58 553.518 288.482 553.018 288.482 552.415V547.909H289.571V552.341C289.571 552.858 289.716 553.27 290.005 553.578C290.297 553.886 290.67 554.04 291.122 554.04C291.393 554.04 291.668 553.971 291.949 553.832C292.232 553.694 292.469 553.481 292.659 553.195C292.853 552.909 292.95 552.544 292.95 552.101ZM301.778 555.166C301.329 555.166 300.921 555.082 300.555 554.912C300.189 554.74 299.898 554.492 299.682 554.169C299.467 553.843 299.359 553.449 299.359 552.987C299.359 552.581 299.439 552.252 299.599 551.999C299.759 551.744 299.973 551.544 300.241 551.399C300.509 551.254 300.804 551.147 301.127 551.076C301.453 551.002 301.781 550.944 302.111 550.901C302.541 550.845 302.891 550.804 303.158 550.776C303.429 550.745 303.626 550.694 303.749 550.624C303.876 550.553 303.939 550.43 303.939 550.254V550.217C303.939 549.762 303.814 549.408 303.565 549.156C303.319 548.903 302.945 548.777 302.443 548.777C301.923 548.777 301.515 548.891 301.22 549.119C300.924 549.346 300.716 549.589 300.596 549.848L299.562 549.479C299.747 549.048 299.993 548.712 300.301 548.472C300.612 548.229 300.95 548.06 301.316 547.964C301.686 547.866 302.049 547.817 302.406 547.817C302.634 547.817 302.895 547.844 303.191 547.9C303.489 547.952 303.777 548.061 304.054 548.228C304.334 548.394 304.566 548.645 304.751 548.98C304.936 549.316 305.028 549.765 305.028 550.328V555H303.939V554.04H303.883C303.809 554.194 303.686 554.358 303.514 554.534C303.342 554.709 303.112 554.858 302.826 554.982C302.54 555.105 302.191 555.166 301.778 555.166ZM301.944 554.188C302.375 554.188 302.738 554.103 303.034 553.934C303.332 553.764 303.557 553.546 303.708 553.278C303.862 553.01 303.939 552.729 303.939 552.433V551.436C303.892 551.491 303.791 551.542 303.634 551.588C303.48 551.632 303.302 551.67 303.098 551.704C302.898 551.735 302.703 551.762 302.512 551.787C302.324 551.808 302.172 551.827 302.055 551.842C301.772 551.879 301.507 551.939 301.261 552.022C301.018 552.102 300.821 552.224 300.67 552.387C300.522 552.547 300.449 552.766 300.449 553.043C300.449 553.421 300.589 553.707 300.869 553.901C301.152 554.092 301.51 554.188 301.944 554.188ZM309.879 557.807C309.353 557.807 308.9 557.739 308.522 557.604C308.143 557.471 307.828 557.296 307.575 557.077C307.326 556.862 307.127 556.631 306.98 556.385L307.848 555.776C307.946 555.905 308.071 556.053 308.222 556.219C308.372 556.388 308.579 556.534 308.84 556.657C309.105 556.783 309.451 556.847 309.879 556.847C310.451 556.847 310.924 556.708 311.296 556.431C311.669 556.154 311.855 555.72 311.855 555.129V553.689H311.762C311.682 553.818 311.569 553.978 311.421 554.169C311.276 554.357 311.067 554.525 310.793 554.672C310.522 554.817 310.156 554.889 309.694 554.889C309.122 554.889 308.608 554.754 308.152 554.483C307.7 554.212 307.341 553.818 307.077 553.301C306.815 552.784 306.684 552.156 306.684 551.418C306.684 550.691 306.812 550.059 307.067 549.52C307.323 548.979 307.678 548.56 308.134 548.265C308.589 547.966 309.116 547.817 309.713 547.817C310.174 547.817 310.541 547.894 310.811 548.048C311.085 548.198 311.295 548.371 311.439 548.565C311.587 548.755 311.701 548.912 311.781 549.036H311.892V547.909H312.944V555.203C312.944 555.812 312.806 556.308 312.529 556.69C312.255 557.074 311.886 557.356 311.421 557.534C310.959 557.716 310.445 557.807 309.879 557.807ZM309.842 553.911C310.279 553.911 310.648 553.81 310.95 553.61C311.252 553.41 311.481 553.123 311.638 552.747C311.795 552.372 311.873 551.922 311.873 551.399C311.873 550.888 311.796 550.437 311.642 550.047C311.489 549.656 311.261 549.349 310.959 549.128C310.658 548.906 310.285 548.795 309.842 548.795C309.38 548.795 308.996 548.912 308.688 549.146C308.383 549.38 308.154 549.694 308 550.088C307.849 550.482 307.774 550.919 307.774 551.399C307.774 551.892 307.851 552.327 308.005 552.706C308.162 553.081 308.392 553.377 308.697 553.592C309.005 553.804 309.386 553.911 309.842 553.911ZM314.939 555V547.909H315.991V548.98H316.065C316.194 548.629 316.428 548.345 316.767 548.126C317.105 547.908 317.487 547.798 317.912 547.798C317.992 547.798 318.092 547.8 318.212 547.803C318.332 547.806 318.422 547.811 318.484 547.817V548.925C318.447 548.915 318.362 548.902 318.23 548.883C318.101 548.862 317.964 548.851 317.819 548.851C317.475 548.851 317.167 548.923 316.896 549.068C316.628 549.209 316.416 549.406 316.259 549.659C316.105 549.908 316.028 550.193 316.028 550.513V555H314.939ZM322.533 555.148C321.849 555.148 321.26 554.997 320.765 554.695C320.272 554.391 319.892 553.966 319.624 553.421C319.36 552.873 319.227 552.236 319.227 551.51C319.227 550.784 319.36 550.143 319.624 549.589C319.892 549.032 320.264 548.598 320.741 548.288C321.222 547.974 321.782 547.817 322.422 547.817C322.791 547.817 323.156 547.878 323.516 548.001C323.876 548.125 324.204 548.325 324.499 548.602C324.795 548.875 325.03 549.239 325.206 549.691C325.381 550.143 325.469 550.701 325.469 551.362V551.824H320.003V550.882H324.361C324.361 550.482 324.281 550.125 324.121 549.811C323.964 549.497 323.739 549.249 323.447 549.068C323.157 548.886 322.816 548.795 322.422 548.795C321.988 548.795 321.612 548.903 321.295 549.119C320.982 549.331 320.74 549.608 320.571 549.95C320.401 550.291 320.317 550.657 320.317 551.048V551.676C320.317 552.212 320.409 552.666 320.594 553.038C320.781 553.407 321.042 553.689 321.374 553.883C321.706 554.074 322.093 554.169 322.533 554.169C322.819 554.169 323.077 554.129 323.308 554.049C323.542 553.966 323.744 553.843 323.913 553.68C324.082 553.513 324.213 553.307 324.305 553.061L325.358 553.357C325.247 553.714 325.061 554.027 324.799 554.298C324.538 554.566 324.215 554.775 323.83 554.926C323.445 555.074 323.013 555.148 322.533 555.148ZM330.099 555.148C329.416 555.148 328.826 554.997 328.331 554.695C327.839 554.391 327.458 553.966 327.191 553.421C326.926 552.873 326.794 552.236 326.794 551.51C326.794 550.784 326.926 550.143 327.191 549.589C327.458 549.032 327.831 548.598 328.308 548.288C328.788 547.974 329.348 547.817 329.988 547.817C330.358 547.817 330.722 547.878 331.082 548.001C331.442 548.125 331.77 548.325 332.066 548.602C332.361 548.875 332.597 549.239 332.772 549.691C332.947 550.143 333.035 550.701 333.035 551.362V551.824H327.569V550.882H331.927C331.927 550.482 331.847 550.125 331.687 549.811C331.53 549.497 331.306 549.249 331.013 549.068C330.724 548.886 330.382 548.795 329.988 548.795C329.554 548.795 329.179 548.903 328.862 549.119C328.548 549.331 328.306 549.608 328.137 549.95C327.968 550.291 327.883 550.657 327.883 551.048V551.676C327.883 552.212 327.975 552.666 328.16 553.038C328.348 553.407 328.608 553.689 328.94 553.883C329.273 554.074 329.659 554.169 330.099 554.169C330.385 554.169 330.644 554.129 330.875 554.049C331.109 553.966 331.31 553.843 331.479 553.68C331.649 553.513 331.779 553.307 331.872 553.061L332.924 553.357C332.814 553.714 332.627 554.027 332.366 554.298C332.104 554.566 331.781 554.775 331.396 554.926C331.012 555.074 330.579 555.148 330.099 555.148ZM341.433 547.909V548.832H337.758V547.909H341.433ZM338.829 546.21H339.918V552.969C339.918 553.277 339.963 553.507 340.052 553.661C340.145 553.812 340.261 553.914 340.403 553.966C340.548 554.015 340.7 554.04 340.86 554.04C340.98 554.04 341.079 554.034 341.156 554.021C341.232 554.006 341.294 553.994 341.34 553.984L341.562 554.963C341.488 554.991 341.385 555.018 341.252 555.046C341.12 555.077 340.952 555.092 340.749 555.092C340.442 555.092 340.14 555.026 339.844 554.894C339.552 554.761 339.309 554.56 339.115 554.289C338.924 554.018 338.829 553.677 338.829 553.264V546.21ZM345.876 555.148C345.236 555.148 344.674 554.995 344.191 554.691C343.711 554.386 343.335 553.96 343.064 553.412C342.797 552.864 342.663 552.224 342.663 551.491C342.663 550.753 342.797 550.108 343.064 549.557C343.335 549.006 343.711 548.578 344.191 548.274C344.674 547.969 345.236 547.817 345.876 547.817C346.516 547.817 347.076 547.969 347.556 548.274C348.039 548.578 348.415 549.006 348.683 549.557C348.954 550.108 349.089 550.753 349.089 551.491C349.089 552.224 348.954 552.864 348.683 553.412C348.415 553.96 348.039 554.386 347.556 554.691C347.076 554.995 346.516 555.148 345.876 555.148ZM345.876 554.169C346.362 554.169 346.762 554.044 347.076 553.795C347.39 553.546 347.622 553.218 347.773 552.812C347.924 552.406 347.999 551.965 347.999 551.491C347.999 551.018 347.924 550.576 347.773 550.167C347.622 549.757 347.39 549.426 347.076 549.174C346.762 548.922 346.362 548.795 345.876 548.795C345.39 548.795 344.99 548.922 344.676 549.174C344.362 549.426 344.129 549.757 343.979 550.167C343.828 550.576 343.752 551.018 343.752 551.491C343.752 551.965 343.828 552.406 343.979 552.812C344.129 553.218 344.362 553.546 344.676 553.795C344.99 554.044 345.39 554.169 345.876 554.169Z" fill="white" fill-opacity="0.5"/>
<path d="M357.492 547.909V548.832H353.817V547.909H357.492ZM354.888 546.21H355.978V552.969C355.978 553.277 356.023 553.507 356.112 553.661C356.204 553.812 356.321 553.914 356.463 553.966C356.607 554.015 356.76 554.04 356.92 554.04C357.04 554.04 357.138 554.034 357.215 554.021C357.292 554.006 357.354 553.994 357.4 553.984L357.621 554.963C357.547 554.991 357.444 555.018 357.312 555.046C357.18 555.077 357.012 555.092 356.809 555.092C356.501 555.092 356.199 555.026 355.904 554.894C355.612 554.761 355.369 554.56 355.175 554.289C354.984 554.018 354.888 553.677 354.888 553.264V546.21ZM360.373 550.734V555H359.283V545.545H360.373V549.017H360.465C360.631 548.651 360.881 548.36 361.213 548.145C361.548 547.926 361.995 547.817 362.552 547.817C363.035 547.817 363.458 547.914 363.821 548.108C364.184 548.298 364.466 548.592 364.666 548.989C364.869 549.383 364.971 549.885 364.971 550.494V555H363.881V550.568C363.881 550.005 363.735 549.569 363.443 549.262C363.153 548.951 362.752 548.795 362.238 548.795C361.881 548.795 361.561 548.871 361.278 549.022C360.998 549.172 360.776 549.393 360.613 549.682C360.453 549.971 360.373 550.322 360.373 550.734ZM369.937 555.148C369.254 555.148 368.664 554.997 368.169 554.695C367.676 554.391 367.296 553.966 367.029 553.421C366.764 552.873 366.632 552.236 366.632 551.51C366.632 550.784 366.764 550.143 367.029 549.589C367.296 549.032 367.669 548.598 368.146 548.288C368.626 547.974 369.186 547.817 369.826 547.817C370.195 547.817 370.56 547.878 370.92 548.001C371.28 548.125 371.608 548.325 371.904 548.602C372.199 548.875 372.434 549.239 372.61 549.691C372.785 550.143 372.873 550.701 372.873 551.362V551.824H367.407V550.882H371.765C371.765 550.482 371.685 550.125 371.525 549.811C371.368 549.497 371.143 549.249 370.851 549.068C370.562 548.886 370.22 548.795 369.826 548.795C369.392 548.795 369.017 548.903 368.7 549.119C368.386 549.331 368.144 549.608 367.975 549.95C367.806 550.291 367.721 550.657 367.721 551.048V551.676C367.721 552.212 367.813 552.666 367.998 553.038C368.186 553.407 368.446 553.689 368.778 553.883C369.111 554.074 369.497 554.169 369.937 554.169C370.223 554.169 370.482 554.129 370.713 554.049C370.946 553.966 371.148 553.843 371.317 553.68C371.487 553.513 371.617 553.307 371.71 553.061L372.762 553.357C372.651 553.714 372.465 554.027 372.204 554.298C371.942 554.566 371.619 554.775 371.234 554.926C370.849 555.074 370.417 555.148 369.937 555.148ZM378.187 557.659V547.909H379.239V549.036H379.368C379.448 548.912 379.559 548.755 379.701 548.565C379.845 548.371 380.052 548.198 380.319 548.048C380.59 547.894 380.956 547.817 381.418 547.817C382.015 547.817 382.541 547.966 382.997 548.265C383.452 548.563 383.808 548.986 384.063 549.534C384.319 550.082 384.447 550.728 384.447 551.473C384.447 552.224 384.319 552.875 384.063 553.426C383.808 553.974 383.454 554.398 383.002 554.7C382.549 554.998 382.028 555.148 381.437 555.148C380.981 555.148 380.616 555.072 380.343 554.922C380.069 554.768 379.858 554.594 379.71 554.4C379.562 554.203 379.448 554.04 379.368 553.911H379.276V557.659H378.187ZM379.258 551.455C379.258 551.99 379.336 552.462 379.493 552.872C379.65 553.278 379.879 553.597 380.181 553.827C380.483 554.055 380.852 554.169 381.289 554.169C381.744 554.169 382.124 554.049 382.429 553.809C382.737 553.566 382.968 553.24 383.122 552.83C383.279 552.418 383.357 551.959 383.357 551.455C383.357 550.956 383.28 550.507 383.126 550.107C382.975 549.703 382.746 549.385 382.438 549.151C382.134 548.914 381.751 548.795 381.289 548.795C380.846 548.795 380.473 548.908 380.172 549.132C379.87 549.354 379.642 549.665 379.488 550.065C379.335 550.462 379.258 550.925 379.258 551.455ZM386.108 555V547.909H387.161V548.98H387.235C387.364 548.629 387.598 548.345 387.937 548.126C388.275 547.908 388.657 547.798 389.081 547.798C389.162 547.798 389.262 547.8 389.382 547.803C389.502 547.806 389.592 547.811 389.654 547.817V548.925C389.617 548.915 389.532 548.902 389.4 548.883C389.271 548.862 389.134 548.851 388.989 548.851C388.644 548.851 388.337 548.923 388.066 549.068C387.798 549.209 387.586 549.406 387.429 549.659C387.275 549.908 387.198 550.193 387.198 550.513V555H386.108ZM390.945 555V547.909H392.035V555H390.945ZM391.499 546.727C391.287 546.727 391.104 546.655 390.95 546.51C390.799 546.366 390.724 546.192 390.724 545.989C390.724 545.786 390.799 545.612 390.95 545.467C391.104 545.322 391.287 545.25 391.499 545.25C391.712 545.25 391.893 545.322 392.044 545.467C392.198 545.612 392.275 545.786 392.275 545.989C392.275 546.192 392.198 546.366 392.044 546.51C391.893 546.655 391.712 546.727 391.499 546.727ZM399.829 547.909L397.206 555H396.099L393.476 547.909H394.658L396.616 553.56H396.689L398.647 547.909H399.829ZM403.138 555.166C402.688 555.166 402.28 555.082 401.914 554.912C401.548 554.74 401.257 554.492 401.042 554.169C400.826 553.843 400.718 553.449 400.718 552.987C400.718 552.581 400.799 552.252 400.959 551.999C401.119 551.744 401.332 551.544 401.6 551.399C401.868 551.254 402.163 551.147 402.487 551.076C402.813 551.002 403.141 550.944 403.47 550.901C403.901 550.845 404.25 550.804 404.518 550.776C404.789 550.745 404.986 550.694 405.109 550.624C405.235 550.553 405.298 550.43 405.298 550.254V550.217C405.298 549.762 405.173 549.408 404.924 549.156C404.678 548.903 404.304 548.777 403.802 548.777C403.282 548.777 402.874 548.891 402.579 549.119C402.283 549.346 402.076 549.589 401.956 549.848L400.922 549.479C401.106 549.048 401.352 548.712 401.66 548.472C401.971 548.229 402.31 548.06 402.676 547.964C403.045 547.866 403.408 547.817 403.765 547.817C403.993 547.817 404.255 547.844 404.55 547.9C404.849 547.952 405.136 548.061 405.413 548.228C405.694 548.394 405.926 548.645 406.111 548.98C406.295 549.316 406.388 549.765 406.388 550.328V555H405.298V554.04H405.243C405.169 554.194 405.046 554.358 404.873 554.534C404.701 554.709 404.472 554.858 404.185 554.982C403.899 555.105 403.55 555.166 403.138 555.166ZM403.304 554.188C403.735 554.188 404.098 554.103 404.393 553.934C404.692 553.764 404.916 553.546 405.067 553.278C405.221 553.01 405.298 552.729 405.298 552.433V551.436C405.252 551.491 405.15 551.542 404.993 551.588C404.839 551.632 404.661 551.67 404.458 551.704C404.258 551.735 404.062 551.762 403.872 551.787C403.684 551.808 403.531 551.827 403.415 551.842C403.131 551.879 402.867 551.939 402.62 552.022C402.377 552.102 402.18 552.224 402.03 552.387C401.882 552.547 401.808 552.766 401.808 553.043C401.808 553.421 401.948 553.707 402.228 553.901C402.511 554.092 402.87 554.188 403.304 554.188ZM411.257 555.148C410.592 555.148 410.02 554.991 409.539 554.677C409.059 554.363 408.69 553.931 408.431 553.38C408.173 552.829 408.044 552.199 408.044 551.491C408.044 550.771 408.176 550.136 408.441 549.585C408.708 549.031 409.081 548.598 409.558 548.288C410.038 547.974 410.598 547.817 411.238 547.817C411.737 547.817 412.186 547.909 412.586 548.094C412.986 548.278 413.314 548.537 413.57 548.869C413.825 549.202 413.984 549.589 414.045 550.033H412.956C412.873 549.71 412.688 549.423 412.402 549.174C412.118 548.922 411.737 548.795 411.257 548.795C410.832 548.795 410.46 548.906 410.14 549.128C409.823 549.346 409.575 549.656 409.396 550.056C409.221 550.453 409.133 550.919 409.133 551.455C409.133 552.002 409.219 552.479 409.392 552.886C409.567 553.292 409.813 553.607 410.13 553.832C410.45 554.057 410.826 554.169 411.257 554.169C411.54 554.169 411.797 554.12 412.028 554.021C412.259 553.923 412.454 553.781 412.614 553.597C412.774 553.412 412.888 553.19 412.956 552.932H414.045C413.984 553.35 413.831 553.727 413.588 554.063C413.348 554.395 413.029 554.66 412.632 554.857C412.239 555.051 411.78 555.148 411.257 555.148ZM416.339 557.659C416.155 557.659 415.99 557.644 415.846 557.613C415.701 557.585 415.601 557.558 415.545 557.53L415.822 556.57C416.087 556.637 416.321 556.662 416.524 556.643C416.727 556.625 416.907 556.534 417.064 556.371C417.224 556.211 417.371 555.951 417.503 555.591L417.706 555.037L415.084 547.909H416.266L418.223 553.56H418.297L420.254 547.909H421.436L418.426 556.034C418.291 556.4 418.123 556.703 417.923 556.944C417.723 557.187 417.491 557.367 417.226 557.484C416.964 557.601 416.669 557.659 416.339 557.659ZM426.53 557.659V547.909H427.583V549.036H427.712C427.792 548.912 427.903 548.755 428.045 548.565C428.189 548.371 428.395 548.198 428.663 548.048C428.934 547.894 429.3 547.817 429.762 547.817C430.359 547.817 430.885 547.966 431.341 548.265C431.796 548.563 432.152 548.986 432.407 549.534C432.663 550.082 432.79 550.728 432.79 551.473C432.79 552.224 432.663 552.875 432.407 553.426C432.152 553.974 431.798 554.398 431.345 554.7C430.893 554.998 430.371 555.148 429.78 555.148C429.325 555.148 428.96 555.072 428.686 554.922C428.412 554.768 428.202 554.594 428.054 554.4C427.906 554.203 427.792 554.04 427.712 553.911H427.62V557.659H426.53ZM427.601 551.455C427.601 551.99 427.68 552.462 427.837 552.872C427.994 553.278 428.223 553.597 428.525 553.827C428.826 554.055 429.196 554.169 429.633 554.169C430.088 554.169 430.468 554.049 430.773 553.809C431.081 553.566 431.311 553.24 431.465 552.83C431.622 552.418 431.701 551.959 431.701 551.455C431.701 550.956 431.624 550.507 431.47 550.107C431.319 549.703 431.09 549.385 430.782 549.151C430.477 548.914 430.094 548.795 429.633 548.795C429.189 548.795 428.817 548.908 428.515 549.132C428.214 549.354 427.986 549.665 427.832 550.065C427.678 550.462 427.601 550.925 427.601 551.455ZM437.333 555.148C436.693 555.148 436.131 554.995 435.648 554.691C435.168 554.386 434.792 553.96 434.521 553.412C434.254 552.864 434.12 552.224 434.12 551.491C434.12 550.753 434.254 550.108 434.521 549.557C434.792 549.006 435.168 548.578 435.648 548.274C436.131 547.969 436.693 547.817 437.333 547.817C437.973 547.817 438.533 547.969 439.013 548.274C439.497 548.578 439.872 549.006 440.14 549.557C440.411 550.108 440.546 550.753 440.546 551.491C440.546 552.224 440.411 552.864 440.14 553.412C439.872 553.96 439.497 554.386 439.013 554.691C438.533 554.995 437.973 555.148 437.333 555.148ZM437.333 554.169C437.819 554.169 438.219 554.044 438.533 553.795C438.847 553.546 439.079 553.218 439.23 552.812C439.381 552.406 439.456 551.965 439.456 551.491C439.456 551.018 439.381 550.576 439.23 550.167C439.079 549.757 438.847 549.426 438.533 549.174C438.219 548.922 437.819 548.795 437.333 548.795C436.847 548.795 436.447 548.922 436.133 549.174C435.819 549.426 435.586 549.757 435.436 550.167C435.285 550.576 435.209 551.018 435.209 551.491C435.209 551.965 435.285 552.406 435.436 552.812C435.586 553.218 435.819 553.546 436.133 553.795C436.447 554.044 436.847 554.169 437.333 554.169ZM443.299 545.545V555H442.209V545.545H443.299ZM445.294 555V547.909H446.384V555H445.294ZM445.848 546.727C445.636 546.727 445.453 546.655 445.299 546.51C445.148 546.366 445.072 546.192 445.072 545.989C445.072 545.786 445.148 545.612 445.299 545.467C445.453 545.322 445.636 545.25 445.848 545.25C446.06 545.25 446.242 545.322 446.393 545.467C446.547 545.612 446.624 545.786 446.624 545.989C446.624 546.192 446.547 546.366 446.393 546.51C446.242 546.655 446.06 546.727 445.848 546.727ZM451.26 555.148C450.595 555.148 450.022 554.991 449.542 554.677C449.062 554.363 448.693 553.931 448.434 553.38C448.176 552.829 448.047 552.199 448.047 551.491C448.047 550.771 448.179 550.136 448.444 549.585C448.711 549.031 449.084 548.598 449.561 548.288C450.041 547.974 450.601 547.817 451.241 547.817C451.74 547.817 452.189 547.909 452.589 548.094C452.989 548.278 453.317 548.537 453.573 548.869C453.828 549.202 453.986 549.589 454.048 550.033H452.959C452.875 549.71 452.691 549.423 452.405 549.174C452.121 548.922 451.74 548.795 451.26 548.795C450.835 548.795 450.463 548.906 450.142 549.128C449.825 549.346 449.578 549.656 449.399 550.056C449.224 550.453 449.136 550.919 449.136 551.455C449.136 552.002 449.222 552.479 449.395 552.886C449.57 553.292 449.816 553.607 450.133 553.832C450.453 554.057 450.829 554.169 451.26 554.169C451.543 554.169 451.8 554.12 452.031 554.021C452.261 553.923 452.457 553.781 452.617 553.597C452.777 553.412 452.891 553.19 452.959 552.932H454.048C453.986 553.35 453.834 553.727 453.591 554.063C453.351 554.395 453.032 554.66 452.635 554.857C452.241 555.051 451.783 555.148 451.26 555.148ZM456.342 557.659C456.158 557.659 455.993 557.644 455.848 557.613C455.704 557.585 455.604 557.558 455.548 557.53L455.825 556.57C456.09 556.637 456.324 556.662 456.527 556.643C456.73 556.625 456.91 556.534 457.067 556.371C457.227 556.211 457.373 555.951 457.506 555.591L457.709 555.037L455.087 547.909H456.269L458.226 553.56H458.3L460.257 547.909H461.439L458.429 556.034C458.294 556.4 458.126 556.703 457.926 556.944C457.726 557.187 457.493 557.367 457.229 557.484C456.967 557.601 456.672 557.659 456.342 557.659Z" fill="white"/>
</g>
<defs>
<linearGradient id="paint0_linear_41_828" x1="671.734" y1="843.347" x2="-0.105882" y2="969.568" gradientUnits="userSpaceOnUse">
<stop stop-color="#4906A5"/>
<stop offset="1" stop-color="#09DAB6"/>
</linearGradient>
<linearGradient id="paint1_linear_41_828" x1="618.882" y1="819.061" x2="19.7232" y2="933.196" gradientUnits="userSpaceOnUse">
<stop stop-color="#29D9BB"/>
<stop offset="1" stop-color="#29D9BB" stop-opacity="0.5"/>
</linearGradient>
<linearGradient id="paint2_linear_41_828" x1="146.037" y1="1013.51" x2="789.894" y2="879.197" gradientUnits="userSpaceOnUse">
<stop stop-color="#29D9BB"/>
<stop offset="1" stop-color="#29D9BB" stop-opacity="0.5"/>
</linearGradient>
<linearGradient id="paint3_linear_41_828" x1="311.142" y1="787.78" x2="-93.81" y2="1057.71" gradientUnits="userSpaceOnUse">
<stop stop-color="#29D9BB"/>
<stop offset="1" stop-color="#29D9BB" stop-opacity="0.5"/>
</linearGradient>
<clipPath id="clip0_41_828">
<path d="M16 851C7.16343 851 0 843.837 0 835L0 16C0 7.16343 7.16344 0 16 0H636V851H16Z" fill="white"/>
</clipPath>
</defs>
</svg>
