<svg width="46" height="45" viewBox="0 0 46 45" fill="none" xmlns="http://www.w3.org/2000/svg">
<g id="Frame">
<path id="Vector" d="M16.8754 39.375H28.1254M16.8754 39.375V30M16.8754 39.375H6.75035C6.45198 39.375 6.16583 39.2565 5.95486 39.0455C5.74388 38.8345 5.62535 38.5484 5.62535 38.25V31.125C5.62535 30.8266 5.74388 30.5405 5.95486 30.3295C6.16583 30.1185 6.45198 30 6.75035 30H16.8754M28.1254 39.375V16.875M28.1254 39.375H38.2504C38.5487 39.375 38.8349 39.2565 39.0458 39.0455C39.2568 38.8345 39.3754 38.5484 39.3754 38.25V6.75C39.3754 6.45163 39.2568 6.16548 39.0458 5.9545C38.8349 5.74353 38.5487 5.625 38.2504 5.625H29.2504C28.952 5.625 28.6658 5.74353 28.4549 5.9545C28.2439 6.16548 28.1254 6.45163 28.1254 6.75V16.875M16.8754 30V18C16.8754 17.7016 16.9939 17.4155 17.2049 17.2045C17.4158 16.9935 17.702 16.875 18.0004 16.875H28.1254" stroke="url(#paint0_linear_41_686)" stroke-width="1.5" stroke-linecap="round" stroke-linejoin="round"/>
</g>
<defs>
<linearGradient id="paint0_linear_41_686" x1="22.5004" y1="5.625" x2="10.9549" y2="65.0818" gradientUnits="userSpaceOnUse">
<stop stop-color="#29D9BB"/>
<stop offset="1" stop-color="#3A0CA3"/>
</linearGradient>
</defs>
</svg>
