<svg width="45" height="45" viewBox="0 0 45 45" fill="none" xmlns="http://www.w3.org/2000/svg">
<g id="Frame">
<path id="Vector" d="M13.3334 33.75V31.9167C13.3334 29.4855 14.2991 27.1539 16.0182 25.4349C17.7373 23.7158 20.0689 22.75 22.5 22.75M22.5 22.75C24.9312 22.75 27.2628 23.7158 28.9819 25.4349C30.7009 27.1539 31.6667 29.4855 31.6667 31.9167V33.75M22.5 22.75C23.9587 22.75 25.3577 22.1705 26.3891 21.1391C27.4206 20.1076 28 18.7087 28 17.25C28 15.7913 27.4206 14.3924 26.3891 13.3609C25.3577 12.3295 23.9587 11.75 22.5 11.75C21.0413 11.75 19.6424 12.3295 18.611 13.3609C17.5795 14.3924 17 15.7913 17 17.25C17 18.7087 17.5795 20.1076 18.611 21.1391C19.6424 22.1705 21.0413 22.75 22.5 22.75ZM2.33337 33.75V31.9167C2.33337 30.458 2.91284 29.059 3.94429 28.0276C4.97574 26.9961 6.37468 26.4167 7.83337 26.4167M7.83337 26.4167C8.80583 26.4167 9.73847 26.0304 10.4261 25.3427C11.1137 24.6551 11.5 23.7225 11.5 22.75C11.5 21.7775 11.1137 20.8449 10.4261 20.1573C9.73847 19.4696 8.80583 19.0833 7.83337 19.0833C6.86091 19.0833 5.92828 19.4696 5.24065 20.1573C4.55302 20.8449 4.16671 21.7775 4.16671 22.75C4.16671 23.7225 4.55302 24.6551 5.24065 25.3427C5.92828 26.0304 6.86091 26.4167 7.83337 26.4167ZM42.6667 33.75V31.9167C42.6667 30.458 42.0872 29.059 41.0558 28.0276C40.0243 26.9961 38.6254 26.4167 37.1667 26.4167M37.1667 26.4167C38.1392 26.4167 39.0718 26.0304 39.7594 25.3427C40.4471 24.6551 40.8334 23.7225 40.8334 22.75C40.8334 21.7775 40.4471 20.8449 39.7594 20.1573C39.0718 19.4696 38.1392 19.0833 37.1667 19.0833C36.1942 19.0833 35.2616 19.4696 34.574 20.1573C33.8863 20.8449 33.5 21.7775 33.5 22.75C33.5 23.7225 33.8863 24.6551 34.574 25.3427C35.2616 26.0304 36.1942 26.4167 37.1667 26.4167Z" stroke="url(#paint0_linear_502_922)" stroke-width="1.5" stroke-linecap="round" stroke-linejoin="round"/>
</g>
<defs>
<linearGradient id="paint0_linear_502_922" x1="22.5" y1="11.75" x2="18.2874" y2="51.5223" gradientUnits="userSpaceOnUse">
<stop stop-color="#29D9BB"/>
<stop offset="1" stop-color="#3A0CA3"/>
</linearGradient>
</defs>
</svg>
