<svg width="45" height="45" viewBox="0 0 45 45" fill="none" xmlns="http://www.w3.org/2000/svg">
<g id="Frame">
<path id="Vector" d="M22.5 17.25C22.5 15.4167 23.809 13.5833 26.4288 13.5833C27.818 13.5833 29.1503 13.0315 30.1325 12.0492C31.1148 11.0669 31.6667 9.73466 31.6667 8.3455V7.16667M15.1667 17.25V16.3333C15.1667 14.8746 15.7461 13.4757 16.7776 12.4442C17.809 11.4128 19.208 10.8333 20.6667 10.8333C21.6391 10.8333 22.5718 10.447 23.2594 9.75939C23.947 9.07176 24.3333 8.13913 24.3333 7.16667V6.25M31.6667 22.0167V28.25C31.6667 31.1674 30.5077 33.9653 28.4448 36.0282C26.3819 38.0911 23.584 39.25 20.6667 39.25H17C14.0826 39.25 11.2847 38.0911 9.22183 36.0282C7.15893 33.9653 6 31.1674 6 28.25V22.0167C6 21.7249 6.11589 21.4451 6.32218 21.2388C6.52847 21.0326 6.80826 20.9167 7.1 20.9167H30.5667C30.8584 20.9167 31.1382 21.0326 31.3445 21.2388C31.5508 21.4451 31.6667 21.7249 31.6667 22.0167Z" stroke="url(#paint0_linear_500_893)" stroke-width="1.5" stroke-linecap="round" stroke-linejoin="round"/>
<path id="Vector_2" d="M29.8334 20.9167H34.4167C35.6323 20.9167 36.7981 21.3996 37.6576 22.2592C38.5172 23.1187 39 24.2845 39 25.5001C39 26.7157 38.5172 27.8814 37.6576 28.741C36.7981 29.6005 35.6323 30.0834 34.4167 30.0834H31.6667" stroke="url(#paint1_linear_500_893)" stroke-width="1.5" stroke-linecap="round" stroke-linejoin="round"/>
</g>
<defs>
<linearGradient id="paint0_linear_500_893" x1="18.8333" y1="6.25" x2="4.65543" y2="63.038" gradientUnits="userSpaceOnUse">
<stop stop-color="#29D9BB"/>
<stop offset="1" stop-color="#3A0CA3"/>
</linearGradient>
<linearGradient id="paint1_linear_500_893" x1="34.4167" y1="20.9167" x2="31.2809" y2="37.0655" gradientUnits="userSpaceOnUse">
<stop stop-color="#29D9BB"/>
<stop offset="1" stop-color="#3A0CA3"/>
</linearGradient>
</defs>
</svg>
