<svg width="146" height="18" viewBox="0 0 146 18" fill="none" xmlns="http://www.w3.org/2000/svg">
<g id="logo">
<g id="Group">
<g id="Group_2">
<g id="Group_3">
<path id="Vector" d="M121.7 5.18371C120.349 3.39648 117.441 2.38721 114.428 2.38721C111.416 2.38721 108.757 3.43853 108.757 5.20474C108.757 6.97095 111.063 7.34943 115.509 7.70687C120.183 8.08535 123.694 9.19974 123.694 12.4588C123.694 16.2015 119.788 17.6313 115.239 17.6313C111.125 17.6313 107.074 16.0333 105.412 13.6573L107.199 12.3747C108.591 14.3722 112.122 15.6338 115.384 15.6338C118.646 15.6338 121.513 14.8348 121.513 12.5009C121.513 10.5875 118.791 10.0408 114.968 9.70438C109.795 9.28385 106.513 8.27459 106.513 5.28885C106.513 2.30311 109.962 0.347656 114.449 0.347656C118.292 0.347656 121.824 1.65129 123.528 3.90111L121.7 5.18371Z" fill="#5317A6"/>
<path id="Vector_2" d="M98.7224 0.558105H88.1064V2.57663H98.0576C100.135 2.57663 101.527 3.22845 101.527 5.09979C101.527 6.97114 100.114 7.60193 98.0576 7.60193H88.1064V17.4212H90.2463V9.64148H98.7224C101.631 9.64148 103.667 7.87527 103.667 5.09979C103.667 2.32432 101.631 0.558105 98.7224 0.558105Z" fill="#5317A6"/>
<path id="Vector_3" d="M138.153 9.05275L138.569 9.03172C141.166 8.88453 143.472 7.70706 143.472 4.88953C143.472 2.072 141.477 0.558105 138.569 0.558105H127.953V2.57663H137.925C139.732 2.57663 141.332 3.08127 141.332 4.88953C141.332 6.6978 139.732 7.1814 137.925 7.1814H127.953V17.4212H130.093V9.19993H135.494L142.329 17.4212H145.051L138.153 9.05275Z" fill="#5317A6"/>
</g>
<g id="Group_4">
<path id="Vector_4" d="M19.9231 12.1645C19.9231 14.5405 21.4812 15.739 24.0781 15.739C26.8619 15.739 29.0225 14.2461 29.0641 11.5337V5.39404H31.0377V17.4421H29.0641V15.1292C27.963 16.7693 26.0309 17.6314 23.621 17.6314C20.1516 17.6314 17.9287 15.6969 17.9287 12.4799V5.39404H19.9023L19.9231 12.1645Z" fill="#5317A6"/>
<path id="Vector_5" d="M34.4656 0.368652H36.4392V17.442H34.4656V0.368652Z" fill="#5317A6"/>
<path id="Vector_6" d="M40.0125 8.92622C40.0125 6.61332 42.173 5.22559 45.9956 5.22559C48.5717 5.22559 51.1686 6.15074 52.5397 7.85388L50.9608 8.9893C49.839 7.66464 47.72 7.05488 45.6632 7.05488C43.2949 7.05488 41.9653 7.64361 41.9653 8.75801C41.9653 10.0406 44.022 10.2509 46.9513 10.4822C50.0052 10.7135 52.8514 11.4284 52.8514 14.0146C52.8514 16.4326 50.3584 17.6522 46.4735 17.6522C43.3988 17.6522 40.428 16.5588 39.0153 14.8346L40.5526 13.5941C41.6537 14.9398 44.396 15.8018 46.8474 15.8018C49.2989 15.8018 50.7946 15.2552 50.7946 14.0146C50.7946 12.6899 48.7587 12.3745 46.0372 12.1853C43.0456 11.9961 40.0125 11.3863 40.0125 8.92622Z" fill="#5317A6"/>
<path id="Vector_7" d="M66.085 14.7085C64.8593 16.6008 62.5325 17.6311 59.8525 17.6311C56.9856 17.6311 55.2197 16.0331 55.2197 14.0356C55.2197 10.335 60.3511 9.7883 65.1917 9.7883H65.8357C65.5241 7.72772 63.7374 7.11796 61.4937 7.11796C59.624 7.11796 57.7958 7.83285 56.8194 8.92622L55.5729 7.37027C56.9648 6.06664 59.5201 5.22559 61.7223 5.22559C65.5241 5.22559 67.9132 6.92872 67.9132 10.7976V13.6992C67.9132 15.2551 68.3495 15.7177 69.2428 15.7177C69.596 15.7177 70.24 15.6546 70.5516 15.5285L70.2192 17.3998C69.9491 17.4839 69.2428 17.5891 68.8273 17.5891C67.3107 17.5891 66.3551 16.9162 66.1473 15.0659C66.1058 14.9398 66.085 14.8346 66.085 14.7085ZM65.9188 11.3022C61.8885 11.3022 57.318 11.4914 57.318 13.8254C57.318 15.15 58.606 15.7808 60.1018 15.7808C63.0311 15.7808 65.7734 14.309 65.898 11.7017V11.3022H65.9188Z" fill="#5317A6"/>
<path id="Vector_8" d="M74.4989 17.4419H72.5253V5.3938H74.4989V7.74875C75.5376 6.12972 77.3658 5.22559 79.5887 5.22559C79.9419 5.22559 80.5028 5.24661 80.856 5.26764L81.2092 7.51746C80.856 7.3913 80.0458 7.26514 79.4433 7.26514C76.5764 7.26514 74.4989 8.61083 74.4989 11.4494V17.4419Z" fill="#5317A6"/>
<path id="Vector_9" d="M10.616 0.74707H0V2.7656H9.95119C12.0287 2.7656 13.4206 3.41742 13.4206 5.28876C13.4206 7.1601 12.0079 7.81192 9.95119 7.81192H0V17.6312H2.13982V9.85147H10.616C13.5245 9.85147 15.5812 8.08526 15.5812 5.30979C15.5812 2.53431 13.5245 0.74707 10.616 0.74707Z" fill="#5317A6"/>
</g>
</g>
</g>
</g>
</svg>
