<svg width="302" height="58" viewBox="0 0 302 58" fill="none" xmlns="http://www.w3.org/2000/svg">
<path d="M6.16273 19.6394C6.16273 19.6394 13.089 11.5295 24.2394 19.6394C35.3898 27.7492 36.7253 15.2491 50.9506 16.0418C54.5225 16.2247 57.4731 17.7796 59.7405 20.0967C69.0273 29.4871 61.8836 45.3104 48.559 45.3104H18.7729C13.9276 45.3104 9.39292 43.0848 6.50439 39.2433C2.77724 34.3042 -0.204478 26.9566 6.16273 19.6394Z" fill="url(#paint0_linear_41_958)"/>
<path d="M10.014 45.3105C4.8892 45.3105 0.820393 40.7678 1.78324 35.8287C2.34231 32.9628 4.54754 30.0359 10.1693 28.0542C25.7612 22.5663 25.7612 13.054 37.9676 12.5052C50.174 11.9564 58.3738 23.298 55.7647 36.1031C54.5224 42.2922 49.8945 45.3105 46.2916 45.3105H10.014Z" fill="url(#paint1_linear_41_958)"/>
<path d="M265.448 25.7371C263.429 23.1456 259.081 21.6822 254.577 21.6822C250.073 21.6822 246.098 23.2066 246.098 25.7676C246.098 28.3286 249.545 28.8774 256.192 29.3957C263.18 29.9445 268.43 31.5604 268.43 36.2861C268.43 41.713 262.59 43.7861 255.788 43.7861C249.638 43.7861 243.582 41.469 241.097 38.0239L243.768 36.1641C245.849 39.0605 251.129 40.8898 256.006 40.8898C260.882 40.8898 265.168 39.7312 265.168 36.347C265.168 33.5726 261.099 32.7799 255.385 32.2921C247.651 31.6823 242.743 30.2189 242.743 25.8896C242.743 21.5603 247.899 18.7249 254.608 18.7249C260.354 18.7249 265.634 20.6151 268.181 23.8774L265.448 25.7371Z" fill="#5317A6"/>
<path d="M231.096 19.0298H215.225V21.9567H230.102C233.208 21.9567 235.289 22.9018 235.289 25.6152C235.289 28.3287 233.177 29.2433 230.102 29.2433H215.225V43.4813H218.424V32.2007H231.096C235.444 32.2007 238.488 29.6397 238.488 25.6152C238.488 21.5908 235.444 19.0298 231.096 19.0298Z" fill="#5317A6"/>
<path d="M290.047 31.347L290.668 31.3165C294.551 31.1031 297.998 29.3958 297.998 25.3104C297.998 21.2249 295.017 19.0298 290.668 19.0298H274.797V21.9567H289.705C292.408 21.9567 294.799 22.6884 294.799 25.3104C294.799 27.9323 292.408 28.6336 289.705 28.6336H274.797V43.4813H277.996V31.5604H286.071L296.29 43.4813H300.359L290.047 31.347Z" fill="#5317A6"/>
<path d="M113.287 35.8594C113.287 39.3046 115.616 41.0424 119.499 41.0424C123.661 41.0424 126.891 38.8778 126.953 34.9448V26.0422H129.904V43.512H126.953V40.1583C125.307 42.5363 122.419 43.7864 118.816 43.7864C113.629 43.7864 110.305 40.9814 110.305 36.3168V26.0422H113.256L113.287 35.8594Z" fill="#5317A6"/>
<path d="M135.029 18.7554H137.979V43.5118H135.029V18.7554Z" fill="#5317A6"/>
<path d="M143.322 31.1643C143.322 27.8106 146.552 25.7983 152.267 25.7983C156.118 25.7983 160.001 27.1398 162.051 29.6094L159.69 31.2557C158.013 29.335 154.845 28.4508 151.77 28.4508C148.229 28.4508 146.241 29.3045 146.241 30.9204C146.241 32.7801 149.316 33.085 153.696 33.4204C158.261 33.7558 162.516 34.7924 162.516 38.5424C162.516 42.0485 158.789 43.8169 152.981 43.8169C148.384 43.8169 143.943 42.2315 141.831 39.7314L144.129 37.9326C145.775 39.8839 149.875 41.1339 153.54 41.1339C157.205 41.1339 159.442 40.3412 159.442 38.5424C159.442 36.6216 156.398 36.1643 152.329 35.8899C147.856 35.6155 143.322 34.7314 143.322 31.1643Z" fill="#5317A6"/>
<path d="M182.301 39.5485C180.469 42.2925 176.99 43.7864 172.983 43.7864C168.697 43.7864 166.057 41.4693 166.057 38.5729C166.057 33.207 173.729 32.4143 180.966 32.4143H181.929C181.463 29.4264 178.792 28.5423 175.437 28.5423C172.642 28.5423 169.909 29.5789 168.449 31.1643L166.585 28.9081C168.666 27.0179 172.487 25.7983 175.779 25.7983C181.463 25.7983 185.035 28.2679 185.035 33.8777V38.0851C185.035 40.3412 185.687 41.0119 187.022 41.0119C187.55 41.0119 188.513 40.9205 188.979 40.7376L188.482 43.451C188.078 43.573 187.022 43.7254 186.401 43.7254C184.134 43.7254 182.705 42.7498 182.395 40.0668C182.332 39.8839 182.301 39.7314 182.301 39.5485ZM182.053 34.6094C176.027 34.6094 169.194 34.8838 169.194 38.268C169.194 40.1888 171.12 41.1034 173.356 41.1034C177.736 41.1034 181.835 38.9692 182.022 35.1887V34.6094H182.053Z" fill="#5317A6"/>
<path d="M194.881 43.512H191.93V26.0422H194.881V29.4569C196.434 27.1093 199.167 25.7983 202.49 25.7983C203.018 25.7983 203.857 25.8288 204.385 25.8593L204.913 29.1216C204.385 28.9386 203.173 28.7557 202.273 28.7557C197.986 28.7557 194.881 30.7069 194.881 34.8228V43.512Z" fill="#5317A6"/>
<path d="M99.3724 19.3042H83.501V22.2311H98.3785C101.484 22.2311 103.565 23.1762 103.565 25.8896C103.565 28.6031 101.453 29.5482 98.3785 29.5482H83.501V43.7862H86.7001V32.5056H99.3724C103.721 32.5056 106.796 29.9446 106.796 25.9201C106.796 21.8957 103.721 19.3042 99.3724 19.3042Z" fill="#5317A6"/>
<defs>
<linearGradient id="paint0_linear_41_958" x1="2.44114" y1="30.6466" x2="63.9379" y2="30.6466" gradientUnits="userSpaceOnUse">
<stop stop-color="#271959"/>
<stop offset="1" stop-color="#5317A6"/>
</linearGradient>
<linearGradient id="paint1_linear_41_958" x1="1.62794" y1="28.8858" x2="56.2663" y2="28.8858" gradientUnits="userSpaceOnUse">
<stop stop-color="#29D9BB"/>
<stop offset="1" stop-color="#29D9BB" stop-opacity="0.5"/>
</linearGradient>
</defs>
</svg>
