<svg width="45" height="45" viewBox="0 0 45 45" fill="none" xmlns="http://www.w3.org/2000/svg">
<g id="Frame">
<path id="Vector" d="M15 26.25H30M15 18.75H18.75M15 33.75H22.5M18.75 5.625H11.25C10.2554 5.625 9.30161 6.02009 8.59835 6.72335C7.89509 7.42661 7.5 8.38044 7.5 9.375V37.5C7.5 38.4946 7.89509 39.4484 8.59835 40.1516C9.30161 40.8549 10.2554 41.25 11.25 41.25H33.75C34.7446 41.25 35.6984 40.8549 36.4016 40.1516C37.1049 39.4484 37.5 38.4946 37.5 37.5V9.375C37.5 8.38044 37.1049 7.42661 36.4016 6.72335C35.6984 6.02009 34.7446 5.625 33.75 5.625H27.1875M18.75 5.625V1.875M18.75 5.625V9.375" stroke="url(#paint0_linear_41_653)" stroke-width="1.5" stroke-linecap="round" stroke-linejoin="round"/>
</g>
<defs>
<linearGradient id="paint0_linear_41_653" x1="22.5" y1="1.875" x2="5.27331" y2="69.4664" gradientUnits="userSpaceOnUse">
<stop stop-color="#29D9BB"/>
<stop offset="1" stop-color="#3A0CA3"/>
</linearGradient>
</defs>
</svg>
