<svg width="44" height="44" viewBox="0 0 44 44" fill="none" xmlns="http://www.w3.org/2000/svg">
<g id="Frame">
<path id="Vector" d="M33.9168 25.6875L33.9352 25.6674M13.7502 25.6875L13.7685 25.6674M7.3335 33.0025V18.3359C7.3335 17.3634 7.7198 16.4308 8.40744 15.7431C9.09507 15.0555 10.0277 14.6692 11.0002 14.6692H36.6668C37.6393 14.6692 38.5719 15.0555 39.2596 15.7431C39.9472 16.4308 40.3335 17.3634 40.3335 18.3359V33.0025C40.3335 33.975 39.9472 34.9076 39.2596 35.5952C38.5719 36.2829 37.6393 36.6692 36.6668 36.6692H11.0002C10.0277 36.6692 9.09507 36.2829 8.40744 35.5952C7.7198 34.9076 7.3335 33.975 7.3335 33.0025Z" stroke="url(#paint0_linear_158_11381)" stroke-width="1.5" stroke-linecap="round" stroke-linejoin="round"/>
<path id="Vector_2" d="M7.3335 29.3308H5.50016C4.5277 29.3308 3.59507 28.9445 2.90744 28.2569C2.2198 27.5692 1.8335 26.6366 1.8335 25.6641V10.9975C1.8335 10.025 2.2198 9.09239 2.90744 8.40475C3.59507 7.71712 4.5277 7.33081 5.50016 7.33081H31.1668C32.1393 7.33081 33.0719 7.71712 33.7596 8.40475C34.4472 9.09239 34.8335 10.025 34.8335 10.9975V14.6641M23.8335 29.3308C22.861 29.3308 21.9284 28.9445 21.2408 28.2569C20.5531 27.5692 20.1668 26.6366 20.1668 25.6641C20.1668 24.6917 20.5531 23.7591 21.2408 23.0714C21.9284 22.3838 22.861 21.9975 23.8335 21.9975C24.806 21.9975 25.7386 22.3838 26.4262 23.0714C27.1139 23.7591 27.5002 24.6917 27.5002 25.6641C27.5002 26.6366 27.1139 27.5692 26.4262 28.2569C25.7386 28.9445 24.806 29.3308 23.8335 29.3308Z" stroke="url(#paint1_linear_158_11381)" stroke-width="1.5" stroke-linecap="round" stroke-linejoin="round"/>
</g>
<defs>
<linearGradient id="paint0_linear_158_11381" x1="23.8335" y1="28.7239" x2="23.8335" y2="12.4663" gradientUnits="userSpaceOnUse">
<stop stop-color="#8424FF"/>
<stop offset="1" stop-color="#00E2BC"/>
</linearGradient>
<linearGradient id="paint1_linear_158_11381" x1="18.3335" y1="21.3855" x2="18.3335" y2="5.12787" gradientUnits="userSpaceOnUse">
<stop stop-color="#8424FF"/>
<stop offset="1" stop-color="#00E2BC"/>
</linearGradient>
</defs>
</svg>
