<svg width="46" height="45" viewBox="0 0 46 45" fill="none" xmlns="http://www.w3.org/2000/svg">
<g id="Frame">
<path id="Vector" d="M26.9164 37.5V42.1875M19.4164 37.5V42.1875M26.9164 7.5V2.8125M19.4164 7.5V2.8125M13.7914 22.5H9.10385M37.2289 22.5H32.5414M13.7914 12.1875H9.10385M37.2289 12.1875H32.5414M13.7914 32.8125H9.10385M37.2289 32.8125H32.5414M13.7914 36.375V8.625C13.7914 8.32663 13.9099 8.04048 14.1209 7.8295C14.3318 7.61853 14.618 7.5 14.9164 7.5H31.4164C31.5641 7.5 31.7104 7.5291 31.8469 7.58564C31.9834 7.64217 32.1074 7.72504 32.2118 7.8295C32.3163 7.93397 32.3992 8.05799 32.4557 8.19448C32.5123 8.33097 32.5414 8.47726 32.5414 8.625V36.375C32.5414 36.5227 32.5123 36.669 32.4557 36.8055C32.3992 36.942 32.3163 37.066 32.2118 37.1705C32.1074 37.275 31.9834 37.3578 31.8469 37.4144C31.7104 37.4709 31.5641 37.5 31.4164 37.5H14.9164C14.618 37.5 14.3318 37.3815 14.1209 37.1705C13.9099 36.9595 13.7914 36.6734 13.7914 36.375Z" stroke="url(#paint0_linear_41_624)" stroke-width="1.5" stroke-linecap="round" stroke-linejoin="round"/>
</g>
<defs>
<linearGradient id="paint0_linear_41_624" x1="23.1664" y1="2.8125" x2="4.94434" y2="69.8406" gradientUnits="userSpaceOnUse">
<stop stop-color="#29D9BB"/>
<stop offset="1" stop-color="#3A0CA3"/>
</linearGradient>
</defs>
</svg>
