<svg width="45" height="45" viewBox="0 0 45 45" fill="none" xmlns="http://www.w3.org/2000/svg">
<path d="M12 23H17.5M28.5 23V28.5M23 34H28.5M23 23.0202L23.0183 23M34 23.0202L34.0183 23M23 28.5202L23.0183 28.5M34 28.5202L34.0183 28.5M34 34.0202L34.0183 34M23 17.5202L23.0183 17.5M23 12.0202L23.0183 12M34 6.5H39.5V12M34 39.5H39.5V34M12 6.5H6.5V12M12 39.5H6.5V34M17.5 13.1V16.4C17.5 16.6917 17.3841 16.9715 17.1778 17.1778C16.9715 17.3841 16.6917 17.5 16.4 17.5H13.1C12.8083 17.5 12.5285 17.3841 12.3222 17.1778C12.1159 16.9715 12 16.6917 12 16.4V13.1C12 12.8083 12.1159 12.5285 12.3222 12.3222C12.5285 12.1159 12.8083 12 13.1 12H16.4C16.6917 12 16.9715 12.1159 17.1778 12.3222C17.3841 12.5285 17.5 12.8083 17.5 13.1ZM17.5 29.6V32.9C17.5 33.1917 17.3841 33.4715 17.1778 33.6778C16.9715 33.8841 16.6917 34 16.4 34H13.1C12.8083 34 12.5285 33.8841 12.3222 33.6778C12.1159 33.4715 12 33.1917 12 32.9V29.6C12 29.3083 12.1159 29.0285 12.3222 28.8222C12.5285 28.6159 12.8083 28.5 13.1 28.5H16.4C16.6917 28.5 16.9715 28.6159 17.1778 28.8222C17.3841 29.0285 17.5 29.3083 17.5 29.6ZM34 13.1V16.4C34 16.6917 33.8841 16.9715 33.6778 17.1778C33.4715 17.3841 33.1917 17.5 32.9 17.5H29.6C29.3083 17.5 29.0285 17.3841 28.8222 17.1778C28.6159 16.9715 28.5 16.6917 28.5 16.4V13.1C28.5 12.8083 28.6159 12.5285 28.8222 12.3222C29.0285 12.1159 29.3083 12 29.6 12H32.9C33.1917 12 33.4715 12.1159 33.6778 12.3222C33.8841 12.5285 34 12.8083 34 13.1Z" stroke="url(#paint0_linear_497_891)" stroke-width="1.5" stroke-linecap="round" stroke-linejoin="round"/>
<defs>
<linearGradient id="paint0_linear_497_891" x1="23" y1="6.5" x2="11.7111" y2="64.6356" gradientUnits="userSpaceOnUse">
<stop stop-color="#29D9BB"/>
<stop offset="1" stop-color="#3A0CA3"/>
</linearGradient>
</defs>
</svg>
