<svg width="68" height="50" viewBox="0 0 68 50" fill="none" xmlns="http://www.w3.org/2000/svg">
<path d="M67.4 0.199991C66.2 5.26666 64.9333 10.7333 63.6 16.6C62.2667 22.4667 61.0667 28.2 60 33.8C58.9333 39.4 58.0667 44.5333 57.4 49.2H38.4L37 47C38.2 42.3333 39.7333 37.3333 41.6 32C43.4667 26.5333 45.5333 21.0667 47.8 15.6C50.0667 10.1333 52.2667 4.99999 54.4 0.199991H67.4ZM30.4 0.199991C29.2 5.26666 27.9333 10.7333 26.6 16.6C25.2667 22.4667 24.0667 28.2 23 33.8C21.9333 39.4 21.0667 44.5333 20.4 49.2H1.6L0.4 47C1.6 42.3333 3.13333 37.3333 5 32C6.86667 26.5333 8.86667 21.0667 11 15.6C13.2667 10.1333 15.4667 4.99999 17.6 0.199991H30.4Z" fill="black" fill-opacity="0.2"/>
</svg>
