<svg width="75" height="85" viewBox="0 0 75 85" fill="none" xmlns="http://www.w3.org/2000/svg">
<path d="M69.4 15.2C68.2 20.2667 66.9333 25.7333 65.6 31.6C64.2667 37.4667 63.0667 43.2 62 48.8C60.9333 54.4 60.0667 59.5333 59.4 64.2H40.4L39 62C40.2 57.3333 41.7333 52.3333 43.6 47C45.4667 41.5333 47.5333 36.0667 49.8 30.6C52.0667 25.1333 54.2667 20 56.4 15.2H69.4ZM32.4 15.2C31.2 20.2667 29.9333 25.7333 28.6 31.6C27.2667 37.4667 26.0667 43.2 25 48.8C23.9333 54.4 23.0667 59.5333 22.4 64.2H3.6L2.4 62C3.6 57.3333 5.13333 52.3333 7 47C8.86667 41.5333 10.8667 36.0667 13 30.6C15.2667 25.1333 17.4667 20 19.6 15.2H32.4Z" fill="url(#paint0_linear_158_10818)"/>
<defs>
<linearGradient id="paint0_linear_158_10818" x1="36.5" y1="69" x2="36.5" y2="7.5" gradientUnits="userSpaceOnUse">
<stop stop-color="#5500C1"/>
<stop offset="1" stop-color="#00CAA7"/>
</linearGradient>
</defs>
</svg>
