<svg width="44" height="44" viewBox="0 0 44 44" fill="none" xmlns="http://www.w3.org/2000/svg">
<g id="Frame">
<path id="Vector" d="M21.0833 16.5C11.6545 16.5 6.41663 14.3147 6.41663 11.0073C6.41663 7.7 11.6545 5.5 21.0833 5.5C33.9166 5.5 35.75 11.0073 35.75 11.0073C35.75 11.0073 33.9166 16.5 21.0833 16.5ZM21.0833 16.5C33.9166 16.5 35.75 22.0073 35.75 22.0073C35.75 22.0073 33.9166 27.5 21.0833 27.5M21.0833 16.5C11.6545 16.5 6.41663 18.7 6.41663 22.0073C6.41663 25.3147 11.6545 27.5 21.0833 27.5M21.0833 27.5C33.9166 27.5 35.75 33.0073 35.75 33.0073C35.75 33.0073 33.9166 38.5 21.0833 38.5C11.6545 38.5 6.41663 36.3147 6.41663 33.0073C6.41663 29.7 11.6545 27.5 21.0833 27.5ZM37.5833 7.33333C37.5833 9.80833 35.75 11 35.75 11C35.75 11 37.5833 12.7875 37.5833 16.5C37.5833 20.2125 35.75 22 35.75 22C35.75 22 37.5833 23.7875 37.5833 27.5C37.5833 31.2125 35.75 33 35.75 33C35.75 33 37.5833 34.1917 37.5833 36.6667" stroke="url(#paint0_linear_502_907)" stroke-width="1.5" stroke-linecap="round" stroke-linejoin="round"/>
</g>
<defs>
<linearGradient id="paint0_linear_502_907" x1="22" y1="5.5" x2="10.0993" y2="63.3809" gradientUnits="userSpaceOnUse">
<stop stop-color="#29D9BB"/>
<stop offset="1" stop-color="#3A0CA3"/>
</linearGradient>
</defs>
</svg>
