<svg width="44" height="44" viewBox="0 0 44 44" fill="none" xmlns="http://www.w3.org/2000/svg">
<g id="Frame">
<path id="Vector" d="M12.8333 12.8333V6.6C12.8333 6.30826 12.9492 6.02847 13.1555 5.82218C13.3618 5.61589 13.6416 5.5 13.9333 5.5H30.0667C30.2111 5.5 30.3542 5.52845 30.4876 5.58373C30.6211 5.63901 30.7423 5.72004 30.8445 5.82218C30.9466 5.92433 31.0277 6.04559 31.0829 6.17905C31.1382 6.31251 31.1667 6.45555 31.1667 6.6V12.8333M18.3333 5.5V12.8333M22 5.5V12.8333M34.8333 36.6667H9.16667C8.19421 36.6667 7.26158 36.2804 6.57394 35.5927C5.88631 34.9051 5.5 33.9725 5.5 33V16.5C5.5 15.5275 5.88631 14.5949 6.57394 13.9073C7.26158 13.2196 8.19421 12.8333 9.16667 12.8333H34.8333C35.8058 12.8333 36.7384 13.2196 37.4261 13.9073C38.1137 14.5949 38.5 15.5275 38.5 16.5V33C38.5 33.9725 38.1137 34.9051 37.4261 35.5927C36.7384 36.2804 35.8058 36.6667 34.8333 36.6667Z" stroke="url(#paint0_linear_158_11388)" stroke-width="1.5"/>
<path id="Vector_2" d="M30.2502 25.6678C30.007 25.6678 29.7739 25.5712 29.602 25.3993C29.4301 25.2274 29.3335 24.9943 29.3335 24.7511C29.3335 24.508 29.4301 24.2749 29.602 24.103C29.7739 23.931 30.007 23.8345 30.2502 23.8345C30.4933 23.8345 30.7264 23.931 30.8983 24.103C31.0703 24.2749 31.1668 24.508 31.1668 24.7511C31.1668 24.9943 31.0703 25.2274 30.8983 25.3993C30.7264 25.5712 30.4933 25.6678 30.2502 25.6678Z" fill="url(#paint1_linear_158_11388)" stroke="url(#paint2_linear_158_11388)" stroke-width="1.5" stroke-linecap="round" stroke-linejoin="round"/>
</g>
<defs>
<linearGradient id="paint0_linear_158_11388" x1="22" y1="25.4109" x2="22" y2="2.37917" gradientUnits="userSpaceOnUse">
<stop stop-color="#8424FF"/>
<stop offset="1" stop-color="#00E2BC"/>
</linearGradient>
<linearGradient id="paint1_linear_158_11388" x1="30.2502" y1="25.0057" x2="30.2502" y2="23.6509" gradientUnits="userSpaceOnUse">
<stop stop-color="#8424FF"/>
<stop offset="1" stop-color="#00E2BC"/>
</linearGradient>
<linearGradient id="paint2_linear_158_11388" x1="30.2502" y1="25.0057" x2="30.2502" y2="23.6509" gradientUnits="userSpaceOnUse">
<stop stop-color="#8424FF"/>
<stop offset="1" stop-color="#00E2BC"/>
</linearGradient>
</defs>
</svg>
