<svg width="44" height="44" viewBox="0 0 44 44" fill="none" xmlns="http://www.w3.org/2000/svg"><g stroke-width="1.5" stroke-linecap="round" stroke-linejoin="round"><path d="M22 34.852l.018-.02" stroke="url(#paint0_linear_502_939)"/><path d="M33 33v6.233a1.102 1.102 0 01-1.1 1.1H12.1a1.1 1.1 0 01-1.1-1.1V33m22-22V4.767a1.1 1.1 0 00-1.1-1.1H12.1a1.1 1.1 0 00-1.1 1.1V11" stroke="url(#paint1_linear_502_939)"/><path d="M28.417 15.583L34.833 22l-6.416 6.417M15.583 15.583L9.167 22l6.416 6.417" stroke="url(#paint2_linear_502_939)"/></g><defs><linearGradient id="paint0_linear_502_939" x1="22.009" y1="34.831" x2="22.009" y2="34.852" gradientUnits="userSpaceOnUse"><stop stop-color="#2AD6BB"/><stop offset="1" stop-color="#3365AE"/></linearGradient><linearGradient id="paint1_linear_502_939" x1="22" y1="3.667" x2="2.363" y2="64.342" gradientUnits="userSpaceOnUse"><stop stop-color="#29D9BB"/><stop offset="1" stop-color="#3A0CA3"/></linearGradient><linearGradient id="paint2_linear_502_939" x1="22" y1="15.583" x2="19.743" y2="38.825" gradientUnits="userSpaceOnUse"><stop stop-color="#29D9BB"/><stop offset="1" stop-color="#3A0CA3"/></linearGradient></defs></svg>