<svg width="44" height="44" viewBox="0 0 44 44" fill="none" xmlns="http://www.w3.org/2000/svg"><g stroke-width="1.5" stroke-linecap="round" stroke-linejoin="round"><path d="M14.667 18.334h14.667M14.667 33h14.667m-14.667-7.333h7.334M7.334 39.234V4.767a1.1 1.1 0 011.1-1.1h21.362a1.1 1.1 0 01.777.323l5.772 5.771a1.1 1.1 0 01.322.781v28.692a1.1 1.1 0 01-1.1 1.1H8.434a1.1 1.1 0 01-1.1-1.1z" stroke="url(#paint0_linear_158_12078)"/><path d="M29.334 3.667V9.9a1.1 1.1 0 001.1 1.1h6.233" stroke="url(#paint1_linear_158_12078)"/></g><defs><linearGradient id="paint0_linear_158_12078" x1="22.001" y1="27.092" x2="22.001" y2="-.005" gradientUnits="userSpaceOnUse"><stop stop-color="#8424FF"/><stop offset="1" stop-color="#00E2BC"/></linearGradient><linearGradient id="paint1_linear_158_12078" x1="33.001" y1="8.352" x2="33.001" y2="2.933" gradientUnits="userSpaceOnUse"><stop stop-color="#8424FF"/><stop offset="1" stop-color="#00E2BC"/></linearGradient></defs></svg>