<svg width="44" height="44" viewBox="0 0 44 44" fill="none" xmlns="http://www.w3.org/2000/svg"><g stroke-width="1.5" stroke-linecap="round" stroke-linejoin="round"><path d="M14.667 34.833a3.667 3.667 0 100-7.333 3.667 3.667 0 000 7.333zm18.333 0a3.667 3.667 0 100-7.333 3.667 3.667 0 000 7.333z" stroke="url(#paint0_linear_502_924)" stroke-miterlimit="1.5"/><path d="M18.425 31.167H27.5V12.1a1.1 1.1 0 00-1.1-1.1H1.833m8.525 20.167H6.6a1.1 1.1 0 01-1.1-1.1v-8.984" stroke="url(#paint1_linear_502_924)"/><path d="M3.667 16.5H11" stroke="url(#paint2_linear_502_924)"/><path d="M27.5 16.5h10.285a1.1 1.1 0 011.005.653l3.281 7.384a1.1 1.1 0 01.096.446v5.084a1.1 1.1 0 01-1.1 1.1h-3.484m-10.083 0h1.833" stroke="url(#paint3_linear_502_924)"/></g><defs><linearGradient id="paint0_linear_502_924" x1="23.833" y1="27.5" x2="23.833" y2="34.833" gradientUnits="userSpaceOnUse"><stop stop-color="#2AD6BB"/><stop offset="1" stop-color="#3365AE"/></linearGradient><linearGradient id="paint1_linear_502_924" x1="14.667" y1="11" x2="9.17" y2="47.028" gradientUnits="userSpaceOnUse"><stop stop-color="#29D9BB"/><stop offset="1" stop-color="#3A0CA3"/></linearGradient><linearGradient id="paint2_linear_502_924" x1="7.333" y1="16.5" x2="7.333" y2="17.5" gradientUnits="userSpaceOnUse"><stop stop-color="#2AD6BB"/><stop offset="1" stop-color="#3365AE"/></linearGradient><linearGradient id="paint3_linear_502_924" x1="34.833" y1="16.5" x2="29.816" y2="42.338" gradientUnits="userSpaceOnUse"><stop stop-color="#29D9BB"/><stop offset="1" stop-color="#3A0CA3"/></linearGradient></defs></svg>