<svg width="45" height="44" viewBox="0 0 45 44" fill="none" xmlns="http://www.w3.org/2000/svg"><g stroke-width="2"><path d="M4.333 20.166l5.146-5.787a7.333 7.333 0 015.482-2.463h.372m-11 23.834h10.083l7.334-5.5s1.485-1.003 3.666-2.75c4.584-3.667 0-9.471-4.583-6.417-3.733 2.488-7.333 4.584-7.333 4.584" stroke="url(#paint0_linear_158_9906)" stroke-linecap="round" stroke-linejoin="round"/><path d="M15.333 24.75V12.833A3.667 3.667 0 0119 9.166h18.333A3.667 3.667 0 0141 12.833v11a3.666 3.666 0 01-3.667 3.667H25.416" stroke="url(#paint1_linear_158_9906)"/><path d="M34.125 22c.917-2.75.917-4.584 0-7.334M30 16.5c.416.916.416 2.75 0 3.666" stroke="url(#paint2_linear_158_9906)" stroke-linecap="round" stroke-linejoin="round"/></g><defs><linearGradient id="paint0_linear_158_9906" x1="15.824" y1="27.142" x2="15.824" y2="9.53" gradientUnits="userSpaceOnUse"><stop stop-color="#8424FF"/><stop offset="1" stop-color="#00E2BC"/></linearGradient><linearGradient id="paint1_linear_158_9906" x1="28.166" y1="20.879" x2="28.166" y2="7.331" gradientUnits="userSpaceOnUse"><stop stop-color="#8424FF"/><stop offset="1" stop-color="#00E2BC"/></linearGradient><linearGradient id="paint2_linear_158_9906" x1="32.406" y1="19.351" x2="32.406" y2="13.932" gradientUnits="userSpaceOnUse"><stop stop-color="#8424FF"/><stop offset="1" stop-color="#00E2BC"/></linearGradient></defs></svg>