<svg width="45" height="45" viewBox="0 0 45 45" fill="none" xmlns="http://www.w3.org/2000/svg"><g stroke-width="1.5" stroke-linecap="round" stroke-linejoin="round"><path d="M36.563 41.25a2.812 2.812 0 100-5.624 2.812 2.812 0 000 5.624zm-18.75 0a2.812 2.812 0 100-5.624 2.812 2.812 0 000 5.624z" stroke="url(#paint0_linear_41_610)"/><path d="M9.375 7.5H41.25L37.5 28.125M9.375 7.5l3.75 20.625H37.5M9.375 7.5C9.062 6.25 7.5 3.75 3.75 3.75M37.5 28.125H9.806c-3.345 0-5.118 1.464-5.118 3.75s1.773 3.75 5.118 3.75h26.757" stroke="url(#paint1_linear_41_610)"/></g><defs><linearGradient id="paint0_linear_41_610" x1="27.188" y1="35.625" x2="26.728" y2="45.888" gradientUnits="userSpaceOnUse"><stop stop-color="#29D9BB"/><stop offset="1" stop-color="#3A0CA3"/></linearGradient><linearGradient id="paint1_linear_41_610" x1="22.5" y1="3.75" x2="13.137" y2="60.476" gradientUnits="userSpaceOnUse"><stop stop-color="#29D9BB"/><stop offset="1" stop-color="#3A0CA3"/></linearGradient></defs></svg>