<svg width="45" height="44" viewBox="0 0 45 44" fill="none" xmlns="http://www.w3.org/2000/svg"><g stroke-width="1.5" stroke-linecap="round" stroke-linejoin="round"><path d="M9.667 38.5h25.666A3.667 3.667 0 0039 34.833V9.167A3.667 3.667 0 0035.333 5.5H9.667A3.667 3.667 0 006 9.167v25.666A3.667 3.667 0 009.667 38.5z" stroke="url(#paint0_linear_502_943)"/><path d="M25.433 33H32.4a1.1 1.1 0 001.1-1.1V12.1a1.1 1.1 0 00-1.1-1.1h-6.967a1.1 1.1 0 00-1.1 1.1v19.8a1.1 1.1 0 001.1 1.1zM12.6 33h6.967a1.1 1.1 0 001.1-1.1V19.433a1.1 1.1 0 00-1.1-1.1H12.6a1.1 1.1 0 00-1.1 1.1V31.9a1.1 1.1 0 001.1 1.1z" stroke="url(#paint1_linear_502_943)"/></g><defs><linearGradient id="paint0_linear_502_943" x1="22.5" y1="38.5" x2="33.789" y2="-19.636" gradientUnits="userSpaceOnUse"><stop stop-color="#29D9BB"/><stop offset="1" stop-color="#3A0CA3"/></linearGradient><linearGradient id="paint1_linear_502_943" x1="22.5" y1="33" x2="30.026" y2="-5.757" gradientUnits="userSpaceOnUse"><stop stop-color="#29D9BB"/><stop offset="1" stop-color="#3A0CA3"/></linearGradient></defs></svg>