<svg width="636" height="851" viewBox="0 0 636 851" fill="none" xmlns="http://www.w3.org/2000/svg"><g clip-path="url(#clip0_41_828)"><path opacity=".7" d="M608.051 727.544s-94.299-85.373-204.369-.195c-110.068 85.182-149.977-46.201-309.324-38.197-39.835 2.002-70.203 18.25-91.463 42.496-86.576 98.744 25.54 265.08 176.51 265.226l336.7.319c54.692.053 101.793-23.445 126.821-63.5 32.411-51.874 51.71-128.963-34.875-206.149z" fill="url(#paint0_linear_41_828)" fill-opacity=".85"/><path opacity=".3" d="M556.562 993.495c58.687.227 95.929-47.888 74.859-100.623-12.255-30.675-43.381-61.838-111.618-83.047-189.739-58.98-208.873-160.396-349.768-166.923C29.14 636.375-23.632 737.32 1.807 836.458c9.877 38.499 23.997 70.506 37.577 95.25 19.635 35.794 60.782 60.027 101.929 60.184l415.249 1.603z" fill="url(#paint1_linear_41_828)"/><path opacity=".2" d="M279.592 1158.61c-61.33 10.19-119.197-26.49-117.85-77.22.783-29.5 21.126-62.66 84.211-93.224 175.428-85.003 155.635-178.923 300.534-208.73 144.899-29.808 239.763 51.455 252.06 144.412 4.776 36.1 2.56 67.111-1.932 91.542-6.499 35.34-40.05 64-83.056 71.15l-433.97 72.08.003-.01z" fill="url(#paint2_linear_41_828)"/><path opacity=".4" d="M315.18 1048.61c61.33 10.19 119.197-26.49 117.85-77.217-.783-29.507-21.126-62.662-84.211-93.228-175.428-85.003-155.635-178.923-300.534-208.73-144.9-29.808-239.763 51.455-252.06 144.412-4.777 36.1-2.56 67.111 1.932 91.545 6.499 35.339 40.05 64 83.056 71.145l433.97 72.073h-.003z" fill="url(#paint3_linear_41_828)"/><path d="M127.145 555v-9.455h3.305c.659 0 1.202.114 1.63.342.428.225.746.528.956.91.209.378.313.798.313 1.26 0 .406-.072.742-.217 1.006a1.68 1.68 0 01-.563.628 2.562 2.562 0 01-.752.342v.092c.289.018.58.12.872.305.293.184.537.449.734.794.197.344.296.766.296 1.265 0 .474-.108.9-.323 1.278-.216.379-.556.679-1.021.901-.464.221-1.069.332-1.814.332h-3.416zm1.145-1.016h2.271c.748 0 1.279-.144 1.593-.434a1.39 1.39 0 00.475-1.061c0-.32-.081-.616-.244-.887a1.778 1.778 0 00-.697-.655c-.302-.166-.659-.25-1.072-.25h-2.326v3.287zm0-4.284h2.123c.345 0 .656-.067.933-.203.28-.135.502-.326.665-.572.166-.246.249-.536.249-.868 0-.416-.145-.768-.434-1.057-.289-.293-.748-.439-1.376-.439h-2.16v3.139zm7.864 7.959c-.185 0-.349-.015-.494-.046a1.292 1.292 0 01-.3-.083l.277-.96a2.1 2.1 0 00.702.073.839.839 0 00.54-.272c.16-.16.306-.42.438-.78l.203-.554-2.622-7.128h1.182l1.957 5.651h.074l1.958-5.651h1.182l-3.01 8.125a3.107 3.107 0 01-.504.91c-.2.243-.432.423-.697.54a2.146 2.146 0 01-.886.175zm15.214-8.162l-.979.277a1.807 1.807 0 00-.273-.475 1.309 1.309 0 00-.48-.388c-.203-.102-.463-.152-.78-.152-.434 0-.795.1-1.085.3-.286.197-.429.447-.429.752 0 .271.098.485.295.642.197.157.505.288.924.392l1.052.259c.634.154 1.107.389 1.418.706.31.314.466.719.466 1.214 0 .406-.117.77-.351 1.09-.231.32-.554.572-.97.757-.415.184-.898.277-1.449.277-.723 0-1.322-.157-1.796-.471-.474-.314-.774-.773-.9-1.376l1.034-.258c.098.381.285.667.559.858.277.191.638.287 1.084.287.508 0 .911-.108 1.21-.324.302-.218.452-.48.452-.784a.825.825 0 00-.258-.619c-.172-.169-.437-.296-.794-.379l-1.182-.277c-.649-.153-1.126-.392-1.431-.715-.302-.326-.453-.734-.453-1.224 0-.4.113-.754.337-1.061.228-.308.538-.55.928-.725a3.252 3.252 0 011.339-.263c.702 0 1.253.154 1.653.461.403.308.689.714.859 1.219zm4.742 5.651c-.683 0-1.273-.151-1.768-.453a3.03 3.03 0 01-1.141-1.274c-.264-.548-.397-1.185-.397-1.911s.133-1.367.397-1.921a3.128 3.128 0 011.118-1.301c.48-.314 1.04-.471 1.68-.471.369 0 .734.061 1.094.184.36.124.688.324.983.601.296.273.531.637.707 1.089.175.452.263 1.01.263 1.671v.462h-5.466v-.942h4.358c0-.4-.08-.757-.24-1.071a1.807 1.807 0 00-.674-.743 1.884 1.884 0 00-1.025-.273c-.434 0-.809.108-1.126.324a2.118 2.118 0 00-.725.831 2.44 2.44 0 00-.254 1.098v.628c0 .536.092.99.277 1.362.188.369.448.651.78.845.332.191.719.286 1.159.286.286 0 .545-.04.775-.12.234-.083.436-.206.605-.369.169-.167.3-.373.393-.619l1.052.296a2.34 2.34 0 01-.558.941 2.726 2.726 0 01-.97.628 3.59 3.59 0 01-1.297.222zm5.683-4.414V555h-1.09v-7.091h1.053v1.108h.092a2.03 2.03 0 01.757-.868c.339-.221.776-.332 1.311-.332.48 0 .9.098 1.261.295.36.194.64.49.84.887.2.394.3.892.3 1.495V555h-1.09v-4.432c0-.557-.144-.991-.434-1.302-.289-.314-.686-.471-1.191-.471a1.9 1.9 0 00-.932.227c-.271.15-.485.371-.642.66-.157.289-.235.64-.235 1.052zm9.192 4.414c-.591 0-1.112-.15-1.565-.448-.452-.302-.806-.726-1.062-1.274-.255-.551-.383-1.202-.383-1.953 0-.745.128-1.391.383-1.939.256-.548.611-.971 1.067-1.269.455-.299.982-.448 1.579-.448.461 0 .826.077 1.094.231.271.15.477.323.618.517.145.19.257.347.337.471h.093v-3.491h1.089V555h-1.052v-1.089h-.13c-.08.129-.193.292-.341.489a2.033 2.033 0 01-.633.522c-.274.15-.638.226-1.094.226zm.148-.979c.437 0 .806-.114 1.108-.342.302-.23.531-.549.688-.955.157-.41.235-.882.235-1.417 0-.53-.077-.993-.231-1.39-.153-.4-.381-.711-.683-.933-.301-.224-.674-.337-1.117-.337-.462 0-.846.119-1.154.356a2.124 2.124 0 00-.688.956c-.151.4-.226.849-.226 1.348 0 .504.077.963.231 1.375.157.41.387.736.692.979.308.24.689.36 1.145.36zm5.249.831v-7.091h1.089V555h-1.089zm.554-8.273a.771.771 0 01-.549-.217.695.695 0 01-.227-.521c0-.203.076-.377.227-.522a.771.771 0 01.549-.217c.212 0 .394.072.545.217a.69.69 0 01.23.522.687.687 0 01-.23.521.759.759 0 01-.545.217zm3.62 4.007V555h-1.089v-7.091h1.052v1.108h.093c.166-.36.418-.649.757-.868.338-.221.775-.332 1.311-.332.48 0 .9.098 1.26.295.36.194.64.49.84.887.2.394.301.892.301 1.495V555h-1.09v-4.432c0-.557-.145-.991-.434-1.302-.289-.314-.686-.471-1.191-.471-.348 0-.659.076-.932.227-.271.15-.485.371-.642.66-.157.289-.236.64-.236 1.052zm9.378 7.073c-.527 0-.979-.068-1.358-.203a2.884 2.884 0 01-.946-.527 2.888 2.888 0 01-.596-.692l.868-.609c.099.129.223.277.374.443.151.169.357.315.619.438.265.126.611.19 1.039.19.572 0 1.044-.139 1.417-.416.372-.277.558-.711.558-1.302v-1.44h-.092c-.08.129-.194.289-.342.48a1.912 1.912 0 01-.627.503c-.271.145-.637.217-1.099.217a2.957 2.957 0 01-1.542-.406c-.452-.271-.811-.665-1.076-1.182-.261-.517-.392-1.145-.392-1.883 0-.727.128-1.359.383-1.898.256-.541.611-.96 1.067-1.255.455-.299.981-.448 1.578-.448.462 0 .828.077 1.099.231.274.15.483.323.628.517.148.19.262.347.342.471h.11v-1.127h1.053v7.294c0 .609-.139 1.105-.416 1.487a2.36 2.36 0 01-1.108.844 4.165 4.165 0 01-1.541.273zm-.037-3.896c.437 0 .806-.101 1.108-.301.301-.2.531-.487.687-.863.157-.375.236-.825.236-1.348 0-.511-.077-.962-.231-1.352a2.031 2.031 0 00-.683-.919c-.302-.222-.674-.333-1.117-.333-.462 0-.847.117-1.154.351a2.136 2.136 0 00-.688.942 3.637 3.637 0 00-.227 1.311c0 .493.077.928.231 1.307a2 2 0 00.693.886c.308.212.689.319 1.145.319zm9.454 3.748c-.184 0-.349-.015-.494-.046a1.324 1.324 0 01-.3-.083l.277-.96c.265.067.499.092.702.073a.839.839 0 00.54-.272c.16-.16.306-.42.439-.78l.203-.554-2.622-7.128h1.181l1.958 5.651h.074l1.957-5.651h1.182l-3.01 8.125a3.106 3.106 0 01-.503.91c-.2.243-.433.423-.697.54a2.15 2.15 0 01-.887.175zm9.162-2.511c-.641 0-1.202-.153-1.685-.457a3.103 3.103 0 01-1.127-1.279c-.268-.548-.401-1.188-.401-1.921 0-.738.133-1.383.401-1.934a3.09 3.09 0 011.127-1.283c.483-.305 1.044-.457 1.685-.457.64 0 1.2.152 1.68.457.483.304.859.732 1.126 1.283.271.551.407 1.196.407 1.934 0 .733-.136 1.373-.407 1.921a3.06 3.06 0 01-1.126 1.279c-.48.304-1.04.457-1.68.457zm0-.979c.486 0 .886-.125 1.2-.374.314-.249.546-.577.697-.983.151-.406.226-.847.226-1.321 0-.473-.075-.915-.226-1.324a2.23 2.23 0 00-.697-.993c-.314-.252-.714-.379-1.2-.379-.487 0-.887.127-1.201.379a2.23 2.23 0 00-.697.993 3.796 3.796 0 00-.226 1.324c0 .474.075.915.226 1.321.151.406.383.734.697.983.314.249.714.374 1.201.374zm9.345-2.068v-4.192h1.089V555h-1.089v-1.2h-.074a2.33 2.33 0 01-.776.918c-.351.25-.794.374-1.329.374-.444 0-.838-.097-1.182-.291a2.028 2.028 0 01-.813-.886c-.197-.397-.295-.897-.295-1.5v-4.506h1.089v4.432c0 .517.145.929.434 1.237.293.308.665.462 1.117.462.271 0 .547-.069.827-.208.283-.138.52-.351.711-.637.194-.286.291-.651.291-1.094zm3.084 2.899v-7.091h1.053v1.071h.074c.129-.351.363-.635.702-.854.338-.218.72-.328 1.144-.328.081 0 .181.002.301.005s.21.008.272.014v1.108a3.083 3.083 0 00-.254-.042 2.557 2.557 0 00-.411-.032c-.345 0-.652.072-.923.217a1.59 1.59 0 00-.868 1.445V555h-1.09zm11.171.148c-.591 0-1.112-.15-1.565-.448-.452-.302-.806-.726-1.062-1.274-.255-.551-.383-1.202-.383-1.953 0-.745.128-1.391.383-1.939.256-.548.611-.971 1.067-1.269.455-.299.982-.448 1.579-.448.461 0 .826.077 1.094.231.271.15.477.323.618.517.145.19.257.347.337.471h.093v-3.491h1.089V555h-1.052v-1.089h-.13c-.08.129-.194.292-.341.489a2.033 2.033 0 01-.633.522c-.274.15-.638.226-1.094.226zm.148-.979c.437 0 .806-.114 1.108-.342.301-.23.531-.549.688-.955.157-.41.235-.882.235-1.417 0-.53-.077-.993-.231-1.39-.154-.4-.381-.711-.683-.933-.302-.224-.674-.337-1.117-.337-.462 0-.846.119-1.154.356a2.124 2.124 0 00-.688.956c-.151.4-.226.849-.226 1.348 0 .504.077.963.231 1.375.157.41.387.736.692.979.308.24.689.36 1.145.36zm8.222.979c-.683 0-1.273-.151-1.768-.453a3.03 3.03 0 01-1.141-1.274c-.264-.548-.397-1.185-.397-1.911s.133-1.367.397-1.921a3.128 3.128 0 011.118-1.301c.48-.314 1.04-.471 1.68-.471.369 0 .734.061 1.094.184.36.124.688.324.983.601.296.273.531.637.707 1.089.175.452.263 1.01.263 1.671v.462h-5.466v-.942h4.358c0-.4-.08-.757-.24-1.071a1.807 1.807 0 00-.674-.743 1.884 1.884 0 00-1.025-.273c-.434 0-.809.108-1.126.324a2.118 2.118 0 00-.725.831 2.44 2.44 0 00-.254 1.098v.628c0 .536.092.99.277 1.362.188.369.448.651.78.845.333.191.719.286 1.159.286.286 0 .545-.04.775-.12.234-.083.436-.206.605-.369.169-.167.3-.373.393-.619l1.052.296a2.34 2.34 0 01-.558.941 2.726 2.726 0 01-.97.628 3.59 3.59 0 01-1.297.222zm7.677-7.239v.923h-3.675v-.923h3.675zm-2.604-1.699h1.09v6.759c0 .308.044.538.134.692a.69.69 0 00.351.305c.144.049.297.074.457.074.12 0 .218-.006.295-.019l.185-.037.221.979a2.232 2.232 0 01-.309.083c-.132.031-.3.046-.503.046-.308 0-.61-.066-.905-.198a1.797 1.797 0 01-.729-.605c-.191-.271-.287-.612-.287-1.025v-7.054zm6.33 8.956a2.87 2.87 0 01-1.224-.254 2.095 2.095 0 01-.872-.743c-.216-.326-.323-.72-.323-1.182 0-.406.08-.735.24-.988.16-.255.374-.455.641-.6.268-.145.563-.252.887-.323.326-.074.654-.132.983-.175.431-.056.78-.097 1.048-.125.271-.031.468-.082.591-.152.126-.071.189-.194.189-.37v-.037c0-.455-.125-.809-.374-1.061-.246-.253-.62-.379-1.122-.379-.52 0-.928.114-1.223.342-.295.227-.503.47-.623.729l-1.034-.369c.184-.431.431-.767.738-1.007.311-.243.65-.412 1.016-.508a4.23 4.23 0 011.089-.147c.228 0 .49.027.785.083.299.052.586.161.863.328.281.166.513.417.698.752.184.336.277.785.277 1.348V555h-1.09v-.96h-.055a1.918 1.918 0 01-.37.494 2.147 2.147 0 01-.687.448c-.287.123-.636.184-1.048.184zm.166-.978c.431 0 .794-.085 1.089-.254a1.731 1.731 0 00.905-1.501v-.997c-.046.055-.148.106-.305.152a4.888 4.888 0 01-.535.116 25.724 25.724 0 01-1.043.138 4.156 4.156 0 00-.794.18 1.36 1.36 0 00-.591.365c-.148.16-.222.379-.222.656 0 .378.14.664.42.858.283.191.642.287 1.076.287zm5.072.812v-7.091h1.09V555h-1.09zm.554-8.273a.773.773 0 01-.549-.217.694.694 0 01-.226-.521c0-.203.075-.377.226-.522a.773.773 0 01.549-.217c.212 0 .394.072.545.217a.692.692 0 01.231.522.688.688 0 01-.231.521.759.759 0 01-.545.217zm3.621-1.182V555h-1.09v-9.455h1.09zm7.018 3.952l-.979.277a1.803 1.803 0 00-.272-.475 1.317 1.317 0 00-.48-.388c-.204-.102-.464-.152-.781-.152-.434 0-.795.1-1.084.3-.287.197-.43.447-.43.752 0 .271.099.485.296.642.197.157.504.288.923.392l1.052.259c.634.154 1.107.389 1.418.706.311.314.466.719.466 1.214 0 .406-.117.77-.351 1.09-.231.32-.554.572-.969.757-.416.184-.899.277-1.45.277-.723 0-1.322-.157-1.796-.471-.474-.314-.774-.773-.9-1.376l1.034-.258c.099.381.285.667.559.858.277.191.638.287 1.085.287.507 0 .911-.108 1.209-.324.302-.218.453-.48.453-.784a.826.826 0 00-.259-.619c-.172-.169-.437-.296-.794-.379l-1.182-.277c-.649-.153-1.126-.392-1.431-.715-.301-.326-.452-.734-.452-1.224 0-.4.112-.754.337-1.061.227-.308.537-.55.928-.725.394-.176.84-.263 1.338-.263.702 0 1.253.154 1.653.461.403.308.689.714.859 1.219zm6.127 8.162c-.185 0-.349-.015-.494-.046a1.292 1.292 0 01-.3-.083l.277-.96c.265.067.499.092.702.073a.839.839 0 00.54-.272c.16-.16.306-.42.438-.78l.203-.554-2.622-7.128h1.182l1.958 5.651h.073l1.958-5.651h1.182l-3.01 8.125a3.107 3.107 0 01-.504.91c-.2.243-.432.423-.697.54a2.146 2.146 0 01-.886.175zm9.161-2.511c-.64 0-1.201-.153-1.685-.457a3.107 3.107 0 01-1.126-1.279c-.268-.548-.402-1.188-.402-1.921 0-.738.134-1.383.402-1.934a3.094 3.094 0 011.126-1.283c.484-.305 1.045-.457 1.685-.457.641 0 1.201.152 1.681.457.483.304.858.732 1.126 1.283.271.551.406 1.196.406 1.934 0 .733-.135 1.373-.406 1.921a3.066 3.066 0 01-1.126 1.279c-.48.304-1.04.457-1.681.457zm0-.979c.487 0 .887-.125 1.201-.374.314-.249.546-.577.697-.983.151-.406.226-.847.226-1.321 0-.473-.075-.915-.226-1.324a2.23 2.23 0 00-.697-.993c-.314-.252-.714-.379-1.201-.379-.486 0-.886.127-1.2.379a2.23 2.23 0 00-.697.993 3.796 3.796 0 00-.226 1.324c0 .474.075.915.226 1.321.151.406.383.734.697.983.314.249.714.374 1.2.374zm9.345-2.068v-4.192h1.09V555h-1.09v-1.2h-.074c-.166.36-.424.666-.775.918-.351.25-.794.374-1.33.374a2.37 2.37 0 01-1.182-.291 2.032 2.032 0 01-.812-.886c-.197-.397-.295-.897-.295-1.5v-4.506h1.089v4.432c0 .517.145.929.434 1.237.292.308.665.462 1.117.462.271 0 .546-.069.827-.208.283-.138.52-.351.71-.637.194-.286.291-.651.291-1.094zm8.828 3.065a2.87 2.87 0 01-1.223-.254 2.104 2.104 0 01-.873-.743c-.215-.326-.323-.72-.323-1.182 0-.406.08-.735.24-.988.16-.255.374-.455.642-.6a3.37 3.37 0 01.886-.323c.326-.074.654-.132.984-.175.43-.056.78-.097 1.047-.125.271-.031.468-.082.591-.152.127-.071.19-.194.19-.37v-.037c0-.455-.125-.809-.374-1.061-.246-.253-.62-.379-1.122-.379-.52 0-.928.114-1.223.342-.296.227-.504.47-.624.729l-1.034-.369c.185-.431.431-.767.739-1.007a2.78 2.78 0 011.015-.508c.37-.098.733-.147 1.09-.147.228 0 .489.027.785.083.298.052.586.161.863.328.28.166.512.417.697.752.185.336.277.785.277 1.348V555h-1.089v-.96h-.056a1.935 1.935 0 01-.369.494 2.153 2.153 0 01-.688.448c-.286.123-.635.184-1.048.184zm.166-.978c.431 0 .794-.085 1.09-.254.298-.17.523-.388.674-.656a1.67 1.67 0 00.231-.845v-.997c-.047.055-.148.106-.305.152a4.91 4.91 0 01-.536.116 24.954 24.954 0 01-1.043.138 4.173 4.173 0 00-.794.18c-.243.08-.44.202-.591.365-.148.16-.221.379-.221.656 0 .378.14.664.42.858.283.191.641.287 1.075.287zm7.935 3.619c-.526 0-.979-.068-1.357-.203a2.89 2.89 0 01-.947-.527 2.86 2.86 0 01-.595-.692l.868-.609c.098.129.223.277.374.443.15.169.357.315.618.438.265.126.611.19 1.039.19.572 0 1.045-.139 1.417-.416.373-.277.559-.711.559-1.302v-1.44h-.093c-.08.129-.193.289-.341.48a1.928 1.928 0 01-.628.503c-.271.145-.637.217-1.099.217a2.96 2.96 0 01-1.542-.406c-.452-.271-.811-.665-1.075-1.182-.262-.517-.393-1.145-.393-1.883 0-.727.128-1.359.383-1.898.256-.541.611-.96 1.067-1.255.455-.299.982-.448 1.579-.448.461 0 .828.077 1.098.231.274.15.484.323.628.517.148.19.262.347.342.471h.111v-1.127h1.052v7.294c0 .609-.138 1.105-.415 1.487a2.365 2.365 0 01-1.108.844 4.175 4.175 0 01-1.542.273zm-.037-3.896c.437 0 .806-.101 1.108-.301.302-.2.531-.487.688-.863.157-.375.235-.825.235-1.348 0-.511-.077-.962-.231-1.352a2.017 2.017 0 00-.683-.919c-.301-.222-.674-.333-1.117-.333-.462 0-.846.117-1.154.351a2.136 2.136 0 00-.688.942 3.637 3.637 0 00-.226 1.311c0 .493.077.928.231 1.307.157.375.387.671.692.886.308.212.689.319 1.145.319zm5.097 1.089v-7.091h1.052v1.071h.074c.129-.351.363-.635.702-.854.338-.218.72-.328 1.145-.328.08 0 .18.002.3.005s.21.008.272.014v1.108a3.083 3.083 0 00-.254-.042 2.557 2.557 0 00-.411-.032c-.344 0-.652.072-.923.217a1.59 1.59 0 00-.868 1.445V555h-1.089zm7.594.148c-.684 0-1.273-.151-1.768-.453a3.03 3.03 0 01-1.141-1.274c-.264-.548-.397-1.185-.397-1.911s.133-1.367.397-1.921c.268-.557.64-.991 1.117-1.301.481-.314 1.041-.471 1.681-.471.369 0 .734.061 1.094.184.36.124.688.324.983.601.296.273.531.637.707 1.089.175.452.263 1.01.263 1.671v.462h-5.466v-.942h4.358c0-.4-.08-.757-.24-1.071a1.807 1.807 0 00-.674-.743 1.886 1.886 0 00-1.025-.273c-.434 0-.81.108-1.127.324a2.124 2.124 0 00-.724.831c-.17.341-.254.707-.254 1.098v.628c0 .536.092.99.277 1.362.187.369.448.651.78.845.332.191.719.286 1.159.286.286 0 .544-.04.775-.12.234-.083.436-.206.605-.369.169-.167.3-.373.392-.619l1.053.296a2.33 2.33 0 01-.559.941 2.713 2.713 0 01-.969.628 3.59 3.59 0 01-1.297.222zm7.566 0c-.683 0-1.273-.151-1.768-.453a3.028 3.028 0 01-1.14-1.274c-.265-.548-.397-1.185-.397-1.911s.132-1.367.397-1.921a3.12 3.12 0 011.117-1.301c.48-.314 1.04-.471 1.68-.471.37 0 .734.061 1.094.184.36.124.688.324.984.601.295.273.531.637.706 1.089.175.452.263 1.01.263 1.671v.462h-5.466v-.942h4.358c0-.4-.08-.757-.24-1.071a1.8 1.8 0 00-.674-.743 1.884 1.884 0 00-1.025-.273c-.434 0-.809.108-1.126.324a2.118 2.118 0 00-.725.831 2.44 2.44 0 00-.254 1.098v.628c0 .536.092.99.277 1.362.188.369.448.651.78.845.333.191.719.286 1.159.286.286 0 .545-.04.776-.12.234-.083.435-.206.604-.369.17-.167.3-.373.393-.619l1.052.296c-.11.357-.297.67-.558.941a2.726 2.726 0 01-.97.628 3.586 3.586 0 01-1.297.222zm11.334-7.239v.923h-3.675v-.923h3.675zm-2.604-1.699h1.089v6.759c0 .308.045.538.134.692a.693.693 0 00.351.305c.145.049.297.074.457.074.12 0 .219-.006.296-.019l.184-.037.222.979a2.213 2.213 0 01-.31.083c-.132.031-.3.046-.503.046-.307 0-.609-.066-.905-.198a1.804 1.804 0 01-.729-.605c-.191-.271-.286-.612-.286-1.025v-7.054zm7.047 8.938c-.64 0-1.202-.153-1.685-.457a3.11 3.11 0 01-1.127-1.279c-.267-.548-.401-1.188-.401-1.921 0-.738.134-1.383.401-1.934a3.096 3.096 0 011.127-1.283c.483-.305 1.045-.457 1.685-.457.64 0 1.2.152 1.68.457.483.304.859.732 1.127 1.283.271.551.406 1.196.406 1.934 0 .733-.135 1.373-.406 1.921a3.068 3.068 0 01-1.127 1.279c-.48.304-1.04.457-1.68.457zm0-.979c.486 0 .886-.125 1.2-.374.314-.249.546-.577.697-.983.151-.406.226-.847.226-1.321 0-.473-.075-.915-.226-1.324a2.23 2.23 0 00-.697-.993c-.314-.252-.714-.379-1.2-.379s-.886.127-1.2.379a2.222 2.222 0 00-.697.993 3.796 3.796 0 00-.227 1.324c0 .474.076.915.227 1.321.15.406.383.734.697.983.314.249.714.374 1.2.374z" fill="#fff" fill-opacity=".5"/><path d="M357.492 547.909v.923h-3.675v-.923h3.675zm-2.604-1.699h1.09v6.759c0 .308.045.538.134.692a.69.69 0 00.351.305c.144.049.297.074.457.074.12 0 .218-.006.295-.019l.185-.037.221.979a2.232 2.232 0 01-.309.083c-.132.031-.3.046-.503.046-.308 0-.61-.066-.905-.198a1.804 1.804 0 01-.729-.605c-.191-.271-.287-.612-.287-1.025v-7.054zm5.485 4.524V555h-1.09v-9.455h1.09v3.472h.092c.166-.366.416-.657.748-.872.335-.219.782-.328 1.339-.328.483 0 .906.097 1.269.291.363.19.645.484.845.881.203.394.305.896.305 1.505V555h-1.09v-4.432c0-.563-.146-.999-.438-1.306-.29-.311-.691-.467-1.205-.467-.357 0-.677.076-.96.227a1.65 1.65 0 00-.665.66c-.16.289-.24.64-.24 1.052zm9.564 4.414c-.683 0-1.273-.151-1.768-.453a3.021 3.021 0 01-1.14-1.274c-.265-.548-.397-1.185-.397-1.911s.132-1.367.397-1.921a3.12 3.12 0 011.117-1.301c.48-.314 1.04-.471 1.68-.471.369 0 .734.061 1.094.184.36.124.688.324.984.601.295.273.53.637.706 1.089.175.452.263 1.01.263 1.671v.462h-5.466v-.942h4.358c0-.4-.08-.757-.24-1.071a1.807 1.807 0 00-.674-.743 1.884 1.884 0 00-1.025-.273c-.434 0-.809.108-1.126.324a2.118 2.118 0 00-.725.831 2.44 2.44 0 00-.254 1.098v.628c0 .536.092.99.277 1.362.188.369.448.651.78.845.333.191.719.286 1.159.286.286 0 .545-.04.776-.12.233-.083.435-.206.604-.369.17-.167.3-.373.393-.619l1.052.296a2.34 2.34 0 01-.558.941 2.726 2.726 0 01-.97.628 3.59 3.59 0 01-1.297.222zm8.25 2.511v-9.75h1.052v1.127h.129c.08-.124.191-.281.333-.471.144-.194.351-.367.618-.517.271-.154.637-.231 1.099-.231.597 0 1.123.149 1.579.448.455.298.811.721 1.066 1.269.256.548.384 1.194.384 1.939 0 .751-.128 1.402-.384 1.953-.255.548-.609.972-1.061 1.274a2.782 2.782 0 01-1.565.448c-.456 0-.821-.076-1.094-.226a2.033 2.033 0 01-.633-.522 6.989 6.989 0 01-.342-.489h-.092v3.748h-1.089zm1.071-6.204c0 .535.078 1.007.235 1.417.157.406.386.725.688.955.302.228.671.342 1.108.342.455 0 .835-.12 1.14-.36.308-.243.539-.569.693-.979.157-.412.235-.871.235-1.375 0-.499-.077-.948-.231-1.348a2.08 2.08 0 00-.688-.956c-.304-.237-.687-.356-1.149-.356-.443 0-.816.113-1.117.337-.302.222-.53.533-.684.933-.153.397-.23.86-.23 1.39zm6.85 3.545v-7.091h1.053v1.071h.074c.129-.351.363-.635.702-.854.338-.218.72-.328 1.144-.328.081 0 .181.002.301.005s.21.008.272.014v1.108a3.083 3.083 0 00-.254-.042 2.557 2.557 0 00-.411-.032c-.345 0-.652.072-.923.217a1.59 1.59 0 00-.868 1.445V555h-1.09zm4.837 0v-7.091h1.09V555h-1.09zm.554-8.273a.773.773 0 01-.549-.217.694.694 0 01-.226-.521c0-.203.075-.377.226-.522a.773.773 0 01.549-.217c.213 0 .394.072.545.217a.692.692 0 01.231.522.688.688 0 01-.231.521.757.757 0 01-.545.217zm8.33 1.182L397.206 555h-1.107l-2.623-7.091h1.182l1.958 5.651h.073l1.958-5.651h1.182zm3.309 7.257a2.87 2.87 0 01-1.224-.254 2.095 2.095 0 01-.872-.743c-.216-.326-.324-.72-.324-1.182 0-.406.081-.735.241-.988.16-.255.373-.455.641-.6.268-.145.563-.252.887-.323.326-.074.654-.132.983-.175.431-.056.78-.097 1.048-.125.271-.031.468-.082.591-.152.126-.071.189-.194.189-.37v-.037c0-.455-.125-.809-.374-1.061-.246-.253-.62-.379-1.122-.379-.52 0-.928.114-1.223.342-.296.227-.503.47-.623.729l-1.034-.369c.184-.431.43-.767.738-1.007.311-.243.65-.412 1.016-.508a4.23 4.23 0 011.089-.147c.228 0 .49.027.785.083.299.052.586.161.863.328.281.166.513.417.698.752.184.336.277.785.277 1.348V555h-1.09v-.96h-.055a1.918 1.918 0 01-.37.494 2.141 2.141 0 01-.688.448c-.286.123-.635.184-1.047.184zm.166-.978c.431 0 .794-.085 1.089-.254a1.731 1.731 0 00.905-1.501v-.997c-.046.055-.148.106-.305.152a4.94 4.94 0 01-.535.116 25.724 25.724 0 01-1.043.138 4.184 4.184 0 00-.795.18c-.243.08-.44.202-.59.365-.148.16-.222.379-.222.656 0 .378.14.664.42.858.283.191.642.287 1.076.287zm7.953.96c-.665 0-1.237-.157-1.718-.471a3.072 3.072 0 01-1.108-1.297c-.258-.551-.387-1.181-.387-1.889 0-.72.132-1.355.397-1.906.267-.554.64-.987 1.117-1.297.48-.314 1.04-.471 1.68-.471.499 0 .948.092 1.348.277.4.184.728.443.984.775.255.333.414.72.475 1.164h-1.089a1.69 1.69 0 00-.554-.859c-.284-.252-.665-.379-1.145-.379a1.91 1.91 0 00-1.117.333c-.317.218-.565.528-.744.928-.175.397-.263.863-.263 1.399 0 .547.086 1.024.259 1.431.175.406.421.721.738.946.32.225.696.337 1.127.337.283 0 .54-.049.771-.148.231-.098.426-.24.586-.424.16-.185.274-.407.342-.665h1.089a2.524 2.524 0 01-.457 1.131c-.24.332-.559.597-.956.794-.393.194-.852.291-1.375.291zm5.082 2.511c-.184 0-.349-.015-.493-.046a1.32 1.32 0 01-.301-.083l.277-.96c.265.067.499.092.702.073a.839.839 0 00.54-.272c.16-.16.307-.42.439-.78l.203-.554-2.622-7.128h1.182l1.957 5.651h.074l1.957-5.651h1.182l-3.01 8.125a3.083 3.083 0 01-.503.91c-.2.243-.432.423-.697.54a2.15 2.15 0 01-.887.175zm10.191 0v-9.75h1.053v1.127h.129c.08-.124.191-.281.333-.471.144-.194.35-.367.618-.517.271-.154.637-.231 1.099-.231.597 0 1.123.149 1.579.448.455.298.811.721 1.066 1.269.256.548.383 1.194.383 1.939 0 .751-.127 1.402-.383 1.953-.255.548-.609.972-1.062 1.274-.452.298-.974.448-1.565.448-.455 0-.82-.076-1.094-.226a2.029 2.029 0 01-.632-.522 6.989 6.989 0 01-.342-.489h-.092v3.748h-1.09zm1.071-6.204c0 .535.079 1.007.236 1.417.157.406.386.725.688.955.301.228.671.342 1.108.342.455 0 .835-.12 1.14-.36.308-.243.538-.569.692-.979.157-.412.236-.871.236-1.375 0-.499-.077-.948-.231-1.348a2.08 2.08 0 00-.688-.956c-.305-.237-.688-.356-1.149-.356-.444 0-.816.113-1.118.337-.301.222-.529.533-.683.933-.154.397-.231.86-.231 1.39zm9.732 3.693c-.64 0-1.202-.153-1.685-.457a3.11 3.11 0 01-1.127-1.279c-.267-.548-.401-1.188-.401-1.921 0-.738.134-1.383.401-1.934a3.096 3.096 0 011.127-1.283c.483-.305 1.045-.457 1.685-.457.64 0 1.2.152 1.68.457.484.304.859.732 1.127 1.283.271.551.406 1.196.406 1.934 0 .733-.135 1.373-.406 1.921a3.061 3.061 0 01-1.127 1.279c-.48.304-1.04.457-1.68.457zm0-.979c.486 0 .886-.125 1.2-.374.314-.249.546-.577.697-.983.151-.406.226-.847.226-1.321 0-.473-.075-.915-.226-1.324a2.23 2.23 0 00-.697-.993c-.314-.252-.714-.379-1.2-.379s-.886.127-1.2.379a2.222 2.222 0 00-.697.993 3.796 3.796 0 00-.227 1.324c0 .474.076.915.227 1.321.15.406.383.734.697.983.314.249.714.374 1.2.374zm5.966-8.624V555h-1.09v-9.455h1.09zm1.995 9.455v-7.091h1.09V555h-1.09zm.554-8.273a.773.773 0 01-.549-.217.695.695 0 01-.227-.521c0-.203.076-.377.227-.522a.773.773 0 01.549-.217c.212 0 .394.072.545.217a.692.692 0 01.231.522.688.688 0 01-.231.521.759.759 0 01-.545.217zm5.412 8.421c-.665 0-1.238-.157-1.718-.471a3.072 3.072 0 01-1.108-1.297c-.258-.551-.387-1.181-.387-1.889 0-.72.132-1.355.397-1.906.267-.554.64-.987 1.117-1.297.48-.314 1.04-.471 1.68-.471.499 0 .948.092 1.348.277.4.184.728.443.984.775.255.333.413.72.475 1.164h-1.089a1.697 1.697 0 00-.554-.859c-.284-.252-.665-.379-1.145-.379-.425 0-.797.111-1.118.333-.317.218-.564.528-.743.928-.175.397-.263.863-.263 1.399 0 .547.086 1.024.259 1.431.175.406.421.721.738.946.32.225.696.337 1.127.337.283 0 .54-.049.771-.148.23-.098.426-.24.586-.424.16-.185.274-.407.342-.665h1.089a2.535 2.535 0 01-.457 1.131c-.24.332-.559.597-.956.794-.394.194-.852.291-1.375.291zm5.082 2.511c-.184 0-.349-.015-.494-.046a1.324 1.324 0 01-.3-.083l.277-.96c.265.067.499.092.702.073a.839.839 0 00.54-.272c.16-.16.306-.42.439-.78l.203-.554-2.622-7.128h1.182l1.957 5.651h.074l1.957-5.651h1.182l-3.01 8.125a3.083 3.083 0 01-.503.91c-.2.243-.433.423-.697.54a2.15 2.15 0 01-.887.175z" fill="#fff"/></g><defs><linearGradient id="paint0_linear_41_828" x1="671.734" y1="843.347" x2="-.106" y2="969.568" gradientUnits="userSpaceOnUse"><stop stop-color="#4906A5"/><stop offset="1" stop-color="#09DAB6"/></linearGradient><linearGradient id="paint1_linear_41_828" x1="618.882" y1="819.061" x2="19.723" y2="933.196" gradientUnits="userSpaceOnUse"><stop stop-color="#29D9BB"/><stop offset="1" stop-color="#29D9BB" stop-opacity=".5"/></linearGradient><linearGradient id="paint2_linear_41_828" x1="146.037" y1="1013.51" x2="789.894" y2="879.197" gradientUnits="userSpaceOnUse"><stop stop-color="#29D9BB"/><stop offset="1" stop-color="#29D9BB" stop-opacity=".5"/></linearGradient><linearGradient id="paint3_linear_41_828" x1="311.142" y1="787.78" x2="-93.81" y2="1057.71" gradientUnits="userSpaceOnUse"><stop stop-color="#29D9BB"/><stop offset="1" stop-color="#29D9BB" stop-opacity=".5"/></linearGradient><clipPath id="clip0_41_828"><path d="M16 851c-8.837 0-16-7.163-16-16V16C0 7.163 7.163 0 16 0h620v851H16z" fill="#fff"/></clipPath></defs></svg>