<svg width="46" height="45" viewBox="0 0 46 45" fill="none" xmlns="http://www.w3.org/2000/svg"><path d="M16.875 39.375h11.25m-11.25 0V30m0 9.375H6.75a1.125 1.125 0 01-1.125-1.125v-7.125A1.125 1.125 0 016.75 30h10.125m11.25 9.375v-22.5m0 22.5H38.25a1.125 1.125 0 001.125-1.125V6.75a1.125 1.125 0 00-1.125-1.125h-9a1.125 1.125 0 00-1.125 1.125v10.125M16.875 30V18A1.125 1.125 0 0118 16.875h10.125" stroke="url(#paint0_linear_41_686)" stroke-width="1.5" stroke-linecap="round" stroke-linejoin="round"/><defs><linearGradient id="paint0_linear_41_686" x1="22.5" y1="5.625" x2="10.955" y2="65.082" gradientUnits="userSpaceOnUse"><stop stop-color="#29D9BB"/><stop offset="1" stop-color="#3A0CA3"/></linearGradient></defs></svg>