<svg width="45" height="45" viewBox="0 0 45 45" fill="none" xmlns="http://www.w3.org/2000/svg"><path d="M13.333 33.75v-1.833A9.166 9.166 0 0122.5 22.75m0 0a9.167 9.167 0 019.167 9.167v1.833m-9.167-11a5.5 5.5 0 100-11 5.5 5.5 0 000 11zm-20.167 11v-1.833a5.5 5.5 0 015.5-5.5m0 0a3.666 3.666 0 100-7.333 3.666 3.666 0 000 7.333zm34.834 7.333v-1.833a5.5 5.5 0 00-5.5-5.5m0 0a3.666 3.666 0 100-7.333 3.666 3.666 0 000 7.333z" stroke="url(#paint0_linear_502_922)" stroke-width="1.5" stroke-linecap="round" stroke-linejoin="round"/><defs><linearGradient id="paint0_linear_502_922" x1="22.5" y1="11.75" x2="18.287" y2="51.522" gradientUnits="userSpaceOnUse"><stop stop-color="#29D9BB"/><stop offset="1" stop-color="#3A0CA3"/></linearGradient></defs></svg>