<svg width="45" height="45" viewBox="0 0 45 45" fill="none" xmlns="http://www.w3.org/2000/svg"><g stroke-width="1.5" stroke-linecap="round" stroke-linejoin="round"><path d="M22.5 17.25c0-1.833 1.309-3.667 3.929-3.667a5.238 5.238 0 005.238-5.238V7.167m-16.5 10.083v-.917a5.5 5.5 0 015.5-5.5 3.667 3.667 0 003.666-3.666V6.25m7.334 15.767v6.233a11 11 0 01-11 11H17a11 11 0 01-11-11v-6.233a1.1 1.1 0 011.1-1.1h23.467a1.1 1.1 0 011.1 1.1z" stroke="url(#paint0_linear_500_893)"/><path d="M29.833 20.917h4.584a4.583 4.583 0 110 9.166h-2.75" stroke="url(#paint1_linear_500_893)"/></g><defs><linearGradient id="paint0_linear_500_893" x1="18.833" y1="6.25" x2="4.655" y2="63.038" gradientUnits="userSpaceOnUse"><stop stop-color="#29D9BB"/><stop offset="1" stop-color="#3A0CA3"/></linearGradient><linearGradient id="paint1_linear_500_893" x1="34.417" y1="20.917" x2="31.281" y2="37.066" gradientUnits="userSpaceOnUse"><stop stop-color="#29D9BB"/><stop offset="1" stop-color="#3A0CA3"/></linearGradient></defs></svg>