<svg width="146" height="18" viewBox="0 0 146 18" fill="none" xmlns="http://www.w3.org/2000/svg"><path d="M121.7 5.184c-1.351-1.788-4.259-2.797-7.272-2.797-3.012 0-5.671 1.052-5.671 2.818s2.306 2.144 6.752 2.502c4.674.378 8.185 1.493 8.185 4.752 0 3.742-3.906 5.172-8.455 5.172-4.114 0-8.165-1.598-9.827-3.974l1.787-1.282c1.392 1.997 4.923 3.259 8.185 3.259 3.262 0 6.129-.8 6.129-3.133 0-1.913-2.722-2.46-6.545-2.797-5.173-.42-8.455-1.43-8.455-4.415 0-2.986 3.449-4.941 7.936-4.941 3.843 0 7.375 1.303 9.079 3.553L121.7 5.184zM98.722.558H88.106v2.019h9.952c2.077 0 3.469.651 3.469 2.523 0 1.871-1.413 2.502-3.47 2.502h-9.95v9.82h2.14v-7.78h8.475c2.909 0 4.945-1.767 4.945-4.542 0-2.776-2.036-4.542-4.945-4.542zm39.431 8.495l.416-.021c2.597-.147 4.903-1.325 4.903-4.142 0-2.818-1.995-4.332-4.903-4.332h-10.616v2.019h9.972c1.807 0 3.407.504 3.407 2.313 0 1.808-1.6 2.291-3.407 2.291h-9.972v10.24h2.14V9.2h5.401l6.835 8.221h2.722l-6.898-8.368zm-118.23 3.112c0 2.376 1.558 3.574 4.155 3.574 2.784 0 4.945-1.493 4.986-4.205v-6.14h1.974v12.048h-1.974V15.13c-1.101 1.64-3.033 2.502-5.443 2.502-3.47 0-5.692-1.934-5.692-5.151V5.394h1.973l.021 6.77zM34.466.369h1.973v17.073h-1.973V.369zm5.547 8.557c0-2.313 2.16-3.7 5.983-3.7 2.576 0 5.173.925 6.544 2.628l-1.58 1.135c-1.121-1.324-3.24-1.934-5.297-1.934-2.368 0-3.698.589-3.698 1.703 0 1.283 2.057 1.493 4.986 1.724 3.054.232 5.9.946 5.9 3.533 0 2.418-2.493 3.637-6.377 3.637-3.075 0-6.046-1.093-7.459-2.817l1.538-1.24c1.1 1.345 3.843 2.207 6.294 2.207 2.452 0 3.948-.547 3.948-1.787 0-1.325-2.036-1.64-4.758-1.83-2.991-.189-6.024-.799-6.024-3.259zm26.072 5.783c-1.226 1.892-3.552 2.922-6.232 2.922-2.867 0-4.633-1.598-4.633-3.595 0-3.701 5.131-4.248 9.972-4.248h.644c-.312-2.06-2.099-2.67-4.342-2.67-1.87 0-3.698.715-4.675 1.808L55.573 7.37c1.392-1.303 3.947-2.144 6.15-2.144 3.801 0 6.19 1.703 6.19 5.572v2.901c0 1.556.437 2.019 1.33 2.019.353 0 .997-.063 1.309-.19l-.333 1.872c-.27.084-.976.19-1.392.19-1.516 0-2.472-.674-2.68-2.524a1.08 1.08 0 01-.062-.357zm-.166-3.407c-4.03 0-8.601.19-8.601 2.523 0 1.325 1.288 1.956 2.784 1.956 2.93 0 5.671-1.472 5.796-4.08v-.399h.02zm8.58 6.14h-1.974V5.394H74.5v2.355c1.039-1.62 2.867-2.523 5.09-2.523.353 0 .914.02 1.267.042l.353 2.25c-.353-.127-1.163-.253-1.766-.253-2.867 0-4.944 1.346-4.944 4.184v5.993zM10.616.747H0v2.019h9.951c2.078 0 3.47.651 3.47 2.523 0 1.871-1.413 2.523-3.47 2.523H0v9.82h2.14v-7.78h8.476c2.909 0 4.965-1.767 4.965-4.542 0-2.776-2.056-4.563-4.965-4.563z" fill="#5317A6"/></svg>