<svg width="302" height="58" viewBox="0 0 302 58" fill="none" xmlns="http://www.w3.org/2000/svg"><path d="M6.163 19.64s6.926-8.11 18.076 0 12.486-4.39 26.712-3.598c3.572.183 6.522 1.738 8.79 4.055 9.286 9.39 2.143 25.213-11.182 25.213H18.773c-4.845 0-9.38-2.225-12.269-6.067-3.727-4.939-6.708-12.286-.341-19.604z" fill="url(#paint0_linear_41_958)"/><path d="M10.014 45.31c-5.125 0-9.194-4.542-8.23-9.481.558-2.866 2.764-5.793 8.385-7.775 15.592-5.488 15.592-15 27.799-15.549 12.206-.549 20.406 10.793 17.797 23.598-1.243 6.19-5.87 9.207-9.473 9.207H10.014z" fill="url(#paint1_linear_41_958)"/><path d="M265.448 25.737c-2.019-2.591-6.367-4.055-10.871-4.055-4.504 0-8.479 1.525-8.479 4.086 0 2.56 3.447 3.11 10.094 3.628 6.988.549 12.238 2.164 12.238 6.89 0 5.427-5.84 7.5-12.642 7.5-6.15 0-12.206-2.317-14.691-5.762l2.671-1.86c2.081 2.896 7.361 4.726 12.238 4.726 4.876 0 9.162-1.159 9.162-4.543 0-2.774-4.069-3.567-9.783-4.055-7.734-.61-12.642-2.073-12.642-6.402 0-4.33 5.156-7.165 11.865-7.165 5.746 0 11.026 1.89 13.573 5.152l-2.733 1.86zm-34.352-6.707h-15.871v2.927h14.877c3.106 0 5.187.945 5.187 3.658 0 2.714-2.112 3.628-5.187 3.628h-14.877v14.238h3.199v-11.28h12.672c4.348 0 7.392-2.561 7.392-6.586 0-4.024-3.044-6.585-7.392-6.585zm58.951 12.317l.621-.03c3.883-.214 7.33-1.921 7.33-6.007 0-4.085-2.981-6.28-7.33-6.28h-15.871v2.927h14.908c2.703 0 5.094.731 5.094 3.353 0 2.622-2.391 3.324-5.094 3.324h-14.908V43.48h3.199V31.56h8.075l10.219 11.92h4.069l-10.312-12.134zm-176.76 4.513c0 3.445 2.329 5.182 6.212 5.182 4.162 0 7.392-2.164 7.454-6.097v-8.903h2.951v17.47h-2.951v-3.354c-1.646 2.378-4.534 3.628-8.137 3.628-5.187 0-8.511-2.805-8.511-7.47V26.043h2.951l.031 9.817zm21.742-17.105h2.95v24.757h-2.95V18.755zm8.293 12.409c0-3.353 3.23-5.366 8.945-5.366 3.851 0 7.734 1.342 9.784 3.811l-2.361 1.647c-1.677-1.921-4.845-2.805-7.92-2.805-3.541 0-5.529.854-5.529 2.47 0 1.86 3.075 2.164 7.455 2.5 4.565.335 8.82 1.371 8.82 5.121 0 3.506-3.727 5.275-9.535 5.275-4.597 0-9.038-1.586-11.15-4.086l2.298-1.798c1.646 1.95 5.746 3.2 9.411 3.2 3.665 0 5.902-.792 5.902-2.59 0-1.921-3.044-2.379-7.113-2.653-4.473-.275-9.007-1.159-9.007-4.726zm38.979 8.384c-1.832 2.744-5.311 4.238-9.318 4.238-4.286 0-6.926-2.317-6.926-5.213 0-5.366 7.672-6.159 14.909-6.159h.963c-.466-2.988-3.137-3.872-6.492-3.872-2.795 0-5.528 1.037-6.988 2.622l-1.864-2.256c2.081-1.89 5.902-3.11 9.194-3.11 5.684 0 9.256 2.47 9.256 8.08v4.207c0 2.256.652 2.927 1.987 2.927.528 0 1.491-.092 1.957-.274l-.497 2.713c-.404.122-1.46.274-2.081.274-2.267 0-3.696-.975-4.006-3.658a1.503 1.503 0 01-.094-.519zm-.248-4.939c-6.026 0-12.859.275-12.859 3.659 0 1.92 1.926 2.835 4.162 2.835 4.38 0 8.479-2.134 8.666-5.914v-.58h.031zm12.828 8.903h-2.951v-17.47h2.951v3.415c1.553-2.348 4.286-3.659 7.609-3.659.528 0 1.367.03 1.895.061l.528 3.263c-.528-.183-1.74-.366-2.64-.366-4.287 0-7.392 1.95-7.392 6.067v8.689zM99.372 19.304H83.501v2.927h14.877c3.106 0 5.187.945 5.187 3.659 0 2.713-2.112 3.658-5.186 3.658H83.5v14.238h3.2v-11.28h12.671c4.349 0 7.424-2.561 7.424-6.586 0-4.024-3.075-6.616-7.424-6.616z" fill="#5317A6"/><defs><linearGradient id="paint0_linear_41_958" x1="2.441" y1="30.647" x2="63.938" y2="30.647" gradientUnits="userSpaceOnUse"><stop stop-color="#271959"/><stop offset="1" stop-color="#5317A6"/></linearGradient><linearGradient id="paint1_linear_41_958" x1="1.628" y1="28.886" x2="56.266" y2="28.886" gradientUnits="userSpaceOnUse"><stop stop-color="#29D9BB"/><stop offset="1" stop-color="#29D9BB" stop-opacity=".5"/></linearGradient></defs></svg>