<svg width="47" height="45" viewBox="0 0 47 45" fill="none" xmlns="http://www.w3.org/2000/svg"><g stroke-width="1.5" stroke-linecap="round" stroke-linejoin="round"><path d="M41 21.126v11.499a3.5 3.5 0 01-3.5 3.5H14.75a3.5 3.5 0 01-3.5-3.5V30M41 21.126v-2.501a3.5 3.5 0 00-3.5-3.5h-1.75m5.25 6h-5.25" stroke="url(#paint0_linear_41_351)"/><path d="M35.75 15.125V26.5a3.5 3.5 0 01-3.5 3.5H9.5A3.5 3.5 0 016 26.5v-14A3.5 3.5 0 019.5 9h22.75a3.5 3.5 0 013.5 3.5v2.625zm0 0H12.125" stroke="url(#paint1_linear_41_351)"/></g><defs><linearGradient id="paint0_linear_41_351" x1="26.125" y1="15.125" x2="20.96" y2="52.807" gradientUnits="userSpaceOnUse"><stop stop-color="#29D9BB"/><stop offset="1" stop-color="#3A0CA3"/></linearGradient><linearGradient id="paint1_linear_41_351" x1="20.875" y1="9" x2="15.71" y2="46.682" gradientUnits="userSpaceOnUse"><stop stop-color="#29D9BB"/><stop offset="1" stop-color="#3A0CA3"/></linearGradient></defs></svg>