<svg width="47" height="43" viewBox="0 0 47 43" fill="none" xmlns="http://www.w3.org/2000/svg"><g stroke-width="1.5" stroke-linecap="round" stroke-linejoin="round"><path d="M21.75 16H41M6 19.5l4.912-5.525a6.998 6.998 0 015.233-2.35h.355M6 34.375h9.625l7-5.25s1.418-.957 3.5-2.625c4.375-3.5 0-9.04-4.375-6.125-3.563 2.375-7 4.375-7 4.375" stroke="url(#paint0_linear_41_338)"/><path d="M16.5 23.875V12.5A3.5 3.5 0 0120 9h17.5a3.5 3.5 0 013.5 3.5V23a3.5 3.5 0 01-3.5 3.5H26.125" stroke="url(#paint1_linear_41_338)"/></g><defs><linearGradient id="paint0_linear_41_338" x1="23.5" y1="11.625" x2="18.333" y2="52.562" gradientUnits="userSpaceOnUse"><stop stop-color="#29D9BB"/><stop offset="1" stop-color="#3A0CA3"/></linearGradient><linearGradient id="paint1_linear_41_338" x1="28.75" y1="9" x2="24.396" y2="40.388" gradientUnits="userSpaceOnUse"><stop stop-color="#29D9BB"/><stop offset="1" stop-color="#3A0CA3"/></linearGradient></defs></svg>