<svg width="44" height="44" viewBox="0 0 44 44" fill="none" xmlns="http://www.w3.org/2000/svg"><g stroke-width="1.5" stroke-linecap="round" stroke-linejoin="round"><path d="M33.917 25.688l.018-.02m-20.185.02l.018-.02m-6.435 7.334V18.336A3.667 3.667 0 0111 14.669h25.667a3.667 3.667 0 013.666 3.667v14.666a3.667 3.667 0 01-3.666 3.667H11a3.666 3.666 0 01-3.667-3.666z" stroke="url(#paint0_linear_158_11381)"/><path d="M7.333 29.33H5.5a3.667 3.667 0 01-3.667-3.666V10.997A3.667 3.667 0 015.5 7.332h25.667a3.667 3.667 0 013.666 3.667v3.666m-11 14.667a3.667 3.667 0 110-7.333 3.667 3.667 0 010 7.333z" stroke="url(#paint1_linear_158_11381)"/></g><defs><linearGradient id="paint0_linear_158_11381" x1="23.834" y1="28.724" x2="23.834" y2="12.466" gradientUnits="userSpaceOnUse"><stop stop-color="#8424FF"/><stop offset="1" stop-color="#00E2BC"/></linearGradient><linearGradient id="paint1_linear_158_11381" x1="18.334" y1="21.386" x2="18.334" y2="5.128" gradientUnits="userSpaceOnUse"><stop stop-color="#8424FF"/><stop offset="1" stop-color="#00E2BC"/></linearGradient></defs></svg>