<svg width="46" height="45" viewBox="0 0 46 45" fill="none" xmlns="http://www.w3.org/2000/svg"><path d="M26.916 37.5v4.688m-7.5-4.688v4.688m7.5-34.688V2.812m-7.5 4.688V2.812M13.791 22.5H9.104m28.125 0H32.54M13.79 12.187H9.104m28.125 0H32.54M13.79 32.813H9.104m28.125 0H32.54m-18.75 3.562V8.625A1.125 1.125 0 0114.916 7.5h16.5a1.125 1.125 0 011.125 1.125v27.75a1.124 1.124 0 01-1.125 1.125h-16.5a1.125 1.125 0 01-1.125-1.125z" stroke="url(#paint0_linear_41_624)" stroke-width="1.5" stroke-linecap="round" stroke-linejoin="round"/><defs><linearGradient id="paint0_linear_41_624" x1="23.166" y1="2.813" x2="4.944" y2="69.841" gradientUnits="userSpaceOnUse"><stop stop-color="#29D9BB"/><stop offset="1" stop-color="#3A0CA3"/></linearGradient></defs></svg>