<svg width="45" height="45" viewBox="0 0 45 45" fill="none" xmlns="http://www.w3.org/2000/svg"><path d="M12 23h5.5m11 0v5.5M23 34h5.5M23 23.02l.018-.02M34 23.02l.018-.02M23 28.52l.018-.02M34 28.52l.018-.02M34 34.02l.018-.02M23 17.52l.018-.02M23 12.02l.018-.02M34 6.5h5.5V12M34 39.5h5.5V34M12 6.5H6.5V12M12 39.5H6.5V34m11-20.9v3.3a1.1 1.1 0 01-1.1 1.1h-3.3a1.1 1.1 0 01-1.1-1.1v-3.3a1.1 1.1 0 011.1-1.1h3.3a1.1 1.1 0 011.1 1.1zm0 16.5v3.3a1.1 1.1 0 01-1.1 1.1h-3.3a1.1 1.1 0 01-1.1-1.1v-3.3a1.1 1.1 0 011.1-1.1h3.3a1.1 1.1 0 011.1 1.1zM34 13.1v3.3a1.1 1.1 0 01-1.1 1.1h-3.3a1.1 1.1 0 01-1.1-1.1v-3.3a1.1 1.1 0 011.1-1.1h3.3a1.1 1.1 0 011.1 1.1z" stroke="url(#paint0_linear_497_891)" stroke-width="1.5" stroke-linecap="round" stroke-linejoin="round"/><defs><linearGradient id="paint0_linear_497_891" x1="23" y1="6.5" x2="11.711" y2="64.636" gradientUnits="userSpaceOnUse"><stop stop-color="#29D9BB"/><stop offset="1" stop-color="#3A0CA3"/></linearGradient></defs></svg>