<svg width="45" height="44" viewBox="0 0 45 44" fill="none" xmlns="http://www.w3.org/2000/svg"><g stroke-width="1.5" stroke-linecap="round" stroke-linejoin="round"><path d="M17.167 16.5c0-6.417 10.083-6.417 10.083 0 0 4.583-4.583 3.667-4.583 9.167m0 7.351l.018-.02" stroke="url(#paint0_linear_158_12071)"/><path d="M22.666 40.334C32.792 40.334 41 32.126 41 22c0-10.125-8.208-18.333-18.334-18.333C12.541 3.667 4.333 11.875 4.333 22c0 3.339.893 6.472 2.453 9.167l-1.536 8.25 8.25-1.536a18.251 18.251 0 009.166 2.453z" stroke="url(#paint1_linear_158_12071)"/></g><defs><linearGradient id="paint0_linear_158_12071" x1="22.209" y1="25.315" x2="22.209" y2="9.552" gradientUnits="userSpaceOnUse"><stop stop-color="#8424FF"/><stop offset="1" stop-color="#00E2BC"/></linearGradient><linearGradient id="paint1_linear_158_12071" x1="22.666" y1="27.092" x2="22.666" y2="-.005" gradientUnits="userSpaceOnUse"><stop stop-color="#8424FF"/><stop offset="1" stop-color="#00E2BC"/></linearGradient></defs></svg>