<svg width="68" height="50" viewBox="0 0 68 50" fill="none" xmlns="http://www.w3.org/2000/svg"><path d="M67.4.2a1849.37 1849.37 0 00-3.8 16.4A498.877 498.877 0 0060 33.8c-1.067 5.6-1.933 10.733-2.6 15.4h-19L37 47c1.2-4.667 2.733-9.667 4.6-15a273.921 273.921 0 016.2-16.4A667.756 667.756 0 0154.4.2h13zm-37 0a1849.37 1849.37 0 00-3.8 16.4A498.877 498.877 0 0023 33.8c-1.067 5.6-1.933 10.733-2.6 15.4H1.6L.4 47c1.2-4.667 2.733-9.667 4.6-15a405.962 405.962 0 016-16.4A667.756 667.756 0 0117.6.2h12.8z" fill="#000" fill-opacity=".2"/></svg>