<svg width="75" height="85" viewBox="0 0 75 85" fill="none" xmlns="http://www.w3.org/2000/svg"><path d="M69.4 15.2a1849.37 1849.37 0 00-3.8 16.4A498.877 498.877 0 0062 48.8c-1.067 5.6-1.933 10.733-2.6 15.4h-19L39 62c1.2-4.667 2.733-9.667 4.6-15a273.921 273.921 0 016.2-16.4 667.757 667.757 0 016.6-15.4h13zm-37 0a1849.37 1849.37 0 00-3.8 16.4A498.877 498.877 0 0025 48.8c-1.067 5.6-1.933 10.733-2.6 15.4H3.6L2.4 62c1.2-4.667 2.733-9.667 4.6-15a406.007 406.007 0 016-16.4 667.757 667.757 0 016.6-15.4h12.8z" fill="url(#paint0_linear_158_10818)"/><defs><linearGradient id="paint0_linear_158_10818" x1="36.5" y1="69" x2="36.5" y2="7.5" gradientUnits="userSpaceOnUse"><stop stop-color="#5500C1"/><stop offset="1" stop-color="#00CAA7"/></linearGradient></defs></svg>