<svg width="44" height="44" viewBox="0 0 44 44" fill="none" xmlns="http://www.w3.org/2000/svg"><g stroke-width="1.5" stroke-linecap="round" stroke-linejoin="round"><path d="M40.333 16.499v-3.667a3.666 3.666 0 00-3.666-3.666H7.332a3.667 3.667 0 00-3.667 3.666v18.334a3.667 3.667 0 003.667 3.666H22M40.333 16.5H11m29.333 0v3.667" stroke="url(#paint0_linear_158_11374)"/><path d="M34.819 25.894l4.686 1.19c.487.125.83.568.816 1.07-.316 10.557-6.404 12.177-6.404 12.177s-6.089-1.62-6.404-12.177a1.077 1.077 0 01.816-1.07l4.686-1.19a3.665 3.665 0 011.804 0z" stroke="url(#paint1_linear_158_11374)"/></g><defs><linearGradient id="paint0_linear_158_11374" x1="22" y1="25.563" x2="22" y2="6.595" gradientUnits="userSpaceOnUse"><stop stop-color="#8424FF"/><stop offset="1" stop-color="#00E2BC"/></linearGradient><linearGradient id="paint1_linear_158_11374" x1="33.917" y1="35.077" x2="33.917" y2="24.324" gradientUnits="userSpaceOnUse"><stop stop-color="#8424FF"/><stop offset="1" stop-color="#00E2BC"/></linearGradient></defs></svg>