<svg width="45" height="44" viewBox="0 0 45 44" fill="none" xmlns="http://www.w3.org/2000/svg"><g stroke-width="2" stroke-linecap="round"><path d="M24.167 38.5h-16.5A3.667 3.667 0 014 34.833V9.167A3.667 3.667 0 017.667 5.5H37a3.666 3.666 0 013.667 3.667V22" stroke="url(#paint0_linear_158_9914)"/><path d="M4 12.833h36.667M9.5 9.185l.018-.02m5.482.02l.018-.02m5.482.02l.018-.02m14.634 16.73l4.686 1.19c.488.125.83.569.816 1.071-.316 10.556-6.404 12.177-6.404 12.177s-6.088-1.62-6.404-12.177a1.078 1.078 0 01.816-1.07l4.686-1.19a3.663 3.663 0 011.804 0z" stroke="url(#paint1_linear_158_9914)" stroke-linejoin="round"/></g><defs><linearGradient id="paint0_linear_158_9914" x1="22.333" y1="26.582" x2="22.333" y2="2.196" gradientUnits="userSpaceOnUse"><stop stop-color="#8424FF"/><stop offset="1" stop-color="#00E2BC"/></linearGradient><linearGradient id="paint1_linear_158_9914" x1="22.333" y1="29.077" x2="22.333" y2="6.044" gradientUnits="userSpaceOnUse"><stop stop-color="#8424FF"/><stop offset="1" stop-color="#00E2BC"/></linearGradient></defs></svg>