<svg width="44" height="44" viewBox="0 0 44 44" fill="none" xmlns="http://www.w3.org/2000/svg"><path d="M21.083 16.5c-9.428 0-14.666-2.185-14.666-5.493C6.417 7.7 11.655 5.5 21.083 5.5c12.834 0 14.667 5.507 14.667 5.507S33.917 16.5 21.083 16.5zm0 0c12.834 0 14.667 5.507 14.667 5.507S33.917 27.5 21.083 27.5m0-11c-9.428 0-14.666 2.2-14.666 5.507 0 3.308 5.238 5.493 14.666 5.493m0 0c12.834 0 14.667 5.507 14.667 5.507S33.917 38.5 21.083 38.5c-9.428 0-14.666-2.185-14.666-5.493 0-3.307 5.238-5.507 14.666-5.507zm16.5-20.167C37.583 9.808 35.75 11 35.75 11s1.833 1.787 1.833 5.5c0 3.712-1.833 5.5-1.833 5.5s1.833 1.788 1.833 5.5c0 3.712-1.833 5.5-1.833 5.5s1.833 1.192 1.833 3.667" stroke="url(#paint0_linear_502_907)" stroke-width="1.5" stroke-linecap="round" stroke-linejoin="round"/><defs><linearGradient id="paint0_linear_502_907" x1="22" y1="5.5" x2="10.099" y2="63.381" gradientUnits="userSpaceOnUse"><stop stop-color="#29D9BB"/><stop offset="1" stop-color="#3A0CA3"/></linearGradient></defs></svg>