<?xml version="1.0" encoding="UTF-8"?><!DOCTYPE svg PUBLIC "-//W3C//DTD SVG 1.1//EN" "http://www.w3.org/Graphics/SVG/1.1/DTD/svg11.dtd"><svg xmlns="http://www.w3.org/2000/svg" xmlns:xlink="http://www.w3.org/1999/xlink"><defs>
    <clipPath id="clip0_1227_30321">
      <path d="M0 0h42v42H0z"/>
    </clipPath>
  
    <clipPath id="clip0_1227_30327">
      <path d="M0 0h42v42H0z"/>
    </clipPath>
  
    <clipPath id="clip0_1227_30319">
      <path d="M0 0h42v42H0z"/>
    </clipPath>
  
    <clipPath id="clip0_41_869">
      <rect y=".5" width="44" height="44" rx="22"/>
    </clipPath>
  
    <clipPath id="clip0_1227_30323">
      <path d="M0 0h42v42H0z"/>
    </clipPath>
  
    <clipPath id="clip0_1227_30325">
      <path d="M0 0h42v42H0z"/>
    </clipPath>
  </defs><symbol id="icon-arrow-down" viewBox="0 0 21 12">
  <path fill-rule="evenodd" clip-rule="evenodd" d="M19.865.635a1.224 1.224 0 010 1.73L10.5 11.73 1.135 2.365a1.224 1.224 0 111.73-1.73L10.5 8.27 18.135.635a1.224 1.224 0 011.73 0z"/>
</symbol><symbol id="icon-arrow-up" viewBox="0 0 24 24">
  <path d="M12 9.414L7.414 14A1 1 0 116 12.586l6-6 6 6A1 1 0 0116.586 14L12 9.414z"/>
</symbol><symbol id="icon-call" viewBox="0 0 20 20">
  <path d="M18.308 15.275c0 .3-.067.608-.209.908-.141.3-.325.584-.566.85-.409.45-.859.775-1.367.983-.5.209-1.042.317-1.625.317-.85 0-1.758-.2-2.717-.608a14.634 14.634 0 01-2.866-1.65 23.962 23.962 0 01-2.734-2.333A23.682 23.682 0 013.9 11.015c-.683-.95-1.233-1.9-1.633-2.841-.4-.95-.6-1.859-.6-2.725 0-.567.1-1.109.3-1.609.2-.508.517-.975.958-1.391.534-.525 1.117-.784 1.734-.784.233 0 .466.05.675.15.216.1.408.25.558.467l1.933 2.725c.15.208.259.4.334.583.075.175.116.35.116.509 0 .2-.058.4-.175.591a2.834 2.834 0 01-.466.592L7 7.94a.446.446 0 00-.133.334c0 .066.008.125.025.191.025.067.05.117.067.167.15.275.408.634.775 1.067.375.433.775.875 1.208 1.317.45.441.883.85 1.325 1.225.433.366.792.616 1.075.766.042.017.092.042.15.067a.575.575 0 00.208.033c.142 0 .25-.05.342-.142l.633-.624c.209-.209.409-.367.6-.467a1.11 1.11 0 01.592-.175c.158 0 .325.033.508.108.184.075.375.184.584.325l2.758 1.959c.217.15.367.324.458.533.084.208.134.416.134.65z"/>
</symbol><symbol id="icon-close" viewBox="0 0 17 17">
  <path fill-rule="evenodd" clip-rule="evenodd" d="M.146.146a.5.5 0 01.708 0L8.5 7.793 16.146.146a.5.5 0 01.708.708L9.207 8.5l7.647 7.646a.5.5 0 01-.708.708L8.5 9.207.854 16.854a.5.5 0 01-.708-.708L7.793 8.5.146.854a.5.5 0 010-.708z"/>
</symbol><symbol id="icon-facebook" viewBox="0 0 10 19">
  <path d="M9.766.157v2.946H8.014c-.64 0-1.071.134-1.295.402-.223.268-.335.67-.335 1.205v2.11h3.27l-.435 3.303H6.384v8.471H2.97v-8.47H.123V6.82H2.97V4.387c0-1.384.387-2.457 1.161-3.22C4.904.404 5.934.023 7.222.023c1.093 0 1.941.045 2.544.134z" fill-rule="evenodd"/>
</symbol><symbol id="icon-fb" viewBox="0 0 42 42">
  <g clip-path="url(#clip0_1227_30321)">
    <path d="M42 21.053C42 9.432 32.592 0 21 0S0 9.432 0 21.053c0 10.19 7.224 18.673 16.8 20.631V27.368h-4.2v-6.315h4.2v-5.264c0-4.063 3.297-7.368 7.35-7.368h5.25v6.316h-4.2c-1.155 0-2.1.947-2.1 2.105v4.21h6.3v6.316h-6.3V42C33.705 40.947 42 31.979 42 21.053z"/>
  </g>
  
</symbol><symbol id="icon-ig" viewBox="0 0 42 42">
  <g clip-path="url(#clip0_1227_30327)">
    <path d="M27.563 21a6.563 6.563 0 11-13.125 0c0-.374.039-.74.107-1.094H12.25v8.744a1.1 1.1 0 001.1 1.1h15.302a1.1 1.1 0 001.098-1.1v-8.744h-2.295c.068.355.108.72.108 1.094zM21 25.375a4.376 4.376 0 10-.002-8.753A4.376 4.376 0 0021 25.375zm5.25-8.969h2.623a.658.658 0 00.658-.656v-2.623a.658.658 0 00-.658-.658H26.25a.658.658 0 00-.658.658v2.623c.002.36.297.656.658.656zM21 0a21 21 0 100 42 21 21 0 000-42zm10.938 29.507a2.438 2.438 0 01-2.43 2.43H12.492a2.438 2.438 0 01-2.43-2.43V12.493a2.438 2.438 0 012.43-2.43h17.014a2.438 2.438 0 012.43 2.43v17.014z"/>
  </g>
  
</symbol><symbol id="icon-li" viewBox="0 0 42 42">
  <g clip-path="url(#clip0_1227_30319)">
    <path d="M21 0C9.402 0 0 9.402 0 21s9.402 21 21 21 21-9.402 21-21S32.598 0 21 0zm-5.14 29.704h-4.253V16.02h4.252v13.685zM13.706 14.34c-1.343 0-2.212-.952-2.212-2.128 0-1.201.895-2.124 2.267-2.124 1.371 0 2.211.923 2.237 2.124 0 1.176-.866 2.128-2.292 2.128zM31.39 29.704h-4.253V22.12c0-1.765-.617-2.964-2.155-2.964-1.174 0-1.872.812-2.18 1.592-.114.278-.143.672-.143 1.064v7.89h-4.254v-9.319c0-1.708-.055-3.137-.112-4.366h3.695l.194 1.9h.086c.56-.892 1.931-2.209 4.226-2.209 2.798 0 4.896 1.875 4.896 5.905v8.091z"/>
  </g>
  
</symbol><symbol id="icon-play-video" viewBox="0 0 12 23">
  <path d="M.313 0l11.314 11.314L.313 22.627V0z"/>
</symbol><symbol id="icon-plus" viewBox="0 0 44 45">
  <g clip-path="url(#clip0_41_869)">
    <path d="M32.553 21.58v2.428H11.11V21.58h21.442zm-9.518-9.99v22.773h-2.578V11.59h2.578z"/>
  </g>
  
</symbol><symbol id="icon-right-arrow" viewBox="0 0 24 24">
  <path d="M14.586 12L10 7.414A1 1 0 1111.414 6l6 6-6 6A1 1 0 0110 16.586L14.586 12z"/>
</symbol><symbol id="icon-search-2" viewBox="0 0 22 24">
  <path fill-rule="evenodd" clip-rule="evenodd" d="M19.148 10.823a9 9 0 11-18 0 9 9 0 0118 0zm1 0c0 5.523-4.477 10-10 10-5.522 0-10-4.477-10-10s4.478-10 10-10c5.523 0 10 4.477 10 10zm-3.353 8.354l4 4 .707-.707-4-4-.707.707z"/>
</symbol><symbol id="icon-search" viewBox="0 0 16 15">
  <path fill-rule="evenodd" clip-rule="evenodd" d="M11 6A5 5 0 111 6a5 5 0 0110 0zm-.757 4.243a6 6 0 11.648-.766l4.816 4.816L15 15l-4.757-4.757z"/>
</symbol><symbol id="icon-tg" viewBox="0 0 42 42">
  <g clip-path="url(#clip0_1227_30323)">
    <path d="M21 0C9.403 0 0 9.403 0 21s9.403 21 21 21 21-9.403 21-21S32.597 0 21 0zm10.314 14.387l-3.447 16.24c-.254 1.151-.94 1.431-1.897.889l-5.25-3.868-2.53 2.44a1.328 1.328 0 01-1.05.516h-.01l.373-5.345 9.73-8.788c.42-.373-.094-.585-.652-.212L14.56 23.83l-5.18-1.616c-1.12-.355-1.152-1.12.236-1.67l20.24-7.801c.942-.343 1.761.224 1.457 1.646l.002-.001z"/>
  </g>
  
</symbol><symbol id="icon-wp" viewBox="0 0 42 42">
  <g clip-path="url(#clip0_1227_30325)">
    <path d="M21 0c11.598 0 21 9.402 21 21s-9.402 21-21 21a20.904 20.904 0 01-10.563-2.846L.008 42l2.84-10.433A20.901 20.901 0 010 21C0 9.402 9.402 0 21 0zm-7.157 11.13l-.42.017a2.02 2.02 0 00-.781.21c-.228.129-.436.29-.617.479-.252.237-.395.443-.549.642a5.734 5.734 0 00-1.188 3.524c.004 1.029.273 2.03.693 2.967.859 1.894 2.272 3.9 4.137 5.758.45.448.89.897 1.365 1.315a19.84 19.84 0 008.064 4.297l1.193.182c.388.021.777-.008 1.167-.027a4.18 4.18 0 001.75-.485c.275-.142.543-.296.804-.462 0 0 .09-.059.262-.189.284-.21.458-.36.693-.605a2.41 2.41 0 00.441-.634c.164-.342.328-.995.395-1.54.05-.415.036-.642.03-.783-.009-.224-.196-.457-.4-.556l-1.222-.548s-1.827-.796-2.944-1.304a1.043 1.043 0 00-.37-.086 1.012 1.012 0 00-.793.266c-.01-.004-.151.116-1.67 1.955a.735.735 0 01-.773.273 3.007 3.007 0 01-.4-.138c-.261-.11-.351-.151-.53-.227a12.656 12.656 0 01-3.307-2.106c-.265-.231-.51-.483-.763-.727a13.225 13.225 0 01-2.142-2.663l-.123-.2a1.942 1.942 0 01-.215-.43c-.08-.308.128-.556.128-.556s.51-.559.748-.861a8.91 8.91 0 00.552-.784c.248-.398.326-.808.196-1.125a174.841 174.841 0 00-1.823-4.286c-.124-.282-.492-.483-.825-.523a9.32 9.32 0 00-.34-.034 7.112 7.112 0 00-.847.009l.422-.017.002.002z"/>
  </g>
  
</symbol></svg>