<svg width="44" height="45" viewBox="0 0 44 45" fill="none" xmlns="http://www.w3.org/2000/svg"><g stroke-width="1.5" stroke-linecap="round" stroke-linejoin="round"><path d="M31.728 10.29l1.666-3.532a.572.572 0 011.045 0l1.669 3.532 3.725.57c.478.074.669.69.324 1.042l-2.696 2.75.636 3.883c.08.499-.42.88-.847.643l-3.333-1.833-3.333 1.834c-.427.234-.928-.145-.847-.644l.636-3.883-2.695-2.75c-.349-.352-.156-.968.322-1.041l3.728-.57z" stroke="url(#paint0_linear_502_912)"/><path d="M23.8 7.832A19.64 19.64 0 0022 7.75c-9.941 0-18 7.387-18 16.5 0 3.005.877 5.825 2.408 8.25L4.9 39.925l8.1-1.383a19.198 19.198 0 009 2.208c9.941 0 18-7.387 18-16.5a15 15 0 00-.09-1.65" stroke="url(#paint1_linear_502_912)"/></g><defs><linearGradient id="paint0_linear_502_912" x1="33.916" y1="6.418" x2="29.527" y2="29.024" gradientUnits="userSpaceOnUse"><stop stop-color="#29D9BB"/><stop offset="1" stop-color="#3A0CA3"/></linearGradient><linearGradient id="paint1_linear_502_912" x1="22" y1="7.75" x2="11.591" y2="66.225" gradientUnits="userSpaceOnUse"><stop stop-color="#29D9BB"/><stop offset="1" stop-color="#3A0CA3"/></linearGradient></defs></svg>