<svg width="47" height="44" viewBox="0 0 47 44" fill="none" xmlns="http://www.w3.org/2000/svg"><g stroke-width="1.5" stroke-linecap="round" stroke-linejoin="round"><path d="M8.475 18.25V34a3.5 3.5 0 003.5 3.5h24.5a3.5 3.5 0 003.5-3.5V18.25" stroke="url(#paint0_linear_41_358)"/><path d="M29.182 37.5V27a3.5 3.5 0 00-3.5-3.5h-3.5a3.5 3.5 0 00-3.5 3.5v10.5" stroke="url(#paint1_linear_41_358)"/><path d="M41.406 17.137L38.442 6.761A1.05 1.05 0 0037.432 6H30.35l.83 9.982a1.011 1.011 0 00.487.788c.683.407 2.016 1.16 3.058 1.48 1.778.548 4.375.35 5.855.168a.998.998 0 00.826-1.281z" stroke="url(#paint2_linear_41_358)"/><path d="M27.725 18.25c.994-.306 2.254-1.005 2.958-1.421a1.011 1.011 0 00.49-.96L30.35 6H18.1l-.822 9.868a1.012 1.012 0 00.49.963c.703.415 1.963 1.113 2.957 1.419 2.613.805 4.387.805 7 0z" stroke="url(#paint3_linear_41_358)"/><path d="M10.007 6.761L7.043 17.14a.998.998 0 00.826 1.277c1.478.184 4.077.38 5.855-.166 1.041-.32 2.377-1.073 3.057-1.479a1.01 1.01 0 00.487-.789L18.099 6h-7.082a1.05 1.05 0 00-1.01.761z" stroke="url(#paint4_linear_41_358)"/></g><defs><linearGradient id="paint0_linear_41_358" x1="24.225" y1="18.25" x2="20.107" y2="52.953" gradientUnits="userSpaceOnUse"><stop stop-color="#29D9BB"/><stop offset="1" stop-color="#3A0CA3"/></linearGradient><linearGradient id="paint1_linear_41_358" x1="23.932" y1="23.5" x2="17.721" y2="47.486" gradientUnits="userSpaceOnUse"><stop stop-color="#29D9BB"/><stop offset="1" stop-color="#3A0CA3"/></linearGradient><linearGradient id="paint2_linear_41_358" x1="35.9" y1="6" x2="31.052" y2="27.979" gradientUnits="userSpaceOnUse"><stop stop-color="#29D9BB"/><stop offset="1" stop-color="#3A0CA3"/></linearGradient><linearGradient id="paint3_linear_41_358" x1="24.225" y1="6" x2="20.138" y2="28.764" gradientUnits="userSpaceOnUse"><stop stop-color="#29D9BB"/><stop offset="1" stop-color="#3A0CA3"/></linearGradient><linearGradient id="paint4_linear_41_358" x1="12.55" y1="6" x2="7.702" y2="27.978" gradientUnits="userSpaceOnUse"><stop stop-color="#29D9BB"/><stop offset="1" stop-color="#3A0CA3"/></linearGradient></defs></svg>