<svg width="44" height="44" viewBox="0 0 44 44" fill="none" xmlns="http://www.w3.org/2000/svg"><g stroke-width="1.5"><path d="M12.833 12.833V6.6a1.1 1.1 0 011.1-1.1h16.134a1.1 1.1 0 011.1 1.1v6.233M18.333 5.5v7.333M22 5.5v7.333m12.833 23.834H9.167A3.666 3.666 0 015.5 33V16.5a3.666 3.666 0 013.667-3.667h25.666A3.667 3.667 0 0138.5 16.5V33a3.667 3.667 0 01-3.667 3.667z" stroke="url(#paint0_linear_158_11388)"/><path d="M30.25 25.668a.917.917 0 110-1.833.917.917 0 010 1.833z" fill="url(#paint1_linear_158_11388)" stroke="url(#paint2_linear_158_11388)" stroke-linecap="round" stroke-linejoin="round"/></g><defs><linearGradient id="paint0_linear_158_11388" x1="22" y1="25.411" x2="22" y2="2.379" gradientUnits="userSpaceOnUse"><stop stop-color="#8424FF"/><stop offset="1" stop-color="#00E2BC"/></linearGradient><linearGradient id="paint1_linear_158_11388" x1="30.25" y1="25.006" x2="30.25" y2="23.651" gradientUnits="userSpaceOnUse"><stop stop-color="#8424FF"/><stop offset="1" stop-color="#00E2BC"/></linearGradient><linearGradient id="paint2_linear_158_11388" x1="30.25" y1="25.006" x2="30.25" y2="23.651" gradientUnits="userSpaceOnUse"><stop stop-color="#8424FF"/><stop offset="1" stop-color="#00E2BC"/></linearGradient></defs></svg>