<svg width="44" height="44" viewBox="0 0 44 44" fill="none" xmlns="http://www.w3.org/2000/svg"><g stroke-width="2" stroke-linecap="round" stroke-linejoin="round"><path d="M41.88 3.826v9.08a1.016 1.016 0 01-1.573.85 1.05 1.05 0 01-.384-.44 20.193 20.193 0 00-18.236-11.51c-10.47 0-19.08 7.97-20.092 18.175" stroke="url(#paint0_linear_158_9898)"/><path d="M21.681 19.98v-6.057m10.097 4.039v10.096a4.039 4.039 0 01-4.039 4.039H15.623a4.039 4.039 0 01-4.038-4.039V17.962a4.039 4.039 0 014.038-4.04H27.74a4.039 4.039 0 014.039 4.04z" stroke="url(#paint1_linear_158_9898)"/><path d="M1.589 40.174v-9.08c0-.562.456-1.017 1.018-1.017.403 0 .767.24.94.606a20.195 20.195 0 0018.235 11.51c10.472 0 19.083-7.97 20.094-18.173" stroke="url(#paint2_linear_158_9898)"/></g><defs><linearGradient id="paint0_linear_158_9898" x1="21.681" y1="14.667" x2="21.738" y2="-.013" gradientUnits="userSpaceOnUse"><stop stop-color="#8424FF"/><stop offset=".438" stop-color="#00E2BC"/></linearGradient><linearGradient id="paint1_linear_158_9898" x1="21.681" y1="25.533" x2="21.681" y2="12.103" gradientUnits="userSpaceOnUse"><stop stop-color="#8424FF"/><stop offset="1" stop-color="#00E2BC"/></linearGradient><linearGradient id="paint2_linear_158_9898" x1="21.733" y1="35.63" x2="21.733" y2="22.2" gradientUnits="userSpaceOnUse"><stop offset="1" stop-color="#8424FF"/><stop offset="1" stop-color="#00E2BC"/></linearGradient></defs></svg>