<svg width="46" height="44" viewBox="0 0 46 44" fill="none" xmlns="http://www.w3.org/2000/svg"><g stroke-width="1.5" stroke-linecap="round" stroke-linejoin="round"><path d="M31.25 27.892l.017-.019M22.5 21.75c4.375-5.25 13.125-5.25 17.5 0m-14 3.5c2.625-3.5 7.875-3.5 10.5 0" stroke="url(#paint0_linear_41_323)"/><path d="M40 13V9.5A3.5 3.5 0 0036.5 6h-28A3.5 3.5 0 005 9.5V34a3.5 3.5 0 003.5 3.5h28A3.5 3.5 0 0040 34v-3.5" stroke="url(#paint1_linear_41_323)"/><path d="M5 21.75h7M12 6v31.5" stroke="url(#paint2_linear_41_323)"/></g><defs><linearGradient id="paint0_linear_41_323" x1="31.25" y1="17.813" x2="29.214" y2="36.012" gradientUnits="userSpaceOnUse"><stop stop-color="#29D9BB"/><stop offset="1" stop-color="#3A0CA3"/></linearGradient><linearGradient id="paint1_linear_41_323" x1="22.5" y1="6" x2="12.734" y2="61.879" gradientUnits="userSpaceOnUse"><stop stop-color="#29D9BB"/><stop offset="1" stop-color="#3A0CA3"/></linearGradient><linearGradient id="paint2_linear_41_323" x1="8.5" y1="6" x2="-20.033" y2="38.653" gradientUnits="userSpaceOnUse"><stop stop-color="#29D9BB"/><stop offset="1" stop-color="#3A0CA3"/></linearGradient></defs></svg>